<?xml version="1.0" encoding="utf-8" standalone="no"?>
<!DOCTYPE svg PUBLIC "-//W3C//DTD SVG 1.1//EN" "http://www.w3.org/Graphics/SVG/1.1/DTD/svg11.dtd">
<svg version="1.1" class="svg-plot" xmlns="http://www.w3.org/2000/svg" width="1292.33pt" height="454pt" viewBox="-35.37 -14.5 1292.33 454" preserveAspectRatio="xMidYMid"><rect x="-25.37" y="-4.5" width="1272.33" height="434" class="svg-plot-bg"/><rect x="0" y="0" width="1200" height="400" class="svg-plot-axis"/><line x1="0" x2="0" y1="0" y2="400" class="svg-plot-major"/><line x1="0" x2="0" y1="0" y2="400" class="svg-plot-major"/><line x1="0" x2="0" y1="0" y2="400" class="svg-plot-major"/><line x1="0" x2="1200" y1="200" y2="200" class="svg-plot-major"/><line x1="0" x2="1200" y1="400" y2="400" class="svg-plot-minor"/><line x1="0" x2="1200" y1="0" y2="0" class="svg-plot-minor"/><clipPath id="clip0"><rect x="-0.5" y="-0.5" width="1201" height="401"/></clipPath><g clip-path="url(#clip0)"><path class="svg-plot-line svg-plot-s0 svg-plot-d0" d="M 0 204.86 12 214.55 24 232.11 36 232.48 48 215.02 60 202.61 72 200.07 84 200 264 200 276 199.99 288 199.91 300 199.77 312 200.01 324 200.88 336 201.16 348 199.74 360 198.19 372 198.2 384 198.91 396 199.34 408 199.64 420 200.18 432 200.85 444 200.67 456 199.59 468 198.81 480 198.65 492 199.04 504 200.13 516 201.15 528 201.55 540 201.64 552 201.5 564 201.09 576 200.17 588 199.22 600 0 612 200 624 192.81 636 183.98 648 183.8 660 192.51 672 198.7 684 199.96 696 200 876 200 888 199.92 900 199.31 912 198.07 924 197.92 936 199.81 948 201.52 960 201.59 972 200.83 984 199.53 996 198.47 1008 199.34 1020 201.28 1032 202.12 1044 202 1056 201.84 1080 201.71 1092 201.57 1104 201.06 1116 199.93 1128 199.19 1140 199.66 1152 200.24 1164 199.82 1176 199.06 1188 198.9 1200 199.1"/></g><g><text class="svg-plot-label svg-plot-t" x="0" y="0" transform="rotate(-90) translate(-199.1 -20.87)">signal</text><text class="svg-plot-value" style="text-anchor:end" x="-5" y="-0.9">1</text><text class="svg-plot-value" style="text-anchor:end" x="-5" y="399.1">-1</text><text class="svg-plot-value" style="text-anchor:end" x="-5" y="199.1">0</text><text class="svg-plot-label svg-plot-t" x="600" y="424.1">time</text><text class="svg-plot-value" x="1200" y="408.6">100</text><text class="svg-plot-value" x="0" y="408.6">0</text><text class="svg-plot-value" x="600" y="408.6">50</text><text class="svg-plot-value" x="0" y="408.6">0</text><text class="svg-plot-value" x="0" y="408.6">0</text><text class="svg-plot-value" x="0" y="408.6">0</text><text class="svg-plot-label svg-plot-t0" style="text-anchor:start" x="1203" y="197.902">prev00</text></g><defs><g id="svg-plot-marker0" class="svg-plot-marker"><circle cx="0" cy="0" r="1" stroke="none"/></g><g id="svg-plot-marker1" class="svg-plot-marker"><path d="M0 0.9 -0.9 0 0 -0.9 0.9 0Z" fill="#FFFA" stroke-linejoin="miter" stroke-width="0.6"/></g><g id="svg-plot-marker2" class="svg-plot-marker"><path fill="none" d="M0 -1.2 0 1.2 M -1.2 0 1.2 0" stroke-width="0.7"/></g><g id="svg-plot-marker3" class="svg-plot-marker"><circle cx="0" cy="0" fill="#FFFA" r="0.8" stroke-width="0.65"/></g><g id="svg-plot-marker4" class="svg-plot-marker"><path stroke="none" d="M0 -1.25 1.25 0.9 -1.25 0.9Z"/></g><mask id="svg-plot-hatch0"><rect x="-1764" y="-1764" width="3528" height="3528" fill="url(#svg-plot-hatch0-pattern)" style="transform:rotate(30deg)"/></mask><pattern patternUnits="userSpaceOnUse" id="svg-plot-hatch0-pattern" class="svg-plot-hatch" x="0" y="0" width="10" height="2.4" stroke="#FFF" fill="none"><line x1="-1" x2="11" y1="1.2" y2="1.2"/></pattern><mask id="svg-plot-hatch1"><rect x="-1764" y="-1764" width="3528" height="3528" fill="url(#svg-plot-hatch1-pattern)" style="transform:rotate(-50deg)"/></mask><pattern patternUnits="userSpaceOnUse" id="svg-plot-hatch1-pattern" class="svg-plot-hatch" x="0" y="0" width="10" height="3" stroke="#FFF" fill="none"><line x1="-1" x2="11" y1="1.5" y2="1.5"/></pattern><mask id="svg-plot-hatch3"><rect x="-1764" y="-1764" width="3528" height="3528" fill="url(#svg-plot-hatch3-pattern)" style="transform:rotate(8deg)"/><rect x="-1764" y="-1764" width="3528" height="3528" fill="url(#svg-plot-hatch3-pattern)" style="transform:rotate(93deg)"/></mask><pattern patternUnits="userSpaceOnUse" id="svg-plot-hatch3-pattern" class="svg-plot-hatch" x="0" y="0" width="10" height="3" stroke="#FFF" fill="none"><line x1="-1" x2="11" y1="1.5" y2="1.5"/></pattern></defs><style>.svg-plot{stroke-linecap:butt;stroke-linejoin:round;}.svg-plot-bg{fill:none;stroke:none;}.svg-plot-axis{stroke:none;fill:#FFFFFFD9;}.svg-plot-legend{stroke:none;fill:#FFFFFFE4;}.svg-plot-line{stroke:blue;fill:none;stroke-width:1px;stroke-linejoin:round;}.svg-plot-fill{stroke:none;opacity:0.6;}.svg-plot-major{stroke:#000;stroke-width:1px;stroke-linecap:square;fill:none;}.svg-plot-minor{stroke:#0000004D;stroke-width:0.5px;stroke-dasharray:0.5 1.5;stroke-linecap:round;fill:none;}.svg-plot-tick{stroke:#000;fill:none;stroke-width:1px;stroke-linecap:butt;}.svg-plot-value,.svg-plot-label{font-family:Arial,sans-serif;fill:#000;stroke:#FFFFFF48;stroke-width:2.5px;paint-order:stroke fill;text-anchor:middle;dominant-baseline:central;alignment-baseline:baseline;}.svg-plot-label{font-size:12px;}.svg-plot-value{font-size:9px;}.svg-plot-hatch{stroke:#FFF;stroke-width:1px;}.svg-plot-marker{transform:scale(3.25);}.svg-plot-s{stroke:#000;}.svg-plot-f,.svg-plot-t{fill:#000;}.svg-plot-s0{stroke:#CC0000}.svg-plot-f0,.svg-plot-t0{fill:#CC0000}.svg-plot-s1{stroke:#0073E6}.svg-plot-f1,.svg-plot-t1{fill:#0073E6}.svg-plot-s2{stroke:#00B300}.svg-plot-f2,.svg-plot-t2{fill:#00B300}.svg-plot-s3{stroke:#806600}.svg-plot-f3,.svg-plot-t3{fill:#806600}.svg-plot-s4{stroke:#E69900}.svg-plot-f4,.svg-plot-t4{fill:#E69900}.svg-plot-s5{stroke:#CC00CC}.svg-plot-f5,.svg-plot-t5{fill:#CC00CC}.svg-plot-d0{stroke-width:0.9px}.svg-plot-d1{stroke-dasharray:2.8 1.6}.svg-plot-d2{stroke-dasharray:1.2 1.2}.svg-plot-d3{stroke-dasharray:5 4}.svg-plot-d4{stroke-dasharray:4 1 1 1 1 1}.svg-plot-d5{stroke-dasharray:10 3}.svg-plot-d6{stroke-dasharray:4 2 1 2}.svg-plot-h0{mask:url(#svg-plot-hatch0)}.svg-plot-h1{mask:url(#svg-plot-hatch1)}.svg-plot-h2{opacity:0.2}.svg-plot-h3{mask:url(#svg-plot-hatch3)}#svg-plot-hatch0-pattern{stroke-width:0.9px}#svg-plot-hatch3-pattern{stroke-width:0.7px}.svg-plot-value,.svg-plot-label{font-family:Verdana,sans-serif;}.svg-plot-axis{fill:#EEE;}.svg-plot-tick{stroke:#666;stroke-width:0.75px;}.svg-plot-value{fill:#666;opacity:0.8;font-weight:bold;}.svg-plot-major{stroke:#FFF;stroke-width:1.5px;}.svg-plot-minor{stroke:#FFF;stroke-width:0.75px;stroke-dasharray:none;}</style><script>var q=document,x=setTimeout,a=Math.random,r=q.querySelector(&quot;style&quot;);r.textContent='@import &quot;/style/article/dist.css&quot;;'+r.textContent+'.svg-plot-value,.svg-plot-label{font-family:&quot;Geraint Dense&quot;,Arial,sans-serif}';var t=[];q.querySelectorAll(&quot;path&quot;).forEach(function(e){var y=e.getAttribute(&quot;d&quot;);t.push(function(){var f=40*a(),u=!0,g=2*(a()-.5),h=2*(a()-.5),k=2*(a()-.5),l=2*(a()-.5),m,n,B=y.replace(/([0-9\.]+) ([0-9\.]+)/g,function(C,z,A){function p(b,c){b=parseFloat(b);c=parseFloat(c);if(!u){var d=b-m,v=c-n;d=Math.sqrt(d*
		d+v*v);if(20&lt;d)return p(.5*(m+b),.5*(n+c)),p(b,c);f+=d;40&lt;f&amp;&amp;(f=0,g=h,k=l,h=2*(a()-.5),l=2*(a()-.5))}u=!1;m=b;n=c;d=f/40;b+=g+(h-g)*d;c+=k+(l-k)*d;result+=&quot; &quot;+b+&quot; &quot;+c}result=&quot;&quot;;p(z,A);return result});e.setAttribute(&quot;d&quot;,B)})});var w=function(){t.forEach(function(e){e()});x(w,240*(.9+.2*a()))};w()
		</script></svg>