<?xml version="1.0" encoding="utf-8" standalone="no"?>
<!DOCTYPE svg PUBLIC "-//W3C//DTD SVG 1.1//EN" "http://www.w3.org/Graphics/SVG/1.1/DTD/svg11.dtd">
<svg version="1.1" class="svg-plot" xmlns="http://www.w3.org/2000/svg" width="1285.33pt" height="449.5pt" viewBox="-35.37 -10 1285.33 449.5" preserveAspectRatio="xMidYMid"><rect x="-25.37" y="0" width="1265.33" height="429.5" class="svg-plot-bg"/><rect x="0" y="0" width="1200" height="400" class="svg-plot-axis"/><line x1="0" x2="0" y1="0" y2="400" class="svg-plot-major"/><line x1="0" x2="0" y1="0" y2="400" class="svg-plot-major"/><line x1="0" x2="0" y1="0" y2="400" class="svg-plot-major"/><line x1="0" x2="0" y1="0" y2="400" class="svg-plot-major"/><line x1="0" x2="0" y1="0" y2="400" class="svg-plot-major"/><line x1="0" x2="0" y1="0" y2="400" class="svg-plot-major"/><line x1="0" x2="0" y1="0" y2="400" class="svg-plot-major"/><line x1="0" x2="0" y1="0" y2="400" class="svg-plot-major"/><line x1="0" x2="0" y1="0" y2="400" class="svg-plot-major"/><line x1="0" x2="0" y1="0" y2="400" class="svg-plot-major"/><line x1="0" x2="0" y1="0" y2="400" class="svg-plot-major"/><line x1="0" x2="0" y1="0" y2="400" class="svg-plot-major"/><line x1="0" x2="0" y1="0" y2="400" class="svg-plot-major"/><line x1="0" x2="0" y1="0" y2="400" class="svg-plot-major"/><line x1="0" x2="0" y1="0" y2="400" class="svg-plot-major"/><line x1="0" x2="0" y1="0" y2="400" class="svg-plot-major"/><line x1="0" x2="0" y1="0" y2="400" class="svg-plot-major"/><line x1="0" x2="0" y1="0" y2="400" class="svg-plot-major"/><line x1="0" x2="0" y1="0" y2="400" class="svg-plot-major"/><line x1="0" x2="0" y1="0" y2="400" class="svg-plot-major"/><line x1="0" x2="0" y1="0" y2="400" class="svg-plot-major"/><line x1="0" x2="0" y1="0" y2="400" class="svg-plot-major"/><line x1="0" x2="0" y1="0" y2="400" class="svg-plot-major"/><line x1="0" x2="0" y1="0" y2="400" class="svg-plot-major"/><line x1="0" x2="0" y1="0" y2="400" class="svg-plot-major"/><line x1="0" x2="0" y1="0" y2="400" class="svg-plot-major"/><line x1="0" x2="0" y1="0" y2="400" class="svg-plot-major"/><line x1="0" x2="0" y1="0" y2="400" class="svg-plot-major"/><line x1="0" x2="0" y1="0" y2="400" class="svg-plot-major"/><line x1="0" x2="0" y1="0" y2="400" class="svg-plot-major"/><line x1="0" x2="0" y1="0" y2="400" class="svg-plot-major"/><line x1="0" x2="0" y1="0" y2="400" class="svg-plot-major"/><line x1="0" x2="0" y1="0" y2="400" class="svg-plot-major"/><line x1="0" x2="0" y1="0" y2="400" class="svg-plot-major"/><line x1="0" x2="0" y1="0" y2="400" class="svg-plot-major"/><line x1="0" x2="1200" y1="213.167" y2="213.167" class="svg-plot-major"/><line x1="0" x2="1200" y1="343.174" y2="343.174" class="svg-plot-minor"/><line x1="0" x2="1200" y1="83.1591" y2="83.1591" class="svg-plot-minor"/><clipPath id="clip0"><rect x="-0.5" y="-0.5" width="1201" height="401"/></clipPath><g clip-path="url(#clip0)"><path class="svg-plot-line svg-plot-s0 svg-plot-d0" d="M 0 343.17 1.09 339.26 2.18 336.44 3.28 335.25 4.37 335.6 5.46 336.81 6.55 337.96 7.64 338.28 8.74 337.49 9.83 335.93 10.92 334.47 12.01 334.11 13.1 335.62 14.19 339.2 15.29 344.36 16.38 350.03 17.47 354.91 18.56 357.82 19.65 358.1 20.75 355.7 21.84 351.17 22.93 345.44 24.02 339.53 25.11 334.28 26.21 330.25 27.3 327.68 28.39 326.55 29.48 326.74 30.57 328.05 31.67 330.23 32.76 332.98 33.85 335.86 34.94 338.33 36.03 339.86 37.12 340.03 38.22 338.73 39.31 336.24 40.4 333.22 41.49 330.54 42.58 329.08 43.68 329.46 44.77 331.84 45.86 335.92 46.95 341.03 48.04 346.33 49.14 351.1 50.23 354.87 51.32 357.56 52.41 359.38 53.5 360.7 54.6 361.84 55.69 363.03 57.87 365.59 60.05 368.01 61.15 369.38 62.24 371.18 63.33 373.68 64.42 377 65.51 381.02 66.61 385.35 67.7 389.46 68.79 392.78 69.88 394.87 70.97 395.51 72.07 394.76 73.16 392.83 74.25 390.06 75.34 386.75 76.43 383.16 78.62 375.74 79.71 372.18 80.8 368.96 81.89 366.29 82.98 364.3 84.08 363.03 85.17 362.3 86.26 361.76 87.35 360.98 88.44 359.53 89.54 357.17 90.63 353.9 91.72 350.02 92.81 346 93.9 342.39 95 339.7 96.09 338.25 97.18 338.23 98.27 339.65 99.36 342.46 100.45 346.54 101.55 351.72 102.64 357.74 103.73 364.13 104.82 370.25 105.91 375.22 107.01 378.13 108.1 378.19 109.19 374.98 110.28 368.54 111.37 359.48 112.47 348.81 113.56 337.78 114.65 327.6 115.74 319.17 116.83 313.04 117.93 309.33 119.02 307.86 120.11 308.33 121.2 310.36 122.29 313.61 123.38 317.75 125.57 326.96 126.66 331.05 127.75 334.2 128.84 336.26 129.94 337.5 131.03 338.57 132.12 340.42 133.21 343.94 134.3 349.63 135.4 357.3 136.49 365.96 137.58 374.02 138.67 379.71 139.76 381.66 140.86 379.38 141.95 373.53 143.04 365.85 144.13 358.67 145.22 354.29 146.31 354.17 147.41 358.55 148.5 366.26 149.59 375.05 150.68 382.27 151.77 385.66 152.87 383.96 153.96 377.3 155.05 367.05 156.14 355.35 157.23 344.44 158.33 335.94 159.42 330.51 160.51 327.71 161.6 326.37 162.69 325.06 163.79 322.67 164.88 318.81 165.97 313.82 167.06 308.68 168.15 304.48 169.24 302.07 170.34 301.68 171.43 302.9 172.52 304.86 173.61 306.56 174.7 307.32 175.8 307 176.89 306.08 177.98 305.44 179.07 306.05 180.16 308.52 181.26 312.85 183.44 323.73 184.53 327.56 185.62 328.6 186.72 326.18 187.81 320.43 188.9 312.21 189.99 302.9 191.08 294.05 192.17 286.97 193.27 282.48 194.36 280.75 195.45 281.39 196.54 283.64 198.73 289.63 199.82 292.2 200.91 294.2 202 295.72 203.09 296.85 204.19 297.62 205.28 297.85 206.37 297.18 207.46 295.24 208.55 291.82 209.65 287.04 211.83 275.83 212.92 271.36 214.01 268.93 215.1 269.06 216.2 271.68 217.29 276.12 218.38 281.21 219.47 285.68 220.56 288.49 221.66 289.15 222.75 287.84 223.84 285.36 224.93 282.78 226.02 281.09 227.12 280.81 228.21 281.77 229.3 283.16 230.39 283.82 231.48 282.63 232.58 278.97 233.67 273.02 234.76 265.77 235.85 258.8 236.94 253.79 238.03 252.03 239.13 253.98 240.22 259.17 241.31 266.29 242.4 273.59 243.49 279.4 244.59 282.56 245.68 282.72 246.77 280.33 247.86 276.32 248.95 271.79 250.05 267.5 251.14 263.71 252.23 260.11 253.32 255.97 254.41 250.56 255.51 243.41 256.6 234.6 258.78 215.11 259.87 206.77 260.96 200.9 262.06 198.17 263.15 198.71 264.24 202.12 265.33 207.58 267.52 220.48 268.61 225.84 269.7 229.31 270.79 230.33 271.88 228.65 272.98 224.4 274.07 218.08 276.25 203.23 277.34 197.16 278.43 193.48 279.53 192.77 280.62 194.95 281.71 199.25 282.8 204.35 283.89 208.8 284.99 211.3 286.08 211.18 287.17 208.49 288.26 203.99 289.35 198.92 290.45 194.53 291.54 191.75 292.63 190.86 293.72 191.47 294.81 192.69 295.91 193.45 297 192.94 298.09 190.82 299.18 187.44 300.27 183.63 301.36 180.47 302.46 178.93 303.55 179.56 304.64 182.3 305.73 186.59 306.82 191.53 307.92 196.18 309.01 199.84 310.1 202.21 311.19 203.37 312.28 203.61 313.38 203.24 314.47 202.29 315.56 200.49 316.65 197.2 317.74 191.69 318.84 183.42 319.93 172.32 321.02 159 322.11 144.81 323.2 131.64 324.29 121.58 325.39 116.46 326.48 117.43 327.57 124.64 328.66 137.09 329.75 152.86 330.85 169.36 331.94 183.97 333.03 194.44 334.12 199.47 335.21 198.81 336.31 193.32 337.4 184.65 338.49 174.77 339.58 165.53 340.67 158.13 341.77 152.94 342.86 149.49 343.95 146.76 345.04 143.53 346.13 138.86 347.22 132.39 348.32 124.5 349.41 116.17 350.5 108.75 351.59 103.5 352.68 101.27 353.78 102.18 354.87 105.65 355.96 110.49 357.05 115.22 358.14 118.46 359.24 119.23 360.33 117.19 361.42 112.71 362.51 106.75 363.6 100.64 364.7 95.82 365.79 93.52 366.88 94.53 367.97 99 369.06 106.44 370.15 115.68 371.25 125.17 372.34 133.15 373.43 138.05 374.52 138.79 375.61 135.09 376.71 127.54 377.8 117.55 378.89 107.08 379.98 98.18 381.07 92.59 382.17 91.28 383.26 94.3 384.35 100.75 386.53 117.59 387.63 124.6 388.72 129.07 389.81 130.62 390.9 129.45 391.99 126.14 393.08 121.35 394.18 115.6 395.27 109.16 396.36 102.18 398.54 87.41 399.64 80.71 400.73 75.66 401.82 73.23 402.91 74.08 404 78.26 405.1 85.08 406.19 93.19 407.28 100.86 408.37 106.47 409.46 108.89 410.56 107.82 411.65 103.82 412.74 98.1 413.83 92.11 414.92 87.14 416.01 83.91 417.11 82.51 418.2 82.41 419.29 82.79 420.38 82.85 421.47 82.09 422.57 80.44 423.66 78.19 424.75 75.8 425.84 73.65 426.93 71.89 428.03 70.38 429.12 68.81 430.21 66.87 431.3 64.48 432.39 61.85 433.48 59.51 434.58 58.06 435.67 58.01 436.76 59.55 437.85 62.42 440.04 69.57 441.13 72.41 442.22 74.16 443.31 74.86 444.4 74.92 445.5 74.92 446.59 75.36 447.68 76.48 448.77 78.13 449.86 79.88 450.96 81.16 452.05 81.49 453.14 80.68 454.23 78.87 455.32 76.48 456.41 73.99 457.51 71.79 458.6 70.01 459.69 68.49 460.78 66.9 461.87 64.93 462.97 62.5 464.06 59.82 465.15 57.41 466.24 55.91 467.33 55.8 468.43 57.2 469.52 59.7 470.61 62.43 471.7 64.35 472.79 64.51 473.89 62.48 474.98 58.52 476.07 53.63 477.16 49.27 478.25 47.02 479.34 48.04 480.44 52.74 481.53 60.58 482.62 70.14 483.71 79.48 484.8 86.62 485.9 90.02 486.99 89.01 488.08 83.86 489.17 75.74 490.26 66.32 491.36 57.37 492.45 50.32 493.54 46.01 494.63 44.53 495.72 45.41 496.82 47.81 499 53.97 500.09 56.8 501.18 59.43 502.27 62.19 503.37 65.47 504.46 69.56 505.55 74.56 506.64 80.38 507.73 86.81 509.92 100.4 511.01 107.16 512.1 113.67 513.19 119.73 514.29 125.02 515.38 129.09 516.47 131.4 517.56 131.43 518.65 128.8 519.75 123.46 520.84 115.67 521.93 105.99 523.02 95.15 525.2 72.84 526.3 62.27 527.39 52.28 528.48 42.79 529.57 33.71 530.66 25.05 531.76 17.05 532.85 10.12 533.94 4.73 535.03 1.3 536.12 0 537.22 0.72 538.31 3.1 539.4 6.66 540.49 10.94 541.58 15.72 542.68 21.09 543.77 27.41 544.86 35.17 545.95 44.81 547.04 56.52 548.13 70.07 550.32 99.8 551.41 113.83 552.5 125.81 553.59 134.88 554.69 140.56 555.78 142.86 556.87 142.22 557.96 139.49 559.05 135.77 560.15 132.28 561.24 130.21 562.33 130.44 563.42 133.42 564.51 138.99 565.61 146.36 566.7 154.15 567.79 160.66 568.88 164.25 569.97 163.68 571.06 158.52 572.16 149.26 573.25 137.26 574.34 124.44 575.43 112.78 576.52 103.83 577.62 98.31 578.71 95.96 579.8 95.73 580.89 96.15 581.98 95.82 583.08 93.88 584.17 90.23 586.35 80.75 587.44 77.03 588.54 75.02 589.63 74.82 590.72 75.91 591.81 77.51 592.9 78.89 593.99 79.72 595.09 80.24 596.18 81.15 597.27 83.31 598.36 87.37 599.45 93.43 600.55 100.93 601.64 108.85 602.73 115.99 603.82 121.48 604.91 125.07 606.01 127.19 607.1 128.8 608.19 130.9 609.28 134.13 610.37 138.4 611.46 142.9 612.56 146.37 613.65 147.67 614.74 146.29 615.83 142.74 616.92 138.55 618.02 135.87 619.11 136.79 620.2 142.56 621.29 153.06 622.38 166.67 623.48 180.63 624.57 191.81 625.66 197.64 626.75 196.89 627.84 190.06 628.94 179.22 630.03 167.42 631.12 157.71 632.21 152.32 633.3 152.01 634.39 156.04 636.58 168.91 637.67 173.34 638.76 174.7 639.85 173.12 640.95 169.76 642.04 166.27 643.13 164.23 644.22 164.56 645.31 167.34 646.41 171.82 647.5 176.82 648.59 181.15 649.68 183.98 650.77 185.09 651.87 184.73 652.96 183.42 654.05 181.64 655.14 179.6 656.23 177.18 657.32 174.07 658.42 170.04 659.51 165.14 660.6 159.88 661.69 155.18 662.78 152.09 663.88 151.51 664.97 153.88 666.06 159.05 667.15 166.28 669.34 182.89 670.43 190.6 671.52 197.52 673.7 210.16 674.8 216.66 675.89 223.32 676.98 229.6 678.07 234.56 679.16 237.23 680.25 236.92 681.35 233.57 682.44 227.85 683.53 221.05 684.62 214.7 685.71 210.12 686.81 208.07 687.9 208.52 688.99 210.72 690.08 213.56 691.17 215.99 692.27 217.48 693.36 218.2 694.45 218.99 695.54 221.05 696.63 225.45 697.73 232.64 698.82 242.18 699.91 252.78 701 262.59 702.09 269.76 703.18 272.98 704.28 271.9 705.37 267.23 706.46 260.52 707.55 253.65 708.64 248.28 709.74 245.37 710.83 244.94 711.92 246.2 713.01 247.87 714.1 248.74 715.2 248.05 716.29 245.75 718.47 239.3 719.56 237.15 720.66 236.64 721.75 237.76 722.84 239.98 723.93 242.46 725.02 244.5 726.11 245.81 727.21 246.62 728.3 247.67 729.39 249.8 730.48 253.6 731.57 259.12 733.76 272.18 734.85 277.21 735.94 279.72 737.03 279.35 738.13 276.51 739.22 272.35 740.31 268.35 741.4 265.86 742.49 265.62 743.59 267.59 744.68 270.97 745.77 274.5 746.86 276.89 747.95 277.33 749.04 275.74 750.14 272.82 751.23 269.83 752.32 268.26 753.41 269.3 754.5 273.59 755.6 281 756.69 290.69 757.78 301.33 758.87 311.5 759.96 319.92 761.06 325.81 762.15 329 763.24 329.87 764.33 329.29 765.42 328.39 766.52 328.26 767.61 329.71 768.7 333.06 769.79 338.01 770.88 343.65 771.97 348.63 773.07 351.51 774.16 351.12 775.25 346.95 776.34 339.39 777.43 329.67 778.53 319.64 779.62 311.18 780.71 305.71 781.8 303.66 782.89 304.34 783.99 306.13 785.08 307.05 786.17 305.49 787.26 300.85 788.35 293.89 789.44 286.61 790.54 281.63 791.63 281.34 792.72 286.93 793.81 297.93 796 326.16 797.09 336.54 798.18 340.73 799.27 337.99 800.36 329.6 801.46 318.52 802.55 308.36 803.64 302.28 804.73 301.95 805.82 307.12 806.92 315.79 808.01 324.97 809.1 331.83 810.19 334.6 811.28 333.17 812.37 329.02 813.47 324.54 814.56 322.14 815.65 323.31 816.74 328.17 817.83 335.44 818.93 343.05 820.02 348.95 821.11 351.9 822.2 351.89 823.29 350.07 824.39 348.17 825.48 347.83 826.57 349.85 827.66 353.87 828.75 358.57 829.85 362.19 830.94 363.25 832.03 361.23 833.12 356.76 834.21 351.46 835.3 347.37 836.4 346.19 837.49 348.73 838.58 354.62 839.67 362.55 840.76 370.75 841.86 377.67 842.95 382.49 844.04 385.26 845.13 386.79 846.22 388.11 847.32 389.96 848.41 392.41 849.5 394.79 850.59 395.94 851.68 394.69 852.78 390.35 853.87 383.02 854.96 373.57 856.05 363.41 857.14 353.98 858.23 346.36 859.33 340.99 860.42 337.73 861.51 336.09 862.6 335.56 863.69 335.86 864.79 337.07 865.88 339.4 866.97 342.93 868.06 347.38 869.15 351.92 870.25 355.39 871.34 356.61 872.43 354.88 873.52 350.3 874.61 343.88 875.71 337.27 876.8 332.25 877.89 330.13 878.98 331.29 880.07 334.99 881.16 339.63 882.26 343.29 883.35 344.38 884.44 342.2 885.53 337.2 886.62 330.83 887.72 325.04 888.81 321.72 889.9 322.09 890.99 326.44 892.08 334.12 893.18 343.84 894.27 354.11 895.36 363.66 896.45 371.62 897.54 377.61 898.64 381.57 899.73 383.55 900.82 383.62 901.91 381.87 903 378.52 904.09 374.09 905.19 369.47 906.28 365.81 907.37 364.3 908.46 365.75 909.55 370.31 910.65 377.32 911.74 385.4 912.83 392.83 913.92 398.03 915.01 400 916.11 398.58 917.2 394.41 918.29 388.67 919.38 382.66 920.47 377.33 921.57 373.13 922.66 369.95 923.75 367.36 925.93 362.44 927.02 360.08 928.12 358.22 929.21 357.23 930.3 357.17 931.39 357.63 932.48 357.8 933.58 356.72 934.67 353.64 935.76 348.32 936.85 341.23 937.94 333.43 939.04 326.23 940.13 320.81 941.22 317.82 942.31 317.22 943.4 318.38 944.49 320.34 945.59 322.2 946.68 323.45 947.77 324.07 948.86 324.47 949.95 325.18 951.05 326.61 952.14 328.79 953.23 331.38 954.32 333.84 955.41 335.62 956.51 336.44 957.6 336.35 958.69 335.66 959.78 334.71 960.87 333.63 961.97 332.23 963.06 330.09 964.15 326.75 965.24 322.11 966.33 316.63 967.42 311.4 968.52 307.83 969.61 307.18 970.7 310.04 971.79 315.98 972.88 323.48 973.98 330.34 975.07 334.39 976.16 334.22 977.25 329.73 978.34 322.26 979.44 314.22 980.53 308.28 981.62 306.45 982.71 309.43 983.8 316.27 984.9 324.78 985.99 332.23 987.08 336.35 988.17 336.15 989.26 332.22 990.35 326.54 991.45 321.7 992.54 319.98 993.63 322.51 994.72 328.83 995.81 337.07 996.91 344.61 998 348.96 999.09 348.61 1000.18 343.5 1001.27 334.91 1002.37 324.98 1003.46 315.95 1004.55 309.35 1005.64 305.65 1006.73 304.26 1007.83 303.87 1008.92 303.14 1010.01 301.19 1011.1 297.9 1012.19 293.87 1013.28 290.09 1014.38 287.36 1015.47 286.03 1016.56 285.72 1017.65 285.58 1018.74 284.65 1019.84 282.28 1020.93 278.42 1022.02 273.73 1023.11 269.24 1024.2 266.03 1025.3 264.75 1026.39 265.37 1027.48 267.23 1028.57 269.26 1029.66 270.47 1030.76 270.26 1031.85 268.67 1032.94 266.32 1034.03 264.09 1035.12 262.75 1036.21 262.59 1037.31 263.25 1038.4 263.87 1039.49 263.37 1040.58 260.88 1041.67 256.06 1042.77 249.32 1043.86 241.63 1044.95 234.32 1046.04 228.63 1047.13 225.42 1048.23 224.92 1049.32 226.8 1050.41 230.33 1052.59 238.82 1053.69 242.4 1054.78 245.02 1055.87 246.55 1056.96 246.99 1058.05 246.39 1059.14 244.9 1060.24 242.76 1061.33 240.41 1062.42 238.4 1063.51 237.36 1064.6 237.79 1065.7 239.92 1066.79 243.55 1068.97 252.6 1070.06 256.21 1071.16 258.18 1072.25 258.2 1073.34 256.44 1074.43 253.46 1075.52 249.99 1076.62 246.74 1077.71 244.15 1078.8 242.35 1079.89 241.19 1080.98 240.34 1082.07 239.52 1083.17 238.56 1084.26 237.43 1085.35 236.21 1086.44 234.95 1087.53 233.56 1088.63 231.83 1089.72 229.39 1090.81 225.92 1091.9 221.21 1092.99 215.33 1094.09 208.62 1095.18 201.59 1096.27 194.85 1097.36 188.9 1098.45 184.05 1099.55 180.36 1100.64 177.73 1101.73 175.95 1102.82 174.79 1103.91 174.11 1105 173.8 1106.1 173.76 1107.19 173.83 1108.28 173.81 1109.37 173.46 1110.46 172.56 1111.56 171.06 1112.65 169.08 1113.74 166.98 1114.83 165.22 1115.92 164.27 1117.02 164.45 1118.11 165.81 1119.2 168.14 1121.38 173.8 1122.47 176.03 1123.57 177.26 1124.66 177.2 1125.75 175.68 1126.84 172.58 1127.93 167.86 1129.03 161.52 1130.12 153.67 1131.21 144.71 1132.3 135.27 1133.39 126.3 1134.49 118.89 1135.58 114.08 1136.67 112.61 1137.76 114.75 1138.85 120.2 1139.95 128.17 1141.04 137.56 1142.13 147.23 1143.22 156.2 1144.31 163.82 1145.4 169.8 1146.5 174.1 1147.59 176.83 1148.68 178.17 1149.77 178.28 1150.86 177.38 1151.96 175.79 1153.05 173.93 1154.14 172.33 1155.23 171.42 1156.32 171.4 1157.42 172.03 1158.51 172.61 1159.6 172.13 1160.69 169.56 1161.78 164.23 1162.88 156.2 1163.97 146.35 1165.06 136.28 1166.15 127.88 1167.24 122.75 1168.33 121.66 1169.43 124.18 1170.52 128.76 1171.61 133.08 1172.7 134.76 1173.79 132.07 1174.89 124.5 1175.98 112.95 1177.07 99.5 1178.16 86.81 1179.25 77.3 1180.35 72.52 1181.44 72.69 1182.53 76.79 1184.71 88.99 1185.81 93.36 1186.9 95.31 1187.99 95.12 1189.08 93.84 1190.17 92.82 1191.26 93.13 1192.36 95.22 1193.45 98.75 1194.54 102.79 1195.63 106.23 1196.72 108.17 1197.82 108.28 1198.91 106.87 1200 104.73"/></g><g><text class="svg-plot-label svg-plot-t" x="0" y="0" transform="rotate(-90) translate(-199.1 -20.87)">signal</text><text class="svg-plot-value" style="text-anchor:end" x="-5" y="82.2591">1</text><text class="svg-plot-value" style="text-anchor:end" x="-5" y="342.274">-1</text><text class="svg-plot-value" style="text-anchor:end" x="-5" y="212.267">0</text><text class="svg-plot-label svg-plot-t" x="600" y="424.1">time</text><text class="svg-plot-value" x="1187.99" y="408.6">1088</text><text class="svg-plot-value" x="0" y="408.6">0</text><text class="svg-plot-value" x="1153.05" y="408.6">1056</text><text class="svg-plot-value" x="0" y="408.6">0</text><text class="svg-plot-value" x="1118.11" y="408.6">1024</text><text class="svg-plot-value" x="0" y="408.6">0</text><text class="svg-plot-value" x="1083.17" y="408.6">992</text><text class="svg-plot-value" x="0" y="408.6">0</text><text class="svg-plot-value" x="1048.23" y="408.6">960</text><text class="svg-plot-value" x="0" y="408.6">0</text><text class="svg-plot-value" x="1013.28" y="408.6">928</text><text class="svg-plot-value" x="0" y="408.6">0</text><text class="svg-plot-value" x="978.344" y="408.6">896</text><text class="svg-plot-value" x="0" y="408.6">0</text><text class="svg-plot-value" x="943.403" y="408.6">864</text><text class="svg-plot-value" x="0" y="408.6">0</text><text class="svg-plot-value" x="908.462" y="408.6">832</text><text class="svg-plot-value" x="0" y="408.6">0</text><text class="svg-plot-value" x="873.521" y="408.6">800</text><text class="svg-plot-value" x="0" y="408.6">0</text><text class="svg-plot-value" x="838.581" y="408.6">768</text><text class="svg-plot-value" x="0" y="408.6">0</text><text class="svg-plot-value" x="803.64" y="408.6">736</text><text class="svg-plot-value" x="0" y="408.6">0</text><text class="svg-plot-value" x="768.699" y="408.6">704</text><text class="svg-plot-value" x="0" y="408.6">0</text><text class="svg-plot-value" x="733.758" y="408.6">672</text><text class="svg-plot-value" x="0" y="408.6">0</text><text class="svg-plot-value" x="698.817" y="408.6">640</text><text class="svg-plot-value" x="0" y="408.6">0</text><text class="svg-plot-value" x="663.876" y="408.6">608</text><text class="svg-plot-value" x="0" y="408.6">0</text><text class="svg-plot-value" x="628.935" y="408.6">576</text><text class="svg-plot-value" x="0" y="408.6">0</text><text class="svg-plot-value" x="593.995" y="408.6">544</text><text class="svg-plot-value" x="0" y="408.6">0</text><text class="svg-plot-value" x="559.054" y="408.6">512</text><text class="svg-plot-value" x="0" y="408.6">0</text><text class="svg-plot-value" x="524.113" y="408.6">480</text><text class="svg-plot-value" x="0" y="408.6">0</text><text class="svg-plot-value" x="489.172" y="408.6">448</text><text class="svg-plot-value" x="0" y="408.6">0</text><text class="svg-plot-value" x="454.231" y="408.6">416</text><text class="svg-plot-value" x="0" y="408.6">0</text><text class="svg-plot-value" x="419.29" y="408.6">384</text><text class="svg-plot-value" x="0" y="408.6">0</text><text class="svg-plot-value" x="384.349" y="408.6">352</text><text class="svg-plot-value" x="0" y="408.6">0</text><text class="svg-plot-value" x="349.409" y="408.6">320</text><text class="svg-plot-value" x="0" y="408.6">0</text><text class="svg-plot-value" x="314.468" y="408.6">288</text><text class="svg-plot-value" x="0" y="408.6">0</text><text class="svg-plot-value" x="279.527" y="408.6">256</text><text class="svg-plot-value" x="0" y="408.6">0</text><text class="svg-plot-value" x="244.586" y="408.6">224</text><text class="svg-plot-value" x="0" y="408.6">0</text><text class="svg-plot-value" x="209.645" y="408.6">192</text><text class="svg-plot-value" x="0" y="408.6">0</text><text class="svg-plot-value" x="174.704" y="408.6">160</text><text class="svg-plot-value" x="0" y="408.6">0</text><text class="svg-plot-value" x="139.763" y="408.6">128</text><text class="svg-plot-value" x="0" y="408.6">0</text><text class="svg-plot-value" x="104.823" y="408.6">96</text><text class="svg-plot-value" x="0" y="408.6">0</text><text class="svg-plot-value" x="69.8817" y="408.6">64</text><text class="svg-plot-value" x="0" y="408.6">0</text><text class="svg-plot-value" x="34.9409" y="408.6">32</text><text class="svg-plot-value" x="0" y="408.6">0</text><text class="svg-plot-value" x="0" y="408.6">0</text><text class="svg-plot-value" x="0" y="408.6">0</text><text class="svg-plot-label svg-plot-t0" style="text-anchor:start" x="1203" y="103.532">stuff4</text></g><defs><g id="svg-plot-marker0" class="svg-plot-marker"><circle cx="0" cy="0" r="1" stroke="none"/></g><g id="svg-plot-marker1" class="svg-plot-marker"><path d="M0 0.9 -0.9 0 0 -0.9 0.9 0Z" fill="#FFFA" stroke-linejoin="miter" stroke-width="0.6"/></g><g id="svg-plot-marker2" class="svg-plot-marker"><path fill="none" d="M0 -1.2 0 1.2 M -1.2 0 1.2 0" stroke-width="0.7"/></g><g id="svg-plot-marker3" class="svg-plot-marker"><circle cx="0" cy="0" fill="#FFFA" r="0.8" stroke-width="0.65"/></g><g id="svg-plot-marker4" class="svg-plot-marker"><path stroke="none" d="M0 -1.25 1.25 0.9 -1.25 0.9Z"/></g><mask id="svg-plot-hatch0"><rect x="-1754" y="-1754" width="3508" height="3508" fill="url(#svg-plot-hatch0-pattern)" style="transform:rotate(30deg)"/></mask><pattern patternUnits="userSpaceOnUse" id="svg-plot-hatch0-pattern" class="svg-plot-hatch" x="0" y="0" width="10" height="2.4" stroke="#FFF" fill="none"><line x1="-1" x2="11" y1="1.2" y2="1.2"/></pattern><mask id="svg-plot-hatch1"><rect x="-1754" y="-1754" width="3508" height="3508" fill="url(#svg-plot-hatch1-pattern)" style="transform:rotate(-50deg)"/></mask><pattern patternUnits="userSpaceOnUse" id="svg-plot-hatch1-pattern" class="svg-plot-hatch" x="0" y="0" width="10" height="3" stroke="#FFF" fill="none"><line x1="-1" x2="11" y1="1.5" y2="1.5"/></pattern><mask id="svg-plot-hatch3"><rect x="-1754" y="-1754" width="3508" height="3508" fill="url(#svg-plot-hatch3-pattern)" style="transform:rotate(8deg)"/><rect x="-1754" y="-1754" width="3508" height="3508" fill="url(#svg-plot-hatch3-pattern)" style="transform:rotate(93deg)"/></mask><pattern patternUnits="userSpaceOnUse" id="svg-plot-hatch3-pattern" class="svg-plot-hatch" x="0" y="0" width="10" height="3" stroke="#FFF" fill="none"><line x1="-1" x2="11" y1="1.5" y2="1.5"/></pattern></defs><style>.svg-plot{stroke-linecap:butt;stroke-linejoin:round;}.svg-plot-bg{fill:none;stroke:none;}.svg-plot-axis{stroke:none;fill:#FFFFFFD9;}.svg-plot-legend{stroke:none;fill:#FFFFFFE4;}.svg-plot-line{stroke:blue;fill:none;stroke-width:1px;stroke-linejoin:round;}.svg-plot-fill{stroke:none;opacity:0.6;}.svg-plot-major{stroke:#000;stroke-width:1px;stroke-linecap:square;fill:none;}.svg-plot-minor{stroke:#0000004D;stroke-width:0.5px;stroke-dasharray:0.5 1.5;stroke-linecap:round;fill:none;}.svg-plot-tick{stroke:#000;fill:none;stroke-width:1px;stroke-linecap:butt;}.svg-plot-value,.svg-plot-label{font-family:Arial,sans-serif;fill:#000;stroke:#FFFFFF48;stroke-width:2.5px;paint-order:stroke fill;text-anchor:middle;dominant-baseline:central;alignment-baseline:baseline;}.svg-plot-label{font-size:12px;}.svg-plot-value{font-size:9px;}.svg-plot-hatch{stroke:#FFF;stroke-width:1px;}.svg-plot-marker{transform:scale(3.25);}.svg-plot-s{stroke:#000;}.svg-plot-f,.svg-plot-t{fill:#000;}.svg-plot-s0{stroke:#CC0000}.svg-plot-f0,.svg-plot-t0{fill:#CC0000}.svg-plot-s1{stroke:#0073E6}.svg-plot-f1,.svg-plot-t1{fill:#0073E6}.svg-plot-s2{stroke:#00B300}.svg-plot-f2,.svg-plot-t2{fill:#00B300}.svg-plot-s3{stroke:#806600}.svg-plot-f3,.svg-plot-t3{fill:#806600}.svg-plot-s4{stroke:#E69900}.svg-plot-f4,.svg-plot-t4{fill:#E69900}.svg-plot-s5{stroke:#CC00CC}.svg-plot-f5,.svg-plot-t5{fill:#CC00CC}.svg-plot-d0{stroke-width:0.9px}.svg-plot-d1{stroke-dasharray:2.8 1.6}.svg-plot-d2{stroke-dasharray:1.2 1.2}.svg-plot-d3{stroke-dasharray:5 4}.svg-plot-d4{stroke-dasharray:4 1 1 1 1 1}.svg-plot-d5{stroke-dasharray:10 3}.svg-plot-d6{stroke-dasharray:4 2 1 2}.svg-plot-h0{mask:url(#svg-plot-hatch0)}.svg-plot-h1{mask:url(#svg-plot-hatch1)}.svg-plot-h2{opacity:0.2}.svg-plot-h3{mask:url(#svg-plot-hatch3)}#svg-plot-hatch0-pattern{stroke-width:0.9px}#svg-plot-hatch3-pattern{stroke-width:0.7px}.svg-plot-value,.svg-plot-label{font-family:Verdana,sans-serif;}.svg-plot-axis{fill:#EEE;}.svg-plot-tick{stroke:#666;stroke-width:0.75px;}.svg-plot-value{fill:#666;opacity:0.8;font-weight:bold;}.svg-plot-major{stroke:#FFF;stroke-width:1.5px;}.svg-plot-minor{stroke:#FFF;stroke-width:0.75px;stroke-dasharray:none;}</style><script>var q=document,x=setTimeout,a=Math.random,r=q.querySelector(&quot;style&quot;);r.textContent='@import &quot;/style/article/dist.css&quot;;'+r.textContent+'.svg-plot-value,.svg-plot-label{font-family:&quot;Geraint Dense&quot;,Arial,sans-serif}';var t=[];q.querySelectorAll(&quot;path&quot;).forEach(function(e){var y=e.getAttribute(&quot;d&quot;);t.push(function(){var f=40*a(),u=!0,g=2*(a()-.5),h=2*(a()-.5),k=2*(a()-.5),l=2*(a()-.5),m,n,B=y.replace(/([0-9\.]+) ([0-9\.]+)/g,function(C,z,A){function p(b,c){b=parseFloat(b);c=parseFloat(c);if(!u){var d=b-m,v=c-n;d=Math.sqrt(d*
		d+v*v);if(20&lt;d)return p(.5*(m+b),.5*(n+c)),p(b,c);f+=d;40&lt;f&amp;&amp;(f=0,g=h,k=l,h=2*(a()-.5),l=2*(a()-.5))}u=!1;m=b;n=c;d=f/40;b+=g+(h-g)*d;c+=k+(l-k)*d;result+=&quot; &quot;+b+&quot; &quot;+c}result=&quot;&quot;;p(z,A);return result});e.setAttribute(&quot;d&quot;,B)})});var w=function(){t.forEach(function(e){e()});x(w,240*(.9+.2*a()))};w()
		</script></svg>