<?xml version="1.0" encoding="utf-8" standalone="no"?>
<!DOCTYPE svg PUBLIC "-//W3C//DTD SVG 1.1//EN" "http://www.w3.org/Graphics/SVG/1.1/DTD/svg11.dtd">
<svg version="1.1" class="svg-plot" xmlns="http://www.w3.org/2000/svg" width="1285.2pt" height="449.5pt" viewBox="-35.37 -10 1285.2 449.5" preserveAspectRatio="xMidYMid"><rect x="-25.37" y="0" width="1265.2" height="429.5" class="svg-plot-bg"/><rect x="0" y="0" width="1200" height="400" class="svg-plot-axis"/><line x1="0" x2="0" y1="0" y2="400" class="svg-plot-major"/><line x1="0" x2="0" y1="0" y2="400" class="svg-plot-major"/><line x1="0" x2="0" y1="0" y2="400" class="svg-plot-major"/><line x1="0" x2="0" y1="0" y2="400" class="svg-plot-major"/><line x1="0" x2="0" y1="0" y2="400" class="svg-plot-major"/><line x1="0" x2="0" y1="0" y2="400" class="svg-plot-major"/><line x1="0" x2="0" y1="0" y2="400" class="svg-plot-major"/><line x1="0" x2="0" y1="0" y2="400" class="svg-plot-major"/><line x1="0" x2="0" y1="0" y2="400" class="svg-plot-major"/><line x1="0" x2="0" y1="0" y2="400" class="svg-plot-major"/><line x1="0" x2="0" y1="0" y2="400" class="svg-plot-major"/><line x1="0" x2="0" y1="0" y2="400" class="svg-plot-major"/><line x1="0" x2="0" y1="0" y2="400" class="svg-plot-major"/><line x1="0" x2="0" y1="0" y2="400" class="svg-plot-major"/><line x1="0" x2="0" y1="0" y2="400" class="svg-plot-major"/><line x1="0" x2="0" y1="0" y2="400" class="svg-plot-major"/><line x1="0" x2="0" y1="0" y2="400" class="svg-plot-major"/><line x1="0" x2="0" y1="0" y2="400" class="svg-plot-major"/><line x1="0" x2="0" y1="0" y2="400" class="svg-plot-major"/><line x1="0" x2="0" y1="0" y2="400" class="svg-plot-major"/><line x1="0" x2="0" y1="0" y2="400" class="svg-plot-major"/><line x1="0" x2="0" y1="0" y2="400" class="svg-plot-major"/><line x1="0" x2="0" y1="0" y2="400" class="svg-plot-major"/><line x1="0" x2="0" y1="0" y2="400" class="svg-plot-major"/><line x1="0" x2="0" y1="0" y2="400" class="svg-plot-major"/><line x1="0" x2="0" y1="0" y2="400" class="svg-plot-major"/><line x1="0" x2="0" y1="0" y2="400" class="svg-plot-major"/><line x1="0" x2="0" y1="0" y2="400" class="svg-plot-major"/><line x1="0" x2="0" y1="0" y2="400" class="svg-plot-major"/><line x1="0" x2="0" y1="0" y2="400" class="svg-plot-major"/><line x1="0" x2="0" y1="0" y2="400" class="svg-plot-major"/><line x1="0" x2="0" y1="0" y2="400" class="svg-plot-major"/><line x1="0" x2="0" y1="0" y2="400" class="svg-plot-major"/><line x1="0" x2="0" y1="0" y2="400" class="svg-plot-major"/><line x1="0" x2="0" y1="0" y2="400" class="svg-plot-major"/><line x1="0" x2="1200" y1="199.877" y2="199.877" class="svg-plot-major"/><line x1="0" x2="1200" y1="284.314" y2="284.314" class="svg-plot-minor"/><line x1="0" x2="1200" y1="115.44" y2="115.44" class="svg-plot-minor"/><clipPath id="clip0"><rect x="-0.5" y="-0.5" width="1201" height="401"/></clipPath><g clip-path="url(#clip0)"><path class="svg-plot-line svg-plot-s0 svg-plot-d0" d="M 0 115.44 1.09 102.77 2.18 90.59 3.28 78.97 4.37 67.95 5.46 57.6 6.55 47.98 7.64 39.12 8.74 31.07 9.83 23.88 10.92 17.59 12.01 12.21 13.1 7.79 14.19 4.34 15.29 1.89 16.38 0.44 17.47 0 18.56 0.58 19.65 2.17 20.75 4.76 21.84 8.34 22.93 12.9 24.02 18.41 25.11 24.84 26.21 32.16 27.3 40.33 28.39 49.31 29.48 59.06 30.57 69.53 31.67 80.66 32.76 92.39 33.85 104.67 34.94 117.44 36.03 130.63 37.12 144.17 39.31 172.03 43.68 228.88 45.86 256.72 46.95 270.24 48.04 283.4 49.14 296.14 50.23 308.39 51.32 320.09 52.41 331.18 53.5 341.61 54.6 351.31 55.69 360.25 56.78 368.37 57.87 375.63 58.96 382 60.05 387.45 61.15 391.94 62.24 395.46 63.33 397.98 64.42 399.5 65.51 400 66.61 399.49 67.7 397.96 68.79 395.43 69.88 391.9 70.97 387.4 72.07 381.94 73.16 375.56 74.25 368.29 75.34 360.17 76.43 351.23 77.53 341.52 78.62 331.1 79.71 320.01 80.8 308.31 81.89 296.06 82.98 283.33 84.08 270.17 85.17 256.66 87.35 228.85 91.72 172.07 93.9 144.25 95 130.74 96.09 117.58 97.18 104.84 98.27 92.58 99.36 80.88 100.45 69.78 101.55 59.34 102.64 49.63 103.73 40.67 104.82 32.61 105.91 25.31 107.01 18.9 108.1 13.41 109.19 8.87 110.28 5.31 111.37 2.73 112.47 1.16 113.56 0.59 114.65 1.04 115.74 2.5 116.83 4.96 117.93 8.41 119.02 12.83 120.11 18.2 121.2 24.5 122.29 31.68 123.38 39.72 124.48 48.57 125.57 58.18 126.66 68.51 127.75 79.5 128.84 91.11 129.94 103.26 131.03 115.9 132.12 128.96 133.21 142.38 135.4 170.01 139.76 226.45 141.95 254.13 143.04 267.57 144.13 280.68 145.22 293.36 146.31 305.57 147.41 317.23 148.5 328.29 149.59 338.7 150.68 348.39 151.77 357.33 152.87 365.47 153.96 372.76 155.05 379.16 156.14 384.66 157.23 389.21 158.33 392.8 159.42 395.41 160.51 397.02 161.6 397.63 162.69 397.23 163.79 395.83 164.88 393.44 165.97 390.06 167.06 385.72 168.15 380.43 169.24 374.23 170.34 367.14 171.43 359.21 172.52 350.47 173.61 340.96 174.7 330.75 175.8 319.87 176.89 308.38 177.98 296.35 179.07 283.83 180.16 270.89 181.26 257.6 183.44 230.21 187.81 174.21 189.99 146.74 191.08 133.38 192.17 120.36 193.27 107.76 194.36 95.62 195.45 84.02 196.54 73.01 197.63 62.66 198.73 53 199.82 44.09 200.91 35.98 202 28.7 203.09 22.29 204.19 16.79 205.28 12.22 206.37 8.61 207.46 5.97 208.55 4.32 209.65 3.66 210.74 4 211.83 5.33 212.92 7.65 214.01 10.95 215.1 15.21 216.2 20.4 217.29 26.51 218.38 33.5 219.47 41.33 220.56 49.96 221.66 59.35 222.75 69.46 223.84 80.22 224.93 91.59 226.02 103.51 227.12 115.92 228.21 128.74 229.3 141.93 231.48 169.11 235.85 224.75 238.03 252.08 239.13 265.37 240.22 278.34 241.31 290.9 242.4 302.99 243.49 314.56 244.59 325.55 245.68 335.89 246.77 345.55 247.86 354.46 248.95 362.58 250.05 369.88 251.14 376.31 252.23 381.85 253.32 386.46 254.41 390.12 255.51 392.81 256.6 394.53 257.69 395.25 258.78 394.99 259.87 393.73 260.96 391.49 262.06 388.27 263.15 384.1 264.24 378.99 265.33 372.97 266.42 366.07 267.52 358.33 268.61 349.78 269.7 340.48 270.79 330.45 271.88 319.77 272.98 308.48 274.07 296.63 275.16 284.3 276.25 271.53 277.34 258.4 279.53 231.32 283.89 175.79 286.08 148.48 287.17 135.17 288.26 122.2 289.35 109.62 290.45 97.49 291.54 85.89 292.63 74.86 293.72 64.47 294.81 54.76 295.91 45.79 297 37.6 298.09 30.23 299.18 23.73 300.27 18.12 301.36 13.43 302.46 9.68 303.55 6.9 304.64 5.1 305.73 4.29 306.82 4.47 307.92 5.65 309.01 7.81 310.1 10.94 311.19 15.04 312.28 20.08 313.38 26.02 314.47 32.86 315.56 40.54 316.65 49.03 317.74 58.29 318.84 68.28 319.93 78.93 321.02 90.2 322.11 102.02 323.2 114.35 324.29 127.12 325.39 140.25 327.57 167.38 331.94 223.08 334.12 250.54 335.21 263.92 336.31 276.98 337.4 289.65 338.49 301.87 339.58 313.57 340.67 324.71 341.77 335.21 342.86 345.03 343.95 354.11 345.04 362.41 346.13 369.9 347.22 376.52 348.32 382.24 349.41 387.04 350.5 390.9 351.59 393.78 352.68 395.68 353.78 396.59 354.87 396.5 355.96 395.42 357.05 393.33 358.14 390.27 359.24 386.24 360.33 381.26 361.42 375.36 362.51 368.56 363.6 360.91 364.7 352.44 365.79 343.19 366.88 333.21 367.97 322.54 369.06 311.26 370.15 299.4 371.25 287.03 372.34 274.22 373.43 261.02 375.61 233.75 379.98 177.66 382.17 149.98 383.26 136.47 384.35 123.28 385.44 110.48 386.53 98.13 387.63 86.28 388.72 75.01 389.81 64.37 390.9 54.42 391.99 45.2 393.08 36.76 394.18 29.14 395.27 22.39 396.36 16.54 397.45 11.62 398.54 7.65 399.64 4.66 400.73 2.66 401.82 1.65 402.91 1.66 404 2.67 405.1 4.68 406.19 7.68 407.28 11.66 408.37 16.6 409.46 22.47 410.56 29.24 411.65 36.88 412.74 45.35 413.83 54.61 414.92 64.61 416.01 75.3 417.11 86.63 418.2 98.53 419.29 110.95 420.38 123.83 421.47 137.1 422.57 150.69 424.75 178.56 429.12 235.08 431.3 262.58 432.39 275.89 433.48 288.81 434.58 301.29 435.67 313.26 436.76 324.66 437.85 335.42 438.94 345.5 440.04 354.84 441.13 363.4 442.22 371.12 443.31 377.98 444.4 383.94 445.5 388.96 446.59 393.03 447.68 396.11 448.77 398.19 449.86 399.27 450.96 399.34 452.05 398.39 453.14 396.44 454.23 393.48 455.32 389.55 456.41 384.64 457.51 378.8 458.6 372.05 459.69 364.42 460.78 355.95 461.87 346.69 462.97 336.69 464.06 325.98 465.15 314.64 466.24 302.71 467.33 290.25 468.43 277.34 469.52 264.03 470.61 250.39 472.79 222.41 477.16 165.64 479.34 138.01 480.44 124.63 481.53 111.63 482.62 99.07 483.71 87.03 484.8 75.57 485.9 64.73 486.99 54.58 488.08 45.17 489.17 36.55 490.26 28.75 491.36 21.83 492.45 15.81 493.54 10.72 494.63 6.6 495.72 3.46 496.82 1.32 497.91 0.19 499 0.07 500.09 0.97 501.18 2.88 502.27 5.79 503.37 9.69 504.46 14.55 505.55 20.36 506.64 27.08 507.73 34.67 508.83 43.11 509.92 52.34 511.01 62.32 512.1 73 513.19 84.32 514.29 96.23 515.38 108.67 516.47 121.56 517.56 134.86 518.65 148.48 520.84 176.43 525.2 233.16 527.39 260.78 528.48 274.16 529.57 287.16 530.66 299.71 531.76 311.75 532.85 323.22 533.94 334.06 535.03 344.22 536.12 353.64 537.22 362.28 538.31 370.08 539.4 377.03 540.49 383.07 541.58 388.17 542.68 392.32 543.77 395.49 544.86 397.66 545.95 398.83 547.04 398.98 548.13 398.12 549.23 396.26 550.32 393.39 551.41 389.55 552.5 384.74 553.59 378.99 554.69 372.33 555.78 364.79 556.87 356.42 557.96 347.26 559.05 337.35 560.15 326.75 561.24 315.5 562.33 303.67 563.42 291.31 564.51 278.49 565.61 265.28 566.7 251.74 568.88 223.95 573.25 167.53 575.43 140.04 576.52 126.73 577.62 113.8 578.71 101.3 579.8 89.32 580.89 77.89 581.98 67.1 583.08 56.98 584.17 47.59 585.26 38.98 586.35 31.19 587.44 24.26 588.54 18.23 589.63 13.12 590.72 8.96 591.81 5.78 592.9 3.58 593.99 2.38 595.09 2.19 596.18 3 597.27 4.81 598.36 7.62 599.45 11.4 600.55 16.13 601.64 21.8 602.73 28.37 603.82 35.82 604.91 44.09 606.01 53.15 607.1 62.95 608.19 73.45 609.28 84.59 610.37 96.3 611.46 108.54 612.56 121.24 613.65 134.34 614.74 147.76 616.92 175.32 621.29 231.3 623.48 258.58 624.57 271.81 625.66 284.66 626.75 297.08 627.84 309 628.94 320.36 630.03 331.1 631.12 341.18 632.21 350.53 633.3 359.11 634.39 366.88 635.49 373.81 636.58 379.84 637.67 384.96 638.76 389.14 639.85 392.35 640.95 394.58 642.04 395.83 643.13 396.08 644.22 395.33 645.31 393.59 646.41 390.86 647.5 387.17 648.59 382.52 649.68 376.95 650.77 370.48 651.87 363.15 652.96 354.99 654.05 346.04 655.14 336.36 656.23 325.98 657.32 314.96 658.42 303.37 659.51 291.25 660.6 278.67 661.69 265.69 663.88 238.95 666.06 211.29 669.34 169.57 671.52 142.43 672.61 129.26 673.7 116.46 674.8 104.08 675.89 92.19 676.98 80.85 678.07 70.11 679.16 60.04 680.25 50.68 681.35 42.08 682.44 34.28 683.53 27.32 684.62 21.24 685.71 16.07 686.81 11.83 687.9 8.54 688.99 6.23 690.08 4.9 691.17 4.57 692.27 5.22 693.36 6.86 694.45 9.48 695.54 13.07 696.63 17.6 697.73 23.07 698.82 29.42 699.91 36.65 701 44.7 702.09 53.54 703.18 63.12 704.28 73.39 705.37 84.31 706.46 95.81 707.55 107.84 708.64 120.34 709.74 133.24 710.83 146.48 713.01 173.7 717.38 229.17 719.56 256.3 720.66 269.47 721.75 282.29 722.84 294.69 723.93 306.61 725.02 317.99 726.11 328.77 727.21 338.89 728.3 348.31 729.39 356.98 730.48 364.86 731.57 371.89 732.67 378.05 733.76 383.31 734.85 387.64 735.94 391.02 737.03 393.43 738.13 394.85 739.22 395.29 740.31 394.73 741.4 393.19 742.49 390.66 743.59 387.17 744.68 382.72 745.77 377.35 746.86 371.07 747.95 363.93 749.04 355.95 750.14 347.18 751.23 337.65 752.32 327.43 753.41 316.56 754.5 305.09 755.6 293.09 756.69 280.61 757.78 267.72 758.87 254.48 761.06 227.23 765.42 171.6 767.61 144.34 768.7 131.09 769.79 118.19 770.88 105.7 771.97 93.68 773.07 82.2 774.16 71.31 775.25 61.08 776.34 51.54 777.43 42.76 778.53 34.77 779.62 27.61 780.71 21.33 781.8 15.95 782.89 11.5 783.99 8.01 785.08 5.49 786.17 3.96 787.26 3.42 788.35 3.88 789.44 5.33 790.54 7.77 791.63 11.19 792.72 15.56 793.81 20.87 794.9 27.09 796 34.2 797.09 42.14 798.18 50.89 799.27 60.4 800.36 70.61 801.46 81.49 802.55 92.98 803.64 105.01 804.73 117.52 805.82 130.46 806.92 143.75 809.1 171.14 813.47 227.16 815.65 254.66 816.74 268.03 817.83 281.06 818.93 293.68 820.02 305.83 821.11 317.45 822.2 328.48 823.29 338.85 824.39 348.53 825.48 357.45 826.57 365.57 827.66 372.86 828.75 379.27 829.85 384.78 830.94 389.34 832.03 392.95 833.12 395.58 834.21 397.21 835.3 397.84 836.4 397.47 837.49 396.09 838.58 393.72 839.67 390.36 840.76 386.03 841.86 380.76 842.95 374.56 844.04 367.48 845.13 359.54 846.22 350.79 847.32 341.27 848.41 331.03 849.5 320.12 850.59 308.59 851.68 296.51 852.78 283.93 853.87 270.92 854.96 257.55 857.14 229.98 861.51 173.53 863.69 145.8 864.79 132.3 865.88 119.15 866.97 106.4 868.06 94.12 869.15 82.37 870.25 71.22 871.34 60.72 872.43 50.92 873.52 41.88 874.61 33.64 875.71 26.24 876.8 19.72 877.89 14.11 878.98 9.45 880.07 5.75 881.16 3.04 882.26 1.33 883.35 0.63 884.44 0.94 885.53 2.26 886.62 4.59 887.72 7.91 888.81 12.2 889.9 17.45 890.99 23.63 892.08 30.71 893.18 38.64 894.27 47.4 895.36 56.94 896.45 67.2 897.54 78.14 898.64 89.7 899.73 101.82 900.82 114.44 901.91 127.5 903 140.92 905.19 168.61 909.55 225.34 911.74 253.23 912.83 266.8 913.92 280.04 915.01 292.87 916.11 305.22 917.2 317.05 918.29 328.27 919.38 338.85 920.47 348.72 921.57 357.83 922.66 366.14 923.75 373.6 924.84 380.19 925.93 385.85 927.02 390.57 928.12 394.32 929.21 397.08 930.3 398.84 931.39 399.59 932.48 399.32 933.58 398.04 934.67 395.75 935.76 392.46 936.85 388.19 937.94 382.97 939.04 376.82 940.13 369.76 941.22 361.85 942.31 353.1 943.4 343.59 944.49 333.34 945.59 322.41 946.68 310.86 947.77 298.74 948.86 286.13 949.95 273.08 951.05 259.65 953.23 231.97 957.6 175.23 959.78 147.34 960.87 133.76 961.97 120.53 963.06 107.69 964.15 95.33 965.24 83.5 966.33 72.26 967.42 61.68 968.52 51.8 969.61 42.68 970.7 34.35 971.79 26.87 972.88 20.28 973.98 14.59 975.07 9.85 976.16 6.08 977.25 3.3 978.34 1.51 979.44 0.73 980.53 0.97 981.62 2.22 982.71 4.47 983.8 7.72 984.9 11.94 985.99 17.12 987.08 23.23 988.17 30.23 989.26 38.09 990.35 46.78 991.45 56.24 992.54 66.43 993.63 77.29 994.72 88.78 995.81 100.83 996.91 113.37 998 126.36 999.09 139.71 1001.27 167.26 1005.64 223.71 1007.83 251.47 1008.92 264.98 1010.01 278.16 1011.1 290.94 1012.19 303.25 1013.28 315.03 1014.38 326.22 1015.47 336.76 1016.56 346.61 1017.65 355.7 1018.74 364 1019.84 371.46 1020.93 378.05 1022.02 383.73 1023.11 388.47 1024.2 392.25 1025.3 395.05 1026.39 396.86 1027.48 397.67 1028.57 397.47 1029.66 396.26 1030.76 394.06 1031.85 390.87 1032.94 386.71 1034.03 381.6 1035.12 375.57 1036.21 368.65 1037.31 360.88 1038.4 352.29 1039.49 342.92 1040.58 332.84 1041.67 322.08 1042.77 310.7 1043.86 298.76 1044.95 286.33 1046.04 273.46 1047.13 260.22 1049.32 232.91 1053.69 176.9 1055.87 149.33 1056.96 135.91 1058.05 122.82 1059.14 110.12 1060.24 97.89 1061.33 86.17 1062.42 75.04 1063.51 64.55 1064.6 54.75 1065.7 45.69 1066.79 37.41 1067.88 29.97 1068.97 23.39 1070.06 17.71 1071.16 12.95 1072.25 9.15 1073.34 6.32 1074.43 4.47 1075.52 3.62 1076.62 3.76 1077.71 4.9 1078.8 7.04 1079.89 10.15 1080.98 14.22 1082.07 19.23 1083.17 25.16 1084.26 31.98 1085.35 39.65 1086.44 48.13 1087.53 57.38 1088.63 67.35 1089.72 77.98 1090.81 89.24 1091.9 101.06 1092.99 113.37 1094.09 126.12 1095.18 139.24 1097.36 166.33 1101.73 221.94 1103.91 249.34 1105 262.69 1106.1 275.72 1107.19 288.36 1108.28 300.55 1109.37 312.23 1110.46 323.33 1111.56 333.81 1112.65 343.6 1113.74 352.66 1114.83 360.94 1115.92 368.41 1117.02 375.01 1118.11 380.73 1119.2 385.53 1120.29 389.38 1121.38 392.27 1122.47 394.18 1123.57 395.11 1124.66 395.05 1125.75 393.99 1126.84 391.95 1127.93 388.93 1129.03 384.96 1130.12 380.05 1131.21 374.22 1132.3 367.5 1133.39 359.94 1134.49 351.57 1135.58 342.42 1136.67 332.55 1137.76 322.01 1138.85 310.85 1139.95 299.13 1141.04 286.91 1142.13 274.24 1143.22 261.2 1145.4 234.25 1149.77 178.82 1151.96 151.46 1153.05 138.12 1154.14 125.09 1155.23 112.43 1156.32 100.23 1157.42 88.52 1158.51 77.39 1159.6 66.87 1160.69 57.03 1161.78 47.91 1162.88 39.56 1163.97 32.03 1165.06 25.34 1166.15 19.55 1167.24 14.66 1168.33 10.72 1169.43 7.74 1170.52 5.73 1171.61 4.7 1172.7 4.67 1173.79 5.63 1174.89 7.57 1175.98 10.49 1177.07 14.37 1178.16 19.19 1179.25 24.93 1180.35 31.56 1181.44 39.04 1182.53 47.34 1183.62 56.42 1184.71 66.22 1185.81 76.71 1186.9 87.82 1187.99 99.5 1189.08 111.7 1190.17 124.34 1191.26 137.37 1192.36 150.72 1194.54 178.11 1198.91 233.68 1200 247.33"/></g><g><text class="svg-plot-label svg-plot-t" x="0" y="0" transform="rotate(-90) translate(-199.1 -20.87)">signal</text><text class="svg-plot-value" style="text-anchor:end" x="-5" y="114.54">1</text><text class="svg-plot-value" style="text-anchor:end" x="-5" y="283.414">-1</text><text class="svg-plot-value" style="text-anchor:end" x="-5" y="198.977">0</text><text class="svg-plot-label svg-plot-t" x="600" y="424.1">time</text><text class="svg-plot-value" x="1187.99" y="408.6">1088</text><text class="svg-plot-value" x="0" y="408.6">0</text><text class="svg-plot-value" x="1153.05" y="408.6">1056</text><text class="svg-plot-value" x="0" y="408.6">0</text><text class="svg-plot-value" x="1118.11" y="408.6">1024</text><text class="svg-plot-value" x="0" y="408.6">0</text><text class="svg-plot-value" x="1083.17" y="408.6">992</text><text class="svg-plot-value" x="0" y="408.6">0</text><text class="svg-plot-value" x="1048.23" y="408.6">960</text><text class="svg-plot-value" x="0" y="408.6">0</text><text class="svg-plot-value" x="1013.28" y="408.6">928</text><text class="svg-plot-value" x="0" y="408.6">0</text><text class="svg-plot-value" x="978.344" y="408.6">896</text><text class="svg-plot-value" x="0" y="408.6">0</text><text class="svg-plot-value" x="943.403" y="408.6">864</text><text class="svg-plot-value" x="0" y="408.6">0</text><text class="svg-plot-value" x="908.462" y="408.6">832</text><text class="svg-plot-value" x="0" y="408.6">0</text><text class="svg-plot-value" x="873.521" y="408.6">800</text><text class="svg-plot-value" x="0" y="408.6">0</text><text class="svg-plot-value" x="838.581" y="408.6">768</text><text class="svg-plot-value" x="0" y="408.6">0</text><text class="svg-plot-value" x="803.64" y="408.6">736</text><text class="svg-plot-value" x="0" y="408.6">0</text><text class="svg-plot-value" x="768.699" y="408.6">704</text><text class="svg-plot-value" x="0" y="408.6">0</text><text class="svg-plot-value" x="733.758" y="408.6">672</text><text class="svg-plot-value" x="0" y="408.6">0</text><text class="svg-plot-value" x="698.817" y="408.6">640</text><text class="svg-plot-value" x="0" y="408.6">0</text><text class="svg-plot-value" x="663.876" y="408.6">608</text><text class="svg-plot-value" x="0" y="408.6">0</text><text class="svg-plot-value" x="628.935" y="408.6">576</text><text class="svg-plot-value" x="0" y="408.6">0</text><text class="svg-plot-value" x="593.995" y="408.6">544</text><text class="svg-plot-value" x="0" y="408.6">0</text><text class="svg-plot-value" x="559.054" y="408.6">512</text><text class="svg-plot-value" x="0" y="408.6">0</text><text class="svg-plot-value" x="524.113" y="408.6">480</text><text class="svg-plot-value" x="0" y="408.6">0</text><text class="svg-plot-value" x="489.172" y="408.6">448</text><text class="svg-plot-value" x="0" y="408.6">0</text><text class="svg-plot-value" x="454.231" y="408.6">416</text><text class="svg-plot-value" x="0" y="408.6">0</text><text class="svg-plot-value" x="419.29" y="408.6">384</text><text class="svg-plot-value" x="0" y="408.6">0</text><text class="svg-plot-value" x="384.349" y="408.6">352</text><text class="svg-plot-value" x="0" y="408.6">0</text><text class="svg-plot-value" x="349.409" y="408.6">320</text><text class="svg-plot-value" x="0" y="408.6">0</text><text class="svg-plot-value" x="314.468" y="408.6">288</text><text class="svg-plot-value" x="0" y="408.6">0</text><text class="svg-plot-value" x="279.527" y="408.6">256</text><text class="svg-plot-value" x="0" y="408.6">0</text><text class="svg-plot-value" x="244.586" y="408.6">224</text><text class="svg-plot-value" x="0" y="408.6">0</text><text class="svg-plot-value" x="209.645" y="408.6">192</text><text class="svg-plot-value" x="0" y="408.6">0</text><text class="svg-plot-value" x="174.704" y="408.6">160</text><text class="svg-plot-value" x="0" y="408.6">0</text><text class="svg-plot-value" x="139.763" y="408.6">128</text><text class="svg-plot-value" x="0" y="408.6">0</text><text class="svg-plot-value" x="104.823" y="408.6">96</text><text class="svg-plot-value" x="0" y="408.6">0</text><text class="svg-plot-value" x="69.8817" y="408.6">64</text><text class="svg-plot-value" x="0" y="408.6">0</text><text class="svg-plot-value" x="34.9409" y="408.6">32</text><text class="svg-plot-value" x="0" y="408.6">0</text><text class="svg-plot-value" x="0" y="408.6">0</text><text class="svg-plot-value" x="0" y="408.6">0</text><text class="svg-plot-label svg-plot-t0" style="text-anchor:start" x="1203" y="246.133">stuff2</text></g><defs><g id="svg-plot-marker0" class="svg-plot-marker"><circle cx="0" cy="0" r="1" stroke="none"/></g><g id="svg-plot-marker1" class="svg-plot-marker"><path d="M0 0.9 -0.9 0 0 -0.9 0.9 0Z" fill="#FFFA" stroke-linejoin="miter" stroke-width="0.6"/></g><g id="svg-plot-marker2" class="svg-plot-marker"><path fill="none" d="M0 -1.2 0 1.2 M -1.2 0 1.2 0" stroke-width="0.7"/></g><g id="svg-plot-marker3" class="svg-plot-marker"><circle cx="0" cy="0" fill="#FFFA" r="0.8" stroke-width="0.65"/></g><g id="svg-plot-marker4" class="svg-plot-marker"><path stroke="none" d="M0 -1.25 1.25 0.9 -1.25 0.9Z"/></g><mask id="svg-plot-hatch0"><rect x="-1754" y="-1754" width="3508" height="3508" fill="url(#svg-plot-hatch0-pattern)" style="transform:rotate(30deg)"/></mask><pattern patternUnits="userSpaceOnUse" id="svg-plot-hatch0-pattern" class="svg-plot-hatch" x="0" y="0" width="10" height="2.4" stroke="#FFF" fill="none"><line x1="-1" x2="11" y1="1.2" y2="1.2"/></pattern><mask id="svg-plot-hatch1"><rect x="-1754" y="-1754" width="3508" height="3508" fill="url(#svg-plot-hatch1-pattern)" style="transform:rotate(-50deg)"/></mask><pattern patternUnits="userSpaceOnUse" id="svg-plot-hatch1-pattern" class="svg-plot-hatch" x="0" y="0" width="10" height="3" stroke="#FFF" fill="none"><line x1="-1" x2="11" y1="1.5" y2="1.5"/></pattern><mask id="svg-plot-hatch3"><rect x="-1754" y="-1754" width="3508" height="3508" fill="url(#svg-plot-hatch3-pattern)" style="transform:rotate(8deg)"/><rect x="-1754" y="-1754" width="3508" height="3508" fill="url(#svg-plot-hatch3-pattern)" style="transform:rotate(93deg)"/></mask><pattern patternUnits="userSpaceOnUse" id="svg-plot-hatch3-pattern" class="svg-plot-hatch" x="0" y="0" width="10" height="3" stroke="#FFF" fill="none"><line x1="-1" x2="11" y1="1.5" y2="1.5"/></pattern></defs><style>.svg-plot{stroke-linecap:butt;stroke-linejoin:round;}.svg-plot-bg{fill:none;stroke:none;}.svg-plot-axis{stroke:none;fill:#FFFFFFD9;}.svg-plot-legend{stroke:none;fill:#FFFFFFE4;}.svg-plot-line{stroke:blue;fill:none;stroke-width:1px;stroke-linejoin:round;}.svg-plot-fill{stroke:none;opacity:0.6;}.svg-plot-major{stroke:#000;stroke-width:1px;stroke-linecap:square;fill:none;}.svg-plot-minor{stroke:#0000004D;stroke-width:0.5px;stroke-dasharray:0.5 1.5;stroke-linecap:round;fill:none;}.svg-plot-tick{stroke:#000;fill:none;stroke-width:1px;stroke-linecap:butt;}.svg-plot-value,.svg-plot-label{font-family:Arial,sans-serif;fill:#000;stroke:#FFFFFF48;stroke-width:2.5px;paint-order:stroke fill;text-anchor:middle;dominant-baseline:central;alignment-baseline:baseline;}.svg-plot-label{font-size:12px;}.svg-plot-value{font-size:9px;}.svg-plot-hatch{stroke:#FFF;stroke-width:1px;}.svg-plot-marker{transform:scale(3.25);}.svg-plot-s{stroke:#000;}.svg-plot-f,.svg-plot-t{fill:#000;}.svg-plot-s0{stroke:#CC0000}.svg-plot-f0,.svg-plot-t0{fill:#CC0000}.svg-plot-s1{stroke:#0073E6}.svg-plot-f1,.svg-plot-t1{fill:#0073E6}.svg-plot-s2{stroke:#00B300}.svg-plot-f2,.svg-plot-t2{fill:#00B300}.svg-plot-s3{stroke:#806600}.svg-plot-f3,.svg-plot-t3{fill:#806600}.svg-plot-s4{stroke:#E69900}.svg-plot-f4,.svg-plot-t4{fill:#E69900}.svg-plot-s5{stroke:#CC00CC}.svg-plot-f5,.svg-plot-t5{fill:#CC00CC}.svg-plot-d0{stroke-width:0.9px}.svg-plot-d1{stroke-dasharray:2.8 1.6}.svg-plot-d2{stroke-dasharray:1.2 1.2}.svg-plot-d3{stroke-dasharray:5 4}.svg-plot-d4{stroke-dasharray:4 1 1 1 1 1}.svg-plot-d5{stroke-dasharray:10 3}.svg-plot-d6{stroke-dasharray:4 2 1 2}.svg-plot-h0{mask:url(#svg-plot-hatch0)}.svg-plot-h1{mask:url(#svg-plot-hatch1)}.svg-plot-h2{opacity:0.2}.svg-plot-h3{mask:url(#svg-plot-hatch3)}#svg-plot-hatch0-pattern{stroke-width:0.9px}#svg-plot-hatch3-pattern{stroke-width:0.7px}.svg-plot-value,.svg-plot-label{font-family:Verdana,sans-serif;}.svg-plot-axis{fill:#EEE;}.svg-plot-tick{stroke:#666;stroke-width:0.75px;}.svg-plot-value{fill:#666;opacity:0.8;font-weight:bold;}.svg-plot-major{stroke:#FFF;stroke-width:1.5px;}.svg-plot-minor{stroke:#FFF;stroke-width:0.75px;stroke-dasharray:none;}</style><script>var q=document,x=setTimeout,a=Math.random,r=q.querySelector(&quot;style&quot;);r.textContent='@import &quot;/style/article/dist.css&quot;;'+r.textContent+'.svg-plot-value,.svg-plot-label{font-family:&quot;Geraint Dense&quot;,Arial,sans-serif}';var t=[];q.querySelectorAll(&quot;path&quot;).forEach(function(e){var y=e.getAttribute(&quot;d&quot;);t.push(function(){var f=40*a(),u=!0,g=2*(a()-.5),h=2*(a()-.5),k=2*(a()-.5),l=2*(a()-.5),m,n,B=y.replace(/([0-9\.]+) ([0-9\.]+)/g,function(C,z,A){function p(b,c){b=parseFloat(b);c=parseFloat(c);if(!u){var d=b-m,v=c-n;d=Math.sqrt(d*
		d+v*v);if(20&lt;d)return p(.5*(m+b),.5*(n+c)),p(b,c);f+=d;40&lt;f&amp;&amp;(f=0,g=h,k=l,h=2*(a()-.5),l=2*(a()-.5))}u=!1;m=b;n=c;d=f/40;b+=g+(h-g)*d;c+=k+(l-k)*d;result+=&quot; &quot;+b+&quot; &quot;+c}result=&quot;&quot;;p(z,A);return result});e.setAttribute(&quot;d&quot;,B)})});var w=function(){t.forEach(function(e){e()});x(w,240*(.9+.2*a()))};w()
		</script></svg>