<?xml version="1.0" encoding="utf-8" standalone="no"?>
<!DOCTYPE svg PUBLIC "-//W3C//DTD SVG 1.1//EN" "http://www.w3.org/Graphics/SVG/1.1/DTD/svg11.dtd">
<svg version="1.1" class="svg-plot" xmlns="http://www.w3.org/2000/svg" width="1285.33pt" height="454pt" viewBox="-35.37 -14.5 1285.33 454" preserveAspectRatio="xMidYMid"><rect x="-25.37" y="-4.5" width="1265.33" height="434" class="svg-plot-bg"/><rect x="0" y="0" width="1200" height="400" class="svg-plot-axis"/><line x1="0" x2="0" y1="0" y2="400" class="svg-plot-major"/><line x1="0" x2="0" y1="0" y2="400" class="svg-plot-major"/><line x1="0" x2="0" y1="0" y2="400" class="svg-plot-major"/><line x1="0" x2="0" y1="0" y2="400" class="svg-plot-major"/><line x1="0" x2="0" y1="0" y2="400" class="svg-plot-major"/><line x1="0" x2="0" y1="0" y2="400" class="svg-plot-major"/><line x1="0" x2="0" y1="0" y2="400" class="svg-plot-major"/><line x1="0" x2="0" y1="0" y2="400" class="svg-plot-major"/><line x1="0" x2="0" y1="0" y2="400" class="svg-plot-major"/><line x1="0" x2="0" y1="0" y2="400" class="svg-plot-major"/><line x1="0" x2="0" y1="0" y2="400" class="svg-plot-major"/><line x1="0" x2="0" y1="0" y2="400" class="svg-plot-major"/><line x1="0" x2="0" y1="0" y2="400" class="svg-plot-major"/><line x1="0" x2="0" y1="0" y2="400" class="svg-plot-major"/><line x1="0" x2="0" y1="0" y2="400" class="svg-plot-major"/><line x1="0" x2="0" y1="0" y2="400" class="svg-plot-major"/><line x1="0" x2="0" y1="0" y2="400" class="svg-plot-major"/><line x1="0" x2="0" y1="0" y2="400" class="svg-plot-major"/><line x1="0" x2="0" y1="0" y2="400" class="svg-plot-major"/><line x1="0" x2="0" y1="0" y2="400" class="svg-plot-major"/><line x1="0" x2="0" y1="0" y2="400" class="svg-plot-major"/><line x1="0" x2="0" y1="0" y2="400" class="svg-plot-major"/><line x1="0" x2="0" y1="0" y2="400" class="svg-plot-major"/><line x1="0" x2="0" y1="0" y2="400" class="svg-plot-major"/><line x1="0" x2="0" y1="0" y2="400" class="svg-plot-major"/><line x1="0" x2="0" y1="0" y2="400" class="svg-plot-major"/><line x1="0" x2="0" y1="0" y2="400" class="svg-plot-major"/><line x1="0" x2="0" y1="0" y2="400" class="svg-plot-major"/><line x1="0" x2="0" y1="0" y2="400" class="svg-plot-major"/><line x1="0" x2="0" y1="0" y2="400" class="svg-plot-major"/><line x1="0" x2="0" y1="0" y2="400" class="svg-plot-major"/><line x1="0" x2="0" y1="0" y2="400" class="svg-plot-major"/><line x1="0" x2="0" y1="0" y2="400" class="svg-plot-major"/><line x1="0" x2="0" y1="0" y2="400" class="svg-plot-major"/><line x1="0" x2="0" y1="0" y2="400" class="svg-plot-major"/><line x1="0" x2="1200" y1="199.998" y2="199.998" class="svg-plot-major"/><line x1="0" x2="1200" y1="399.997" y2="399.997" class="svg-plot-minor"/><line x1="0" x2="1200" y1="0" y2="0" class="svg-plot-minor"/><clipPath id="clip0"><rect x="-0.5" y="-0.5" width="1201" height="401"/></clipPath><g clip-path="url(#clip0)"><path class="svg-plot-line svg-plot-s0 svg-plot-d0" d="M 0 400 2.18 399.95 4.37 399.86 6.55 399.73 8.74 399.56 10.92 399.35 13.1 399.1 15.29 398.8 17.47 398.47 19.65 398.09 21.84 397.68 24.02 397.22 26.21 396.73 28.39 396.19 30.57 395.61 32.76 395 34.94 394.34 37.12 393.64 39.31 392.91 41.49 392.13 43.68 391.32 45.86 390.46 48.04 389.57 50.23 388.64 52.41 387.67 54.6 386.66 56.78 385.61 58.96 384.53 61.15 383.41 63.33 382.24 65.51 381.05 67.7 379.81 69.88 378.54 72.07 377.23 74.25 375.89 76.43 374.51 78.62 373.09 80.8 371.64 82.98 370.15 85.17 368.63 87.35 367.07 89.54 365.48 91.72 363.86 95 361.36 98.27 358.78 101.55 356.14 104.82 353.42 108.1 350.63 111.37 347.77 114.65 344.84 117.93 341.85 121.2 338.79 124.48 335.66 127.75 332.48 131.03 329.23 134.3 325.92 137.58 322.56 140.86 319.14 144.13 315.66 147.41 312.13 150.68 308.55 153.96 304.92 157.23 301.24 161.6 296.26 165.97 291.21 170.34 286.08 174.7 280.87 179.07 275.61 183.44 270.28 187.81 264.89 188.9 263.54 189.99 262.31 195.45 255.48 200.91 248.57 206.37 241.6 212.92 233.17 220.56 223.25 230.39 210.42 250.05 184.68 258.78 173.29 265.33 164.81 271.88 156.39 277.34 149.44 282.8 142.55 288.26 135.73 292.63 130.33 297 125 301.36 119.72 305.73 114.51 310.1 109.37 314.47 104.31 318.84 99.32 322.11 95.63 325.39 91.99 328.66 88.41 331.94 84.87 335.21 81.39 338.49 77.96 341.77 74.58 345.04 71.27 348.32 68.01 351.59 64.82 354.87 61.68 358.14 58.62 361.42 55.61 364.7 52.67 367.97 49.81 371.25 47.01 374.52 44.28 377.8 41.62 381.07 39.03 384.35 36.52 386.53 34.89 388.72 33.29 390.9 31.73 393.08 30.2 395.27 28.7 397.45 27.25 399.64 25.82 401.82 24.43 404 23.08 406.19 21.76 408.37 20.48 410.56 19.24 412.74 18.03 414.92 16.87 417.11 15.73 419.29 14.64 421.47 13.58 423.66 12.57 425.84 11.59 428.03 10.65 430.21 9.75 432.39 8.88 434.58 8.06 436.76 7.28 438.94 6.53 441.13 5.83 443.31 5.16 445.5 4.54 447.68 3.95 449.86 3.4 452.05 2.9 454.23 2.43 456.41 2.01 458.6 1.63 460.78 1.28 462.97 0.98 465.15 0.72 467.33 0.5 469.52 0.32 471.7 0.18 473.89 0.08 476.07 0.02 478.25 0.01 480.44 0.03 482.62 0.1 484.8 0.21 486.99 0.35 489.17 0.54 491.36 0.77 493.54 1.04 495.72 1.35 497.91 1.7 500.09 2.1 502.27 2.53 504.46 3 506.64 3.51 508.83 4.07 511.01 4.66 513.19 5.3 515.38 5.97 517.56 6.68 519.75 7.44 521.93 8.23 524.11 9.06 526.3 9.93 528.48 10.84 530.66 11.79 532.85 12.78 535.03 13.8 537.22 14.86 539.4 15.97 541.58 17.1 543.77 18.28 545.95 19.5 548.13 20.75 550.32 22.03 552.5 23.36 554.69 24.72 556.87 26.11 559.05 27.55 561.24 29.01 563.42 30.51 565.61 32.05 567.79 33.62 569.97 35.23 572.16 36.87 575.43 39.39 578.71 41.98 581.98 44.65 585.26 47.39 588.54 50.2 591.81 53.08 595.09 56.02 598.36 59.04 601.64 62.11 604.91 65.26 608.19 68.46 611.46 71.72 614.74 75.05 618.02 78.43 621.29 81.87 624.57 85.36 627.84 88.9 631.12 92.5 634.39 96.14 637.67 99.83 642.04 104.83 646.41 109.9 650.77 115.05 655.14 120.27 659.51 125.55 663.88 130.89 668.24 136.29 673.7 143.12 679.16 150.01 684.62 156.97 691.17 165.4 698.82 175.3 707.55 186.7 728.3 213.87 737.03 225.26 744.68 235.16 747.95 239.37 749.04 240.64 754.5 247.61 759.96 254.53 765.42 261.38 769.79 266.8 774.16 272.16 778.53 277.47 782.89 282.72 787.26 287.89 791.63 293 796 298.03 799.27 301.75 802.55 305.42 805.82 309.05 809.1 312.62 812.37 316.14 815.65 319.61 818.93 323.02 822.2 326.38 825.48 329.68 828.75 332.92 832.03 336.1 835.3 339.21 838.58 342.26 841.86 345.25 845.13 348.16 848.41 351.01 851.68 353.79 854.96 356.5 858.23 359.14 861.51 361.7 864.79 364.19 866.97 365.81 869.15 367.39 871.34 368.94 873.52 370.46 875.71 371.94 877.89 373.38 880.07 374.79 882.26 376.16 884.44 377.5 886.62 378.8 888.81 380.07 890.99 381.29 893.18 382.48 895.36 383.64 897.54 384.75 899.73 385.83 901.91 386.87 904.09 387.87 906.28 388.83 908.46 389.76 910.65 390.64 912.83 391.49 915.01 392.29 917.2 393.06 919.38 393.79 921.57 394.48 923.75 395.12 925.93 395.73 928.12 396.3 930.3 396.83 932.48 397.32 934.67 397.76 936.85 398.17 939.04 398.54 941.22 398.86 943.4 399.15 945.59 399.39 947.77 399.59 949.95 399.75 952.14 399.88 954.32 399.96 956.51 400 958.69 399.99 960.87 399.95 963.06 399.87 965.24 399.74 967.42 399.58 969.61 399.37 971.79 399.13 973.98 398.84 976.16 398.51 978.34 398.14 980.53 397.73 982.71 397.28 984.9 396.79 987.08 396.26 989.26 395.69 991.45 395.08 993.63 394.43 995.81 393.73 998 393 1000.18 392.23 1002.37 391.42 1004.55 390.58 1006.73 389.69 1008.92 388.76 1011.1 387.8 1013.28 386.79 1015.47 385.75 1017.65 384.67 1019.84 383.55 1022.02 382.4 1024.2 381.2 1026.39 379.97 1028.57 378.71 1030.76 377.4 1032.94 376.06 1035.12 374.69 1037.31 373.28 1039.49 371.83 1041.67 370.35 1043.86 368.83 1046.04 367.28 1048.23 365.69 1050.41 364.07 1053.69 361.58 1056.96 359.01 1060.24 356.37 1063.51 353.66 1066.79 350.88 1070.06 348.03 1073.34 345.11 1076.62 342.12 1079.89 339.06 1083.17 335.95 1086.44 332.77 1089.72 329.53 1092.99 326.22 1096.27 322.87 1099.55 319.45 1102.82 315.98 1106.1 312.45 1109.37 308.88 1112.65 305.25 1115.92 301.58 1119.2 297.86 1123.57 292.82 1127.93 287.71 1132.3 282.53 1136.67 277.29 1141.04 271.98 1145.4 266.61 1149.77 261.18 1155.23 254.33 1160.69 247.41 1166.15 240.43 1172.7 231.98 1180.35 222.06 1190.17 209.22 1200 196.34"/></g><g><text class="svg-plot-label svg-plot-t" x="0" y="0" transform="rotate(-90) translate(-199.1 -20.87)">signal</text><text class="svg-plot-value" style="text-anchor:end" x="-5" y="-0.9">1</text><text class="svg-plot-value" style="text-anchor:end" x="-5" y="399.097">-1</text><text class="svg-plot-value" style="text-anchor:end" x="-5" y="199.098">0</text><text class="svg-plot-label svg-plot-t" x="600" y="424.1">time</text><text class="svg-plot-value" x="1187.99" y="408.6">1088</text><text class="svg-plot-value" x="0" y="408.6">0</text><text class="svg-plot-value" x="1153.05" y="408.6">1056</text><text class="svg-plot-value" x="0" y="408.6">0</text><text class="svg-plot-value" x="1118.11" y="408.6">1024</text><text class="svg-plot-value" x="0" y="408.6">0</text><text class="svg-plot-value" x="1083.17" y="408.6">992</text><text class="svg-plot-value" x="0" y="408.6">0</text><text class="svg-plot-value" x="1048.23" y="408.6">960</text><text class="svg-plot-value" x="0" y="408.6">0</text><text class="svg-plot-value" x="1013.28" y="408.6">928</text><text class="svg-plot-value" x="0" y="408.6">0</text><text class="svg-plot-value" x="978.344" y="408.6">896</text><text class="svg-plot-value" x="0" y="408.6">0</text><text class="svg-plot-value" x="943.403" y="408.6">864</text><text class="svg-plot-value" x="0" y="408.6">0</text><text class="svg-plot-value" x="908.462" y="408.6">832</text><text class="svg-plot-value" x="0" y="408.6">0</text><text class="svg-plot-value" x="873.521" y="408.6">800</text><text class="svg-plot-value" x="0" y="408.6">0</text><text class="svg-plot-value" x="838.581" y="408.6">768</text><text class="svg-plot-value" x="0" y="408.6">0</text><text class="svg-plot-value" x="803.64" y="408.6">736</text><text class="svg-plot-value" x="0" y="408.6">0</text><text class="svg-plot-value" x="768.699" y="408.6">704</text><text class="svg-plot-value" x="0" y="408.6">0</text><text class="svg-plot-value" x="733.758" y="408.6">672</text><text class="svg-plot-value" x="0" y="408.6">0</text><text class="svg-plot-value" x="698.817" y="408.6">640</text><text class="svg-plot-value" x="0" y="408.6">0</text><text class="svg-plot-value" x="663.876" y="408.6">608</text><text class="svg-plot-value" x="0" y="408.6">0</text><text class="svg-plot-value" x="628.935" y="408.6">576</text><text class="svg-plot-value" x="0" y="408.6">0</text><text class="svg-plot-value" x="593.995" y="408.6">544</text><text class="svg-plot-value" x="0" y="408.6">0</text><text class="svg-plot-value" x="559.054" y="408.6">512</text><text class="svg-plot-value" x="0" y="408.6">0</text><text class="svg-plot-value" x="524.113" y="408.6">480</text><text class="svg-plot-value" x="0" y="408.6">0</text><text class="svg-plot-value" x="489.172" y="408.6">448</text><text class="svg-plot-value" x="0" y="408.6">0</text><text class="svg-plot-value" x="454.231" y="408.6">416</text><text class="svg-plot-value" x="0" y="408.6">0</text><text class="svg-plot-value" x="419.29" y="408.6">384</text><text class="svg-plot-value" x="0" y="408.6">0</text><text class="svg-plot-value" x="384.349" y="408.6">352</text><text class="svg-plot-value" x="0" y="408.6">0</text><text class="svg-plot-value" x="349.409" y="408.6">320</text><text class="svg-plot-value" x="0" y="408.6">0</text><text class="svg-plot-value" x="314.468" y="408.6">288</text><text class="svg-plot-value" x="0" y="408.6">0</text><text class="svg-plot-value" x="279.527" y="408.6">256</text><text class="svg-plot-value" x="0" y="408.6">0</text><text class="svg-plot-value" x="244.586" y="408.6">224</text><text class="svg-plot-value" x="0" y="408.6">0</text><text class="svg-plot-value" x="209.645" y="408.6">192</text><text class="svg-plot-value" x="0" y="408.6">0</text><text class="svg-plot-value" x="174.704" y="408.6">160</text><text class="svg-plot-value" x="0" y="408.6">0</text><text class="svg-plot-value" x="139.763" y="408.6">128</text><text class="svg-plot-value" x="0" y="408.6">0</text><text class="svg-plot-value" x="104.823" y="408.6">96</text><text class="svg-plot-value" x="0" y="408.6">0</text><text class="svg-plot-value" x="69.8817" y="408.6">64</text><text class="svg-plot-value" x="0" y="408.6">0</text><text class="svg-plot-value" x="34.9409" y="408.6">32</text><text class="svg-plot-value" x="0" y="408.6">0</text><text class="svg-plot-value" x="0" y="408.6">0</text><text class="svg-plot-value" x="0" y="408.6">0</text><text class="svg-plot-label svg-plot-t0" style="text-anchor:start" x="1203" y="195.136">stuff8</text></g><defs><g id="svg-plot-marker0" class="svg-plot-marker"><circle cx="0" cy="0" r="1" stroke="none"/></g><g id="svg-plot-marker1" class="svg-plot-marker"><path d="M0 0.9 -0.9 0 0 -0.9 0.9 0Z" fill="#FFFA" stroke-linejoin="miter" stroke-width="0.6"/></g><g id="svg-plot-marker2" class="svg-plot-marker"><path fill="none" d="M0 -1.2 0 1.2 M -1.2 0 1.2 0" stroke-width="0.7"/></g><g id="svg-plot-marker3" class="svg-plot-marker"><circle cx="0" cy="0" fill="#FFFA" r="0.8" stroke-width="0.65"/></g><g id="svg-plot-marker4" class="svg-plot-marker"><path stroke="none" d="M0 -1.25 1.25 0.9 -1.25 0.9Z"/></g><mask id="svg-plot-hatch0"><rect x="-1754" y="-1754" width="3508" height="3508" fill="url(#svg-plot-hatch0-pattern)" style="transform:rotate(30deg)"/></mask><pattern patternUnits="userSpaceOnUse" id="svg-plot-hatch0-pattern" class="svg-plot-hatch" x="0" y="0" width="10" height="2.4" stroke="#FFF" fill="none"><line x1="-1" x2="11" y1="1.2" y2="1.2"/></pattern><mask id="svg-plot-hatch1"><rect x="-1754" y="-1754" width="3508" height="3508" fill="url(#svg-plot-hatch1-pattern)" style="transform:rotate(-50deg)"/></mask><pattern patternUnits="userSpaceOnUse" id="svg-plot-hatch1-pattern" class="svg-plot-hatch" x="0" y="0" width="10" height="3" stroke="#FFF" fill="none"><line x1="-1" x2="11" y1="1.5" y2="1.5"/></pattern><mask id="svg-plot-hatch3"><rect x="-1754" y="-1754" width="3508" height="3508" fill="url(#svg-plot-hatch3-pattern)" style="transform:rotate(8deg)"/><rect x="-1754" y="-1754" width="3508" height="3508" fill="url(#svg-plot-hatch3-pattern)" style="transform:rotate(93deg)"/></mask><pattern patternUnits="userSpaceOnUse" id="svg-plot-hatch3-pattern" class="svg-plot-hatch" x="0" y="0" width="10" height="3" stroke="#FFF" fill="none"><line x1="-1" x2="11" y1="1.5" y2="1.5"/></pattern></defs><style>.svg-plot{stroke-linecap:butt;stroke-linejoin:round;}.svg-plot-bg{fill:none;stroke:none;}.svg-plot-axis{stroke:none;fill:#FFFFFFD9;}.svg-plot-legend{stroke:none;fill:#FFFFFFE4;}.svg-plot-line{stroke:blue;fill:none;stroke-width:1px;stroke-linejoin:round;}.svg-plot-fill{stroke:none;opacity:0.6;}.svg-plot-major{stroke:#000;stroke-width:1px;stroke-linecap:square;fill:none;}.svg-plot-minor{stroke:#0000004D;stroke-width:0.5px;stroke-dasharray:0.5 1.5;stroke-linecap:round;fill:none;}.svg-plot-tick{stroke:#000;fill:none;stroke-width:1px;stroke-linecap:butt;}.svg-plot-value,.svg-plot-label{font-family:Arial,sans-serif;fill:#000;stroke:#FFFFFF48;stroke-width:2.5px;paint-order:stroke fill;text-anchor:middle;dominant-baseline:central;alignment-baseline:baseline;}.svg-plot-label{font-size:12px;}.svg-plot-value{font-size:9px;}.svg-plot-hatch{stroke:#FFF;stroke-width:1px;}.svg-plot-marker{transform:scale(3.25);}.svg-plot-s{stroke:#000;}.svg-plot-f,.svg-plot-t{fill:#000;}.svg-plot-s0{stroke:#CC0000}.svg-plot-f0,.svg-plot-t0{fill:#CC0000}.svg-plot-s1{stroke:#0073E6}.svg-plot-f1,.svg-plot-t1{fill:#0073E6}.svg-plot-s2{stroke:#00B300}.svg-plot-f2,.svg-plot-t2{fill:#00B300}.svg-plot-s3{stroke:#806600}.svg-plot-f3,.svg-plot-t3{fill:#806600}.svg-plot-s4{stroke:#E69900}.svg-plot-f4,.svg-plot-t4{fill:#E69900}.svg-plot-s5{stroke:#CC00CC}.svg-plot-f5,.svg-plot-t5{fill:#CC00CC}.svg-plot-d0{stroke-width:0.9px}.svg-plot-d1{stroke-dasharray:2.8 1.6}.svg-plot-d2{stroke-dasharray:1.2 1.2}.svg-plot-d3{stroke-dasharray:5 4}.svg-plot-d4{stroke-dasharray:4 1 1 1 1 1}.svg-plot-d5{stroke-dasharray:10 3}.svg-plot-d6{stroke-dasharray:4 2 1 2}.svg-plot-h0{mask:url(#svg-plot-hatch0)}.svg-plot-h1{mask:url(#svg-plot-hatch1)}.svg-plot-h2{opacity:0.2}.svg-plot-h3{mask:url(#svg-plot-hatch3)}#svg-plot-hatch0-pattern{stroke-width:0.9px}#svg-plot-hatch3-pattern{stroke-width:0.7px}.svg-plot-value,.svg-plot-label{font-family:Verdana,sans-serif;}.svg-plot-axis{fill:#EEE;}.svg-plot-tick{stroke:#666;stroke-width:0.75px;}.svg-plot-value{fill:#666;opacity:0.8;font-weight:bold;}.svg-plot-major{stroke:#FFF;stroke-width:1.5px;}.svg-plot-minor{stroke:#FFF;stroke-width:0.75px;stroke-dasharray:none;}</style><script>var q=document,x=setTimeout,a=Math.random,r=q.querySelector(&quot;style&quot;);r.textContent='@import &quot;/style/article/dist.css&quot;;'+r.textContent+'.svg-plot-value,.svg-plot-label{font-family:&quot;Geraint Dense&quot;,Arial,sans-serif}';var t=[];q.querySelectorAll(&quot;path&quot;).forEach(function(e){var y=e.getAttribute(&quot;d&quot;);t.push(function(){var f=40*a(),u=!0,g=2*(a()-.5),h=2*(a()-.5),k=2*(a()-.5),l=2*(a()-.5),m,n,B=y.replace(/([0-9\.]+) ([0-9\.]+)/g,function(C,z,A){function p(b,c){b=parseFloat(b);c=parseFloat(c);if(!u){var d=b-m,v=c-n;d=Math.sqrt(d*
		d+v*v);if(20&lt;d)return p(.5*(m+b),.5*(n+c)),p(b,c);f+=d;40&lt;f&amp;&amp;(f=0,g=h,k=l,h=2*(a()-.5),l=2*(a()-.5))}u=!1;m=b;n=c;d=f/40;b+=g+(h-g)*d;c+=k+(l-k)*d;result+=&quot; &quot;+b+&quot; &quot;+c}result=&quot;&quot;;p(z,A);return result});e.setAttribute(&quot;d&quot;,B)})});var w=function(){t.forEach(function(e){e()});x(w,240*(.9+.2*a()))};w()
		</script></svg>