<?xml version="1.0" encoding="utf-8" standalone="no"?>
<!DOCTYPE svg PUBLIC "-//W3C//DTD SVG 1.1//EN" "http://www.w3.org/Graphics/SVG/1.1/DTD/svg11.dtd">
<svg version="1.1" class="svg-plot" xmlns="http://www.w3.org/2000/svg" width="1285.59pt" height="449.5pt" viewBox="-35.37 -10 1285.59 449.5" preserveAspectRatio="xMidYMid"><rect x="-25.37" y="0" width="1265.59" height="429.5" class="svg-plot-bg"/><rect x="0" y="0" width="1200" height="400" class="svg-plot-axis"/><line x1="0" x2="0" y1="0" y2="400" class="svg-plot-major"/><line x1="0" x2="0" y1="0" y2="400" class="svg-plot-major"/><line x1="0" x2="0" y1="0" y2="400" class="svg-plot-major"/><line x1="0" x2="0" y1="0" y2="400" class="svg-plot-major"/><line x1="0" x2="0" y1="0" y2="400" class="svg-plot-major"/><line x1="0" x2="0" y1="0" y2="400" class="svg-plot-major"/><line x1="0" x2="0" y1="0" y2="400" class="svg-plot-major"/><line x1="0" x2="0" y1="0" y2="400" class="svg-plot-major"/><line x1="0" x2="0" y1="0" y2="400" class="svg-plot-major"/><line x1="0" x2="0" y1="0" y2="400" class="svg-plot-major"/><line x1="0" x2="0" y1="0" y2="400" class="svg-plot-major"/><line x1="0" x2="0" y1="0" y2="400" class="svg-plot-major"/><line x1="0" x2="0" y1="0" y2="400" class="svg-plot-major"/><line x1="0" x2="0" y1="0" y2="400" class="svg-plot-major"/><line x1="0" x2="0" y1="0" y2="400" class="svg-plot-major"/><line x1="0" x2="0" y1="0" y2="400" class="svg-plot-major"/><line x1="0" x2="0" y1="0" y2="400" class="svg-plot-major"/><line x1="0" x2="0" y1="0" y2="400" class="svg-plot-major"/><line x1="0" x2="0" y1="0" y2="400" class="svg-plot-major"/><line x1="0" x2="0" y1="0" y2="400" class="svg-plot-major"/><line x1="0" x2="0" y1="0" y2="400" class="svg-plot-major"/><line x1="0" x2="0" y1="0" y2="400" class="svg-plot-major"/><line x1="0" x2="0" y1="0" y2="400" class="svg-plot-major"/><line x1="0" x2="0" y1="0" y2="400" class="svg-plot-major"/><line x1="0" x2="0" y1="0" y2="400" class="svg-plot-major"/><line x1="0" x2="0" y1="0" y2="400" class="svg-plot-major"/><line x1="0" x2="0" y1="0" y2="400" class="svg-plot-major"/><line x1="0" x2="0" y1="0" y2="400" class="svg-plot-major"/><line x1="0" x2="0" y1="0" y2="400" class="svg-plot-major"/><line x1="0" x2="0" y1="0" y2="400" class="svg-plot-major"/><line x1="0" x2="0" y1="0" y2="400" class="svg-plot-major"/><line x1="0" x2="0" y1="0" y2="400" class="svg-plot-major"/><line x1="0" x2="0" y1="0" y2="400" class="svg-plot-major"/><line x1="0" x2="0" y1="0" y2="400" class="svg-plot-major"/><line x1="0" x2="0" y1="0" y2="400" class="svg-plot-major"/><line x1="0" x2="1200" y1="191.363" y2="191.363" class="svg-plot-major"/><line x1="0" x2="1200" y1="197.192" y2="197.192" class="svg-plot-minor"/><line x1="0" x2="1200" y1="185.534" y2="185.534" class="svg-plot-minor"/><clipPath id="clip0"><rect x="-0.5" y="-0.5" width="1201" height="401"/></clipPath><g clip-path="url(#clip0)"><path class="svg-plot-line svg-plot-s0 svg-plot-d0" d="M 0 185.53 1.09 182.26 2.18 179.38 3.28 177.13 4.37 175.91 5.46 176.19 6.55 178.33 7.64 182.33 8.74 187.71 9.83 193.54 10.92 198.66 12.01 202.01 13.1 203.05 14.19 201.89 15.29 199.27 16.38 196.26 17.47 193.84 18.56 192.5 19.65 192.12 20.75 192.07 21.84 191.59 22.93 190.23 25.11 186 26.21 184.9 27.3 185.61 28.39 188.22 29.48 191.89 30.57 195.05 31.67 195.87 32.76 193.03 33.85 186.2 34.94 176.32 36.03 165.29 37.12 155.32 38.22 148.14 39.31 144.41 40.4 143.56 41.49 144.06 42.58 144.13 43.68 142.5 44.77 138.83 46.95 128.88 48.04 125.29 49.14 123.8 50.23 124.25 51.32 125.74 52.41 127.12 53.5 127.65 54.6 127.41 55.69 127.28 56.78 128.58 57.87 132.35 58.96 138.72 60.05 146.64 61.15 154.09 62.24 158.8 63.33 159.05 64.42 154.43 65.51 146.05 66.61 136.2 67.7 127.57 68.79 122.32 69.88 121.39 70.97 124.26 72.07 129.28 73.16 134.4 74.25 137.92 75.34 139.01 76.43 137.81 77.53 135.06 78.62 131.53 79.71 127.56 80.8 122.81 81.89 116.52 82.98 107.98 84.08 97.12 85.17 84.83 86.26 72.81 87.35 63.17 88.44 57.61 89.54 56.85 90.63 60.26 92.81 71.94 93.9 75.68 95 76.02 96.09 72.85 97.18 67.19 98.27 60.69 99.36 54.98 100.45 51.19 101.55 49.66 102.64 49.99 103.73 51.43 105.91 55.01 107.01 56.9 108.1 59.4 109.19 63.16 110.28 68.69 111.37 76.15 112.47 85.26 114.65 105.39 115.74 114.37 116.83 121.24 117.93 125.16 119.02 125.67 120.11 122.8 121.2 117.1 122.29 109.65 123.38 101.86 124.48 95.14 125.57 90.53 126.66 88.43 127.75 88.44 128.84 89.53 129.94 90.36 131.03 89.75 132.12 87.09 133.21 82.51 134.3 76.77 135.4 70.9 136.49 65.78 137.58 61.73 139.76 55.15 140.86 50.99 141.95 45.49 143.04 38.83 144.13 31.88 145.22 25.84 146.31 21.88 147.41 20.62 148.5 21.92 149.59 24.91 150.68 28.31 151.77 30.89 152.87 31.8 153.96 30.85 155.05 28.4 157.23 22.08 158.33 19.65 159.42 18.35 160.51 18.37 161.6 19.77 162.69 22.53 163.79 26.48 165.97 36.01 167.06 39.93 168.15 42 169.24 41.58 170.34 38.7 171.43 34.21 172.52 29.58 173.61 26.51 174.7 26.23 175.8 29.09 176.89 34.24 177.98 39.95 179.07 44.19 180.16 45.42 181.26 43.21 182.35 38.47 183.44 33.15 184.53 29.52 185.62 29.31 186.72 33.08 187.81 40 188.9 48.24 189.99 55.69 191.08 60.77 192.17 62.94 193.27 62.81 194.36 61.7 195.45 60.94 196.54 61.23 197.63 62.34 198.73 63.25 199.82 62.69 200.91 59.85 202 54.82 203.09 48.67 204.19 43.02 205.28 39.38 206.37 38.48 207.46 39.93 208.55 42.39 209.65 44.16 210.74 43.91 211.83 41.28 212.92 36.99 214.01 32.5 215.1 29.29 216.2 28.11 217.29 28.59 218.38 29.33 219.47 28.55 220.56 24.92 221.66 18.38 222.75 10.33 223.84 3.33 224.93 0.2 226.02 2.92 227.12 11.82 228.21 25.24 229.3 40.03 230.39 52.49 231.48 59.58 232.58 59.88 233.67 54 234.76 44.3 235.85 34.03 236.94 26.23 238.03 22.82 239.13 24.12 240.22 28.87 241.31 34.85 242.4 39.65 243.49 41.41 244.59 39.39 245.68 34 247.86 19.19 248.95 13.6 250.05 11.36 251.14 13.25 252.23 19.21 253.32 28.43 255.51 50.69 256.6 60.42 257.69 67.49 258.78 71.44 259.87 72.61 260.96 72.01 262.06 71.01 263.15 70.81 264.24 72.1 265.33 74.71 266.42 77.74 267.52 79.87 268.61 79.87 269.7 77.12 270.79 71.89 271.88 65.3 272.98 58.99 274.07 54.58 275.16 53.11 276.25 54.81 277.34 59.04 278.43 64.66 279.53 70.4 280.62 75.35 281.71 79.13 282.8 81.87 283.89 83.95 284.99 85.73 286.08 87.35 287.17 88.63 288.26 89.29 289.35 89.07 290.45 87.95 291.54 86.1 292.63 83.79 293.72 81.2 294.81 78.25 295.91 74.69 297 70.27 298.09 65.08 299.18 59.68 300.27 55.18 301.36 52.85 302.46 53.72 303.55 57.99 304.64 64.83 305.73 72.52 306.82 78.99 307.92 82.6 309.01 82.86 310.1 80.78 311.19 78.57 312.28 78.92 313.38 83.89 314.47 94.09 315.56 108.15 316.65 123.1 317.74 135.24 318.84 141.42 319.93 140.09 321.02 131.87 322.11 119.36 323.2 106.2 324.29 95.86 325.39 90.53 326.48 90.5 327.57 94.36 328.66 99.65 329.75 103.99 330.85 105.93 331.94 105.38 333.03 103.42 334.12 101.64 335.21 101.29 336.31 102.68 337.4 105.04 338.49 106.94 339.58 107.02 340.67 104.76 341.77 100.82 342.86 97 343.95 95.59 345.04 98.49 346.13 106.5 347.22 118.93 349.41 148.39 350.5 160.36 351.59 168.24 352.68 171.89 353.78 172.37 354.87 171.33 355.96 170.41 357.05 170.58 358.14 172 359.24 174.12 360.33 176.16 361.42 177.53 362.51 178.16 363.6 178.47 364.7 179.09 365.79 180.47 366.88 182.56 367.97 184.72 369.06 185.98 370.15 185.43 371.25 182.69 372.34 178.17 373.43 172.98 374.52 168.58 375.61 166.2 376.71 166.39 377.8 168.76 378.89 172.07 379.98 174.71 381.07 175.26 382.17 173.08 383.26 168.49 384.35 162.78 385.44 157.67 386.53 154.81 387.63 155.23 388.72 159.01 389.81 165.33 390.9 172.74 391.99 179.65 393.08 184.77 394.18 187.4 395.27 187.52 396.36 185.62 397.45 182.48 398.54 178.94 399.64 175.68 400.73 173.17 401.82 171.71 402.91 171.45 404 172.44 405.1 174.6 406.19 177.69 408.37 185 409.46 188.23 410.56 190.7 411.65 192.4 412.74 193.7 413.83 195.29 414.92 197.98 416.01 202.55 417.11 209.46 418.2 218.8 419.29 230.23 420.38 243.06 421.47 256.41 422.57 269.3 423.66 280.82 424.75 290.13 425.84 296.55 426.93 299.69 428.03 299.5 429.12 296.39 430.21 143.6 431.3 143 432.39 141.64 433.48 140.77 434.58 141.37 435.67 143.85 436.76 148.07 437.85 153.46 438.94 159.29 440.04 164.88 441.13 169.74 442.22 173.54 443.31 176.02 444.4 177.04 445.5 176.56 446.59 174.84 447.68 172.48 448.77 170.46 449.86 169.89 450.96 171.69 452.05 176.15 453.14 182.74 454.23 190.12 455.32 196.56 456.41 200.54 457.51 201.34 458.6 199.41 459.69 196.26 460.78 193.94 461.87 194.27 462.97 198.08 464.06 204.89 465.15 212.99 466.24 220.07 467.33 224.1 468.43 224.03 469.52 220.17 470.61 214 471.7 207.55 472.79 202.55 473.89 199.84 474.98 199.12 476.07 199.3 477.16 199.08 478.25 197.63 479.34 195.07 480.44 192.35 481.53 190.83 482.62 191.57 483.71 194.81 484.8 199.73 485.9 204.81 486.99 208.39 488.08 209.48 489.17 208.11 490.26 205.38 491.36 202.95 492.45 202.33 493.54 204.16 494.63 208.03 495.72 212.62 496.82 216.43 497.91 218.51 499 219 500.09 219.15 501.18 220.84 502.27 225.68 503.37 234.16 505.55 256.49 506.64 264.82 507.73 267.64 508.83 263.85 509.92 254.3 511.01 241.67 512.1 229.6 513.19 221.54 514.29 219.64 515.38 224.15 516.47 233.41 517.56 244.57 518.65 254.51 519.75 260.95 520.84 263.01 521.93 261.39 523.02 258 524.11 255.18 525.2 255.05 526.3 258.79 527.39 266.5 528.48 277.18 529.57 289.13 530.66 300.4 531.76 309.2 532.85 314.3 533.94 315.21 535.03 312.25 536.12 306.43 537.22 299.23 538.31 292.28 539.4 286.95 540.49 284.04 541.58 283.56 542.68 284.78 543.77 286.5 544.86 287.48 545.95 286.92 547.04 284.77 548.13 281.79 549.23 279.33 550.32 278.77 551.41 281.07 552.5 286.31 553.59 293.68 554.69 301.66 555.78 308.58 556.87 313.1 557.96 314.65 559.05 313.45 560.15 310.39 561.24 306.57 562.33 302.9 563.42 299.85 564.51 297.42 566.7 293.24 567.79 291.09 568.88 289.04 569.97 287.43 571.06 286.62 572.16 286.73 573.25 287.69 574.34 289.34 575.43 291.58 576.52 294.55 577.62 298.62 578.71 304.18 579.8 311.32 581.98 327.88 583.08 334.76 584.17 338.89 585.26 339.62 586.35 337.36 587.44 333.59 588.54 330.36 589.63 329.55 590.72 332.03 591.81 337.22 592.9 343.07 593.99 346.78 595.09 345.79 596.18 338.85 597.27 326.63 598.36 311.68 599.45 297.7 600.55 288.33 601.64 285.95 602.73 290.88 603.82 301.33 604.91 314.1 606.01 325.69 607.1 333.5 608.19 336.61 609.28 335.87 610.37 333.36 611.46 331.4 612.56 331.65 613.65 334.5 614.74 339.14 615.83 344.11 616.92 348.07 618.02 350.53 619.11 352.08 620.2 354.1 621.29 358.13 622.38 364.97 623.48 374.27 624.57 384.41 625.66 392.99 626.75 397.7 627.84 397.12 628.94 391.27 630.03 381.62 631.12 370.53 632.21 360.48 633.3 353.27 634.39 349.51 635.49 348.64 636.58 349.28 637.67 349.96 638.76 349.61 639.85 347.95 640.95 345.37 642.04 342.61 643.13 340.27 644.22 338.51 645.31 336.97 646.41 335.03 647.5 332.15 648.59 328.29 649.68 324.01 650.77 320.31 651.87 318.26 652.96 318.51 654.05 320.94 655.14 324.66 656.23 328.29 657.32 330.44 658.42 330.29 659.51 327.95 660.6 324.38 661.69 321.17 662.78 319.85 663.88 321.4 664.97 325.86 666.06 332.27 667.15 339.01 668.24 344.32 669.34 346.88 670.43 346.17 671.52 342.61 672.61 337.35 673.7 331.88 674.8 327.59 675.89 325.46 676.98 325.84 678.07 328.56 679.16 333.07 680.25 338.7 682.44 350.84 683.53 356.44 684.62 361.35 685.71 365.39 686.81 368.53 687.9 370.89 690.08 374.69 691.17 377.08 692.27 380.31 693.36 384.48 695.54 394.08 696.63 397.96 697.73 400 698.82 399.45 699.91 395.9 701 389.34 702.09 380.1 703.18 368.84 704.28 356.34 705.37 343.55 706.46 331.4 707.55 320.81 708.64 312.53 709.74 307.03 710.83 304.32 711.92 303.85 713.01 304.55 714.1 305.04 715.2 303.98 716.29 300.52 717.38 294.59 719.56 279.53 720.66 273.8 721.75 271.38 722.84 272.88 723.93 277.83 725.02 284.8 726.11 291.92 727.21 297.52 728.3 300.78 729.39 302.04 730.48 302.61 731.57 304.28 732.67 308.53 733.76 315.91 734.85 325.66 735.94 335.93 737.03 344.32 738.13 348.72 739.22 348.02 740.31 342.54 741.4 333.85 742.49 324.25 743.59 315.98 744.68 310.53 745.77 308.2 746.86 308.21 747.95 309.18 749.04 309.75 750.14 309.17 751.23 307.54 752.32 305.69 753.41 304.72 754.5 305.41 755.6 307.86 756.69 311.26 757.78 314.24 758.87 315.33 759.96 313.48 761.06 308.53 762.15 301.2 763.24 292.92 764.33 285.28 765.42 279.59 766.52 276.5 767.61 275.91 768.7 277.15 769.79 279.33 770.88 281.66 771.97 283.69 773.07 285.33 775.25 288.2 776.34 289.75 777.43 291.34 778.53 292.73 779.62 293.68 780.71 293.97 781.8 293.47 782.89 292.1 783.99 289.72 785.08 286.12 786.17 281 787.26 274.17 788.35 265.7 790.54 246.35 791.63 237.74 792.72 231.52 793.81 228.57 794.9 229.02 796 232.14 797.09 236.47 798.18 240.23 799.27 241.79 800.36 240.17 801.46 235.36 802.55 228.3 803.64 220.64 804.73 214.19 805.82 210.49 806.92 210.28 808.01 213.41 809.1 218.86 810.19 225.15 811.28 230.73 812.37 234.46 813.47 235.92 814.56 235.47 815.65 234.1 816.74 233.11 817.83 233.68 818.93 236.54 820.02 241.71 821.11 248.54 822.2 255.83 823.29 262.19 824.39 266.35 825.48 267.46 826.57 265.24 827.66 259.93 828.75 252.11 829.85 242.46 830.94 231.52 832.03 219.68 833.12 207.11 835.3 180.98 836.4 168.67 837.49 158.3 838.58 151.17 839.67 148.36 840.76 150.37 841.86 156.86 842.95 166.65 844.04 177.9 845.13 188.63 846.22 197.23 847.32 202.88 848.41 205.77 849.5 206.9 850.59 207.74 851.68 209.52 852.78 212.81 853.87 217.12 854.96 221.02 856.05 222.49 857.14 219.6 858.23 211.18 859.33 197.28 860.42 179.4 861.51 160.13 862.6 142.59 863.69 129.67 864.79 123.24 865.88 123.77 866.97 130.21 868.06 140.42 869.15 151.76 870.25 161.82 871.34 169.02 872.43 172.85 873.52 173.76 874.61 172.74 875.71 170.79 876.8 168.38 877.89 165.35 878.98 160.98 880.07 154.46 881.16 145.42 882.26 134.35 883.35 122.72 884.44 112.63 885.53 106.22 886.62 104.9 887.72 108.78 888.81 116.52 889.9 125.65 890.99 133.3 892.08 137.19 893.18 136.31 894.27 131.31 895.36 124.19 896.45 117.62 897.54 113.96 898.64 114.47 899.73 118.93 900.82 125.79 901.91 132.82 903 138.01 904.09 140.25 905.19 139.68 906.28 137.51 907.37 135.39 908.46 134.69 909.55 135.92 910.65 138.55 911.74 141.25 912.83 142.49 913.92 141.12 915.01 136.84 916.11 130.18 917.2 122.21 918.29 114.05 919.38 106.44 920.47 99.56 921.57 93.2 922.66 87.11 923.75 81.38 924.84 76.62 925.93 73.76 927.02 73.63 928.12 76.44 929.21 81.46 930.3 87.02 931.39 91.03 932.48 91.67 933.58 88.03 934.67 80.56 936.85 61.05 937.94 53.17 939.04 48.26 940.13 46.25 941.22 46.09 942.31 46.46 943.4 46.49 944.49 46.24 945.59 46.73 946.68 49.43 947.77 55.54 948.86 65.18 951.05 89.26 952.14 98.85 953.23 103.99 954.32 104.1 955.41 100.19 956.51 94.42 957.6 89.26 958.69 86.53 959.78 86.75 960.87 89.08 961.97 91.85 963.06 93.41 964.15 92.93 965.24 90.76 966.33 88.14 967.42 86.51 968.52 86.62 969.61 87.94 970.7 88.63 971.79 86.29 972.88 78.96 973.98 66.18 975.07 49.53 976.16 32.32 977.25 18.59 978.34 11.76 979.44 13.31 980.53 22.17 981.62 35.02 982.71 47.37 983.8 55.04 984.9 55.52 985.99 48.75 987.08 36.95 988.17 23.74 989.26 12.82 990.35 6.92 991.45 6.86 992.54 11.75 993.63 19.54 994.72 27.92 995.81 35.12 996.91 40.31 998 43.57 999.09 45.47 1000.18 46.56 1001.27 47.01 1002.37 46.59 1003.46 44.86 1004.55 41.62 1005.64 37.1 1006.73 32.08 1007.83 27.61 1008.92 24.64 1010.01 23.66 1011.1 24.48 1012.19 26.39 1013.28 28.47 1014.38 30.01 1015.47 30.84 1016.56 31.41 1017.65 32.53 1018.74 35.06 1019.84 39.47 1020.93 45.61 1022.02 52.7 1023.11 59.55 1024.2 64.94 1025.3 68 1026.39 68.43 1027.48 66.56 1028.57 63.23 1029.66 59.53 1030.76 56.58 1031.85 55.28 1032.94 56.13 1034.03 59.15 1035.12 63.8 1036.21 69.06 1037.31 73.49 1038.4 75.58 1039.49 74.01 1040.58 68.09 1041.67 58.03 1042.77 45.05 1043.86 31.17 1044.95 18.73 1046.04 9.77 1047.13 5.42 1048.23 5.61 1049.32 9.03 1050.41 13.63 1051.5 17.24 1052.59 18.27 1053.69 16.2 1054.78 11.7 1055.87 6.29 1056.96 1.87 1058.05 0 1059.14 1.5 1060.24 6.23 1061.33 13.26 1062.42 21.21 1063.51 28.65 1064.6 34.48 1065.7 38.05 1066.79 39.19 1067.88 38.08 1068.97 35.15 1070.06 30.99 1071.16 26.39 1072.25 22.22 1073.34 19.46 1074.43 18.92 1075.52 21.11 1076.62 25.98 1077.71 32.89 1078.8 40.74 1079.89 48.22 1080.98 54.26 1082.07 58.31 1083.17 60.5 1084.26 61.54 1085.35 62.4 1086.44 63.94 1087.53 66.59 1088.63 70.26 1089.72 74.42 1090.81 78.39 1091.9 81.65 1092.99 83.98 1094.09 85.52 1095.18 86.59 1096.27 87.4 1097.36 87.97 1098.45 88 1099.55 87.08 1100.64 84.9 1101.73 81.47 1102.82 77.22 1103.91 72.8 1105 68.89 1106.1 65.85 1107.19 63.57 1108.28 61.52 1109.37 59.02 1110.46 55.59 1111.56 51.28 1112.65 46.74 1113.74 43.03 1114.83 41.2 1115.92 41.88 1117.02 44.95 1118.11 49.56 1119.2 54.46 1120.29 58.44 1121.38 60.88 1122.47 61.96 1123.57 62.54 1124.66 63.82 1125.75 66.7 1126.84 71.39 1127.93 77.18 1129.03 82.71 1130.12 86.47 1131.21 87.38 1132.3 85.25 1133.39 80.9 1134.49 75.83 1135.58 71.67 1136.67 69.61 1137.76 69.95 1138.85 72.1 1139.95 74.89 1141.04 77.13 1142.13 78.15 1143.22 78.04 1144.31 77.66 1145.4 78.16 1146.5 80.54 1147.59 85.11 1148.68 91.34 1149.77 98.05 1150.86 103.81 1151.96 107.5 1153.05 108.77 1154.14 108.08 1155.23 106.58 1156.32 105.61 1157.42 106.24 1158.51 108.84 1159.6 113.01 1160.69 117.76 1161.78 121.91 1162.88 124.54 1163.97 125.29 1165.06 124.47 1166.15 122.9 1167.24 121.58 1168.33 121.39 1169.43 122.76 1170.52 125.66 1171.61 129.64 1172.7 134.06 1173.79 138.33 1174.89 142.07 1175.98 145.17 1177.07 147.75 1178.16 149.99 1179.25 152.02 1180.35 153.82 1181.44 155.23 1182.53 155.98 1183.62 155.85 1184.71 154.72 1185.81 152.71 1186.9 150.14 1187.99 147.47 1189.08 145.21 1190.17 143.77 1191.26 143.34 1192.36 143.83 1193.45 144.94 1194.54 146.18 1195.63 147.06 1196.72 147.23 1197.82 146.62 1200 144.37"/></g><g><text class="svg-plot-label svg-plot-t" x="0" y="0" transform="rotate(-90) translate(-199.1 -20.87)">signal</text><text class="svg-plot-value" style="text-anchor:end" x="-5" y="184.634">1</text><text class="svg-plot-value" style="text-anchor:end" x="-5" y="196.292">-1</text><text class="svg-plot-value" style="text-anchor:end" x="-5" y="190.463">0</text><text class="svg-plot-label svg-plot-t" x="600" y="424.1">time</text><text class="svg-plot-value" x="1187.99" y="408.6">1088</text><text class="svg-plot-value" x="0" y="408.6">0</text><text class="svg-plot-value" x="1153.05" y="408.6">1056</text><text class="svg-plot-value" x="0" y="408.6">0</text><text class="svg-plot-value" x="1118.11" y="408.6">1024</text><text class="svg-plot-value" x="0" y="408.6">0</text><text class="svg-plot-value" x="1083.17" y="408.6">992</text><text class="svg-plot-value" x="0" y="408.6">0</text><text class="svg-plot-value" x="1048.23" y="408.6">960</text><text class="svg-plot-value" x="0" y="408.6">0</text><text class="svg-plot-value" x="1013.28" y="408.6">928</text><text class="svg-plot-value" x="0" y="408.6">0</text><text class="svg-plot-value" x="978.344" y="408.6">896</text><text class="svg-plot-value" x="0" y="408.6">0</text><text class="svg-plot-value" x="943.403" y="408.6">864</text><text class="svg-plot-value" x="0" y="408.6">0</text><text class="svg-plot-value" x="908.462" y="408.6">832</text><text class="svg-plot-value" x="0" y="408.6">0</text><text class="svg-plot-value" x="873.521" y="408.6">800</text><text class="svg-plot-value" x="0" y="408.6">0</text><text class="svg-plot-value" x="838.581" y="408.6">768</text><text class="svg-plot-value" x="0" y="408.6">0</text><text class="svg-plot-value" x="803.64" y="408.6">736</text><text class="svg-plot-value" x="0" y="408.6">0</text><text class="svg-plot-value" x="768.699" y="408.6">704</text><text class="svg-plot-value" x="0" y="408.6">0</text><text class="svg-plot-value" x="733.758" y="408.6">672</text><text class="svg-plot-value" x="0" y="408.6">0</text><text class="svg-plot-value" x="698.817" y="408.6">640</text><text class="svg-plot-value" x="0" y="408.6">0</text><text class="svg-plot-value" x="663.876" y="408.6">608</text><text class="svg-plot-value" x="0" y="408.6">0</text><text class="svg-plot-value" x="628.935" y="408.6">576</text><text class="svg-plot-value" x="0" y="408.6">0</text><text class="svg-plot-value" x="593.995" y="408.6">544</text><text class="svg-plot-value" x="0" y="408.6">0</text><text class="svg-plot-value" x="559.054" y="408.6">512</text><text class="svg-plot-value" x="0" y="408.6">0</text><text class="svg-plot-value" x="524.113" y="408.6">480</text><text class="svg-plot-value" x="0" y="408.6">0</text><text class="svg-plot-value" x="489.172" y="408.6">448</text><text class="svg-plot-value" x="0" y="408.6">0</text><text class="svg-plot-value" x="454.231" y="408.6">416</text><text class="svg-plot-value" x="0" y="408.6">0</text><text class="svg-plot-value" x="419.29" y="408.6">384</text><text class="svg-plot-value" x="0" y="408.6">0</text><text class="svg-plot-value" x="384.349" y="408.6">352</text><text class="svg-plot-value" x="0" y="408.6">0</text><text class="svg-plot-value" x="349.409" y="408.6">320</text><text class="svg-plot-value" x="0" y="408.6">0</text><text class="svg-plot-value" x="314.468" y="408.6">288</text><text class="svg-plot-value" x="0" y="408.6">0</text><text class="svg-plot-value" x="279.527" y="408.6">256</text><text class="svg-plot-value" x="0" y="408.6">0</text><text class="svg-plot-value" x="244.586" y="408.6">224</text><text class="svg-plot-value" x="0" y="408.6">0</text><text class="svg-plot-value" x="209.645" y="408.6">192</text><text class="svg-plot-value" x="0" y="408.6">0</text><text class="svg-plot-value" x="174.704" y="408.6">160</text><text class="svg-plot-value" x="0" y="408.6">0</text><text class="svg-plot-value" x="139.763" y="408.6">128</text><text class="svg-plot-value" x="0" y="408.6">0</text><text class="svg-plot-value" x="104.823" y="408.6">96</text><text class="svg-plot-value" x="0" y="408.6">0</text><text class="svg-plot-value" x="69.8817" y="408.6">64</text><text class="svg-plot-value" x="0" y="408.6">0</text><text class="svg-plot-value" x="34.9409" y="408.6">32</text><text class="svg-plot-value" x="0" y="408.6">0</text><text class="svg-plot-value" x="0" y="408.6">0</text><text class="svg-plot-value" x="0" y="408.6">0</text><text class="svg-plot-label svg-plot-t0" style="text-anchor:start" x="1203" y="143.166">stuff0</text></g><defs><g id="svg-plot-marker0" class="svg-plot-marker"><circle cx="0" cy="0" r="1" stroke="none"/></g><g id="svg-plot-marker1" class="svg-plot-marker"><path d="M0 0.9 -0.9 0 0 -0.9 0.9 0Z" fill="#FFFA" stroke-linejoin="miter" stroke-width="0.6"/></g><g id="svg-plot-marker2" class="svg-plot-marker"><path fill="none" d="M0 -1.2 0 1.2 M -1.2 0 1.2 0" stroke-width="0.7"/></g><g id="svg-plot-marker3" class="svg-plot-marker"><circle cx="0" cy="0" fill="#FFFA" r="0.8" stroke-width="0.65"/></g><g id="svg-plot-marker4" class="svg-plot-marker"><path stroke="none" d="M0 -1.25 1.25 0.9 -1.25 0.9Z"/></g><mask id="svg-plot-hatch0"><rect x="-1754" y="-1754" width="3508" height="3508" fill="url(#svg-plot-hatch0-pattern)" style="transform:rotate(30deg)"/></mask><pattern patternUnits="userSpaceOnUse" id="svg-plot-hatch0-pattern" class="svg-plot-hatch" x="0" y="0" width="10" height="2.4" stroke="#FFF" fill="none"><line x1="-1" x2="11" y1="1.2" y2="1.2"/></pattern><mask id="svg-plot-hatch1"><rect x="-1754" y="-1754" width="3508" height="3508" fill="url(#svg-plot-hatch1-pattern)" style="transform:rotate(-50deg)"/></mask><pattern patternUnits="userSpaceOnUse" id="svg-plot-hatch1-pattern" class="svg-plot-hatch" x="0" y="0" width="10" height="3" stroke="#FFF" fill="none"><line x1="-1" x2="11" y1="1.5" y2="1.5"/></pattern><mask id="svg-plot-hatch3"><rect x="-1754" y="-1754" width="3508" height="3508" fill="url(#svg-plot-hatch3-pattern)" style="transform:rotate(8deg)"/><rect x="-1754" y="-1754" width="3508" height="3508" fill="url(#svg-plot-hatch3-pattern)" style="transform:rotate(93deg)"/></mask><pattern patternUnits="userSpaceOnUse" id="svg-plot-hatch3-pattern" class="svg-plot-hatch" x="0" y="0" width="10" height="3" stroke="#FFF" fill="none"><line x1="-1" x2="11" y1="1.5" y2="1.5"/></pattern></defs><style>.svg-plot{stroke-linecap:butt;stroke-linejoin:round;}.svg-plot-bg{fill:none;stroke:none;}.svg-plot-axis{stroke:none;fill:#FFFFFFD9;}.svg-plot-legend{stroke:none;fill:#FFFFFFE4;}.svg-plot-line{stroke:blue;fill:none;stroke-width:1px;stroke-linejoin:round;}.svg-plot-fill{stroke:none;opacity:0.6;}.svg-plot-major{stroke:#000;stroke-width:1px;stroke-linecap:square;fill:none;}.svg-plot-minor{stroke:#0000004D;stroke-width:0.5px;stroke-dasharray:0.5 1.5;stroke-linecap:round;fill:none;}.svg-plot-tick{stroke:#000;fill:none;stroke-width:1px;stroke-linecap:butt;}.svg-plot-value,.svg-plot-label{font-family:Arial,sans-serif;fill:#000;stroke:#FFFFFF48;stroke-width:2.5px;paint-order:stroke fill;text-anchor:middle;dominant-baseline:central;alignment-baseline:baseline;}.svg-plot-label{font-size:12px;}.svg-plot-value{font-size:9px;}.svg-plot-hatch{stroke:#FFF;stroke-width:1px;}.svg-plot-marker{transform:scale(3.25);}.svg-plot-s{stroke:#000;}.svg-plot-f,.svg-plot-t{fill:#000;}.svg-plot-s0{stroke:#CC0000}.svg-plot-f0,.svg-plot-t0{fill:#CC0000}.svg-plot-s1{stroke:#0073E6}.svg-plot-f1,.svg-plot-t1{fill:#0073E6}.svg-plot-s2{stroke:#00B300}.svg-plot-f2,.svg-plot-t2{fill:#00B300}.svg-plot-s3{stroke:#806600}.svg-plot-f3,.svg-plot-t3{fill:#806600}.svg-plot-s4{stroke:#E69900}.svg-plot-f4,.svg-plot-t4{fill:#E69900}.svg-plot-s5{stroke:#CC00CC}.svg-plot-f5,.svg-plot-t5{fill:#CC00CC}.svg-plot-d0{stroke-width:0.9px}.svg-plot-d1{stroke-dasharray:2.8 1.6}.svg-plot-d2{stroke-dasharray:1.2 1.2}.svg-plot-d3{stroke-dasharray:5 4}.svg-plot-d4{stroke-dasharray:4 1 1 1 1 1}.svg-plot-d5{stroke-dasharray:10 3}.svg-plot-d6{stroke-dasharray:4 2 1 2}.svg-plot-h0{mask:url(#svg-plot-hatch0)}.svg-plot-h1{mask:url(#svg-plot-hatch1)}.svg-plot-h2{opacity:0.2}.svg-plot-h3{mask:url(#svg-plot-hatch3)}#svg-plot-hatch0-pattern{stroke-width:0.9px}#svg-plot-hatch3-pattern{stroke-width:0.7px}.svg-plot-value,.svg-plot-label{font-family:Verdana,sans-serif;}.svg-plot-axis{fill:#EEE;}.svg-plot-tick{stroke:#666;stroke-width:0.75px;}.svg-plot-value{fill:#666;opacity:0.8;font-weight:bold;}.svg-plot-major{stroke:#FFF;stroke-width:1.5px;}.svg-plot-minor{stroke:#FFF;stroke-width:0.75px;stroke-dasharray:none;}</style><script>var q=document,x=setTimeout,a=Math.random,r=q.querySelector(&quot;style&quot;);r.textContent='@import &quot;/style/article/dist.css&quot;;'+r.textContent+'.svg-plot-value,.svg-plot-label{font-family:&quot;Geraint Dense&quot;,Arial,sans-serif}';var t=[];q.querySelectorAll(&quot;path&quot;).forEach(function(e){var y=e.getAttribute(&quot;d&quot;);t.push(function(){var f=40*a(),u=!0,g=2*(a()-.5),h=2*(a()-.5),k=2*(a()-.5),l=2*(a()-.5),m,n,B=y.replace(/([0-9\.]+) ([0-9\.]+)/g,function(C,z,A){function p(b,c){b=parseFloat(b);c=parseFloat(c);if(!u){var d=b-m,v=c-n;d=Math.sqrt(d*
		d+v*v);if(20&lt;d)return p(.5*(m+b),.5*(n+c)),p(b,c);f+=d;40&lt;f&amp;&amp;(f=0,g=h,k=l,h=2*(a()-.5),l=2*(a()-.5))}u=!1;m=b;n=c;d=f/40;b+=g+(h-g)*d;c+=k+(l-k)*d;result+=&quot; &quot;+b+&quot; &quot;+c}result=&quot;&quot;;p(z,A);return result});e.setAttribute(&quot;d&quot;,B)})});var w=function(){t.forEach(function(e){e()});x(w,240*(.9+.2*a()))};w()
		</script></svg>