<?xml version="1.0" encoding="utf-8" standalone="no"?>
<!DOCTYPE svg PUBLIC "-//W3C//DTD SVG 1.1//EN" "http://www.w3.org/Graphics/SVG/1.1/DTD/svg11.dtd">
<svg version="1.1" class="svg-plot" xmlns="http://www.w3.org/2000/svg" width="1285.33pt" height="449.5pt" viewBox="-35.37 -10 1285.33 449.5" preserveAspectRatio="xMidYMid"><rect x="-25.37" y="0" width="1265.33" height="429.5" class="svg-plot-bg"/><rect x="0" y="0" width="1200" height="400" class="svg-plot-axis"/><line x1="0" x2="0" y1="0" y2="400" class="svg-plot-major"/><line x1="0" x2="0" y1="0" y2="400" class="svg-plot-major"/><line x1="0" x2="0" y1="0" y2="400" class="svg-plot-major"/><line x1="0" x2="0" y1="0" y2="400" class="svg-plot-major"/><line x1="0" x2="0" y1="0" y2="400" class="svg-plot-major"/><line x1="0" x2="0" y1="0" y2="400" class="svg-plot-major"/><line x1="0" x2="0" y1="0" y2="400" class="svg-plot-major"/><line x1="0" x2="0" y1="0" y2="400" class="svg-plot-major"/><line x1="0" x2="0" y1="0" y2="400" class="svg-plot-major"/><line x1="0" x2="0" y1="0" y2="400" class="svg-plot-major"/><line x1="0" x2="0" y1="0" y2="400" class="svg-plot-major"/><line x1="0" x2="0" y1="0" y2="400" class="svg-plot-major"/><line x1="0" x2="0" y1="0" y2="400" class="svg-plot-major"/><line x1="0" x2="0" y1="0" y2="400" class="svg-plot-major"/><line x1="0" x2="0" y1="0" y2="400" class="svg-plot-major"/><line x1="0" x2="0" y1="0" y2="400" class="svg-plot-major"/><line x1="0" x2="0" y1="0" y2="400" class="svg-plot-major"/><line x1="0" x2="0" y1="0" y2="400" class="svg-plot-major"/><line x1="0" x2="0" y1="0" y2="400" class="svg-plot-major"/><line x1="0" x2="0" y1="0" y2="400" class="svg-plot-major"/><line x1="0" x2="0" y1="0" y2="400" class="svg-plot-major"/><line x1="0" x2="0" y1="0" y2="400" class="svg-plot-major"/><line x1="0" x2="0" y1="0" y2="400" class="svg-plot-major"/><line x1="0" x2="0" y1="0" y2="400" class="svg-plot-major"/><line x1="0" x2="0" y1="0" y2="400" class="svg-plot-major"/><line x1="0" x2="0" y1="0" y2="400" class="svg-plot-major"/><line x1="0" x2="0" y1="0" y2="400" class="svg-plot-major"/><line x1="0" x2="0" y1="0" y2="400" class="svg-plot-major"/><line x1="0" x2="0" y1="0" y2="400" class="svg-plot-major"/><line x1="0" x2="0" y1="0" y2="400" class="svg-plot-major"/><line x1="0" x2="0" y1="0" y2="400" class="svg-plot-major"/><line x1="0" x2="0" y1="0" y2="400" class="svg-plot-major"/><line x1="0" x2="0" y1="0" y2="400" class="svg-plot-major"/><line x1="0" x2="0" y1="0" y2="400" class="svg-plot-major"/><line x1="0" x2="0" y1="0" y2="400" class="svg-plot-major"/><line x1="0" x2="1200" y1="199.986" y2="199.986" class="svg-plot-major"/><line x1="0" x2="1200" y1="315.859" y2="315.859" class="svg-plot-minor"/><line x1="0" x2="1200" y1="84.1143" y2="84.1143" class="svg-plot-minor"/><clipPath id="clip0"><rect x="-0.5" y="-0.5" width="1201" height="401"/></clipPath><g clip-path="url(#clip0)"><path class="svg-plot-line svg-plot-s0 svg-plot-d0" d="M 0 315.86 3.28 319.33 6.55 322.75 9.83 326.11 13.1 329.41 16.38 332.66 19.65 335.84 22.93 338.96 26.21 342.01 29.48 345 32.76 347.93 36.03 350.78 39.31 353.57 42.58 356.28 45.86 358.92 49.14 361.49 52.41 363.99 54.6 365.61 56.78 367.2 58.96 368.75 61.15 370.27 63.33 371.75 65.51 373.2 67.7 374.62 69.88 375.99 72.07 377.34 74.25 378.64 76.43 379.91 78.62 381.14 80.8 382.34 82.98 383.49 85.17 384.61 87.35 385.7 89.54 386.74 91.72 387.74 93.9 388.71 96.09 389.64 98.27 390.53 100.45 391.38 102.64 392.19 104.82 392.97 107.01 393.7 109.19 394.39 111.37 395.04 113.56 395.66 115.74 396.23 117.93 396.76 120.11 397.26 122.29 397.71 124.48 398.12 126.66 398.49 128.84 398.82 131.03 399.11 133.21 399.36 135.4 399.57 137.58 399.74 139.76 399.86 141.95 399.95 144.13 399.99 146.31 400 148.5 399.96 150.68 399.88 152.87 399.76 155.05 399.6 157.23 399.4 159.42 399.16 161.6 398.88 163.79 398.55 165.97 398.19 168.15 397.78 170.34 397.34 172.52 396.85 174.7 396.33 176.89 395.76 179.07 395.16 181.26 394.51 183.44 393.82 185.62 393.1 187.81 392.33 189.99 391.53 192.17 390.68 194.36 389.8 196.54 388.88 198.73 387.92 200.91 386.92 203.09 385.88 205.28 384.81 207.46 383.69 209.65 382.54 211.83 381.35 214.01 380.13 216.2 378.87 218.38 377.57 220.56 376.23 222.75 374.86 224.93 373.45 227.12 372.01 229.3 370.53 231.48 369.02 233.67 367.47 235.85 365.89 238.03 364.27 241.31 361.79 244.59 359.23 247.86 356.59 251.14 353.88 254.41 351.11 257.69 348.26 260.96 345.34 264.24 342.36 267.52 339.31 270.79 336.2 274.07 333.02 277.34 329.79 280.62 326.49 283.89 323.14 287.17 319.73 290.45 316.26 293.72 312.74 297 309.17 300.27 305.55 303.55 301.88 305.73 299.41 306.82 298.28 311.19 293.26 315.56 288.16 319.93 282.99 324.29 277.75 328.66 272.44 333.03 267.08 337.4 261.66 342.86 254.81 348.32 247.9 353.78 240.92 360.33 232.48 367.97 222.56 377.8 209.72 397.45 183.98 406.19 172.6 412.74 164.12 419.29 155.71 424.75 148.76 430.21 141.87 435.67 135.06 440.04 129.68 444.4 124.35 448.77 119.08 453.14 113.88 457.51 108.75 461.87 103.69 465.15 99.95 468.43 96.26 471.7 92.61 474.98 89.01 478.25 85.47 481.53 81.97 484.8 78.54 488.08 75.15 491.36 71.83 494.63 68.56 497.91 65.36 501.18 62.21 504.46 59.13 507.73 56.12 511.01 53.17 514.29 50.29 517.56 47.48 520.84 44.73 524.11 42.06 527.39 39.47 530.66 36.94 532.85 35.3 535.03 33.7 537.22 32.12 539.4 30.58 541.58 29.08 543.77 27.61 545.95 26.18 548.13 24.78 550.32 23.42 552.5 22.09 554.69 20.8 556.87 19.55 559.05 18.34 561.24 17.16 563.42 16.02 565.61 14.91 567.79 13.85 569.97 12.82 572.16 11.83 574.34 10.88 576.52 9.97 578.71 9.1 580.89 8.26 583.08 7.47 585.26 6.71 587.44 6 589.63 5.32 591.81 4.69 593.99 4.09 596.18 3.53 598.36 3.02 600.55 2.54 602.73 2.11 604.91 1.71 607.1 1.36 609.28 1.05 611.46 0.78 613.65 0.54 615.83 0.35 618.02 0.2 620.2 0.09 622.38 0.03 624.57 0 626.75 0.01 628.94 0.07 631.12 0.17 633.3 0.3 635.49 0.48 637.67 0.7 639.85 0.96 642.04 1.26 644.22 1.6 646.41 1.98 648.59 2.4 650.77 2.86 652.96 3.37 655.14 3.91 657.32 4.49 659.51 5.12 661.69 5.78 663.88 6.48 666.06 7.23 668.24 8.01 670.43 8.83 672.61 9.69 674.8 10.59 676.98 11.53 679.16 12.51 681.35 13.52 683.53 14.58 685.71 15.67 687.9 16.8 690.08 17.96 692.27 19.17 694.45 20.41 696.63 21.69 698.82 23 701 24.35 703.18 25.74 705.37 27.16 707.55 28.62 709.74 30.11 711.92 31.64 714.1 33.2 716.29 34.8 718.47 36.43 721.75 38.94 725.02 41.52 728.3 44.17 731.57 46.9 734.85 49.7 738.13 52.56 741.4 55.5 744.68 58.5 747.95 61.57 751.23 64.7 754.5 67.89 757.78 71.14 761.06 74.46 764.33 77.83 767.61 81.26 770.88 84.74 774.16 88.27 777.43 91.86 780.71 95.5 783.99 99.18 788.35 104.17 792.72 109.23 797.09 114.37 801.46 119.58 805.82 124.85 810.19 130.19 814.56 135.58 820.02 142.39 825.48 149.28 830.94 156.23 837.49 164.65 844.04 173.13 852.78 184.51 864.79 200.23 865.88 201.52 878.98 218.66 886.62 228.6 893.18 237.07 899.73 245.47 905.19 252.41 910.65 259.28 916.11 266.07 920.47 271.45 924.84 276.77 929.21 282.02 933.58 287.21 937.94 292.32 942.31 297.36 945.59 301.09 948.86 304.77 952.14 308.4 955.41 311.99 958.69 315.52 961.97 318.99 965.24 322.42 968.52 325.78 971.79 329.09 975.07 332.34 978.34 335.53 981.62 338.65 984.9 341.72 988.17 344.71 991.45 347.64 994.72 350.5 998 353.3 1001.27 356.02 1004.55 358.67 1007.83 361.24 1011.1 363.74 1013.28 365.37 1015.47 366.96 1017.65 368.52 1019.84 370.04 1022.02 371.53 1024.2 372.99 1026.39 374.4 1028.57 375.79 1030.76 377.13 1032.94 378.44 1035.12 379.72 1037.31 380.95 1039.49 382.15 1041.67 383.32 1043.86 384.44 1046.04 385.53 1048.23 386.58 1050.41 387.59 1052.59 388.56 1054.78 389.49 1056.96 390.39 1059.14 391.24 1061.33 392.06 1063.51 392.84 1065.7 393.58 1067.88 394.27 1070.06 394.93 1072.25 395.55 1074.43 396.13 1076.62 396.67 1078.8 397.17 1080.98 397.62 1083.17 398.04 1085.35 398.42 1087.53 398.75 1089.72 399.05 1091.9 399.3 1094.09 399.52 1096.27 399.69 1098.45 399.82 1100.64 399.91 1102.82 399.96 1105 399.97 1107.19 399.94 1109.37 399.87 1111.56 399.75 1113.74 399.6 1115.92 399.4 1118.11 399.17 1120.29 398.89 1122.47 398.57 1124.66 398.21 1126.84 397.81 1129.03 397.38 1131.21 396.9 1133.39 396.37 1135.58 395.81 1137.76 395.21 1139.95 394.57 1142.13 393.89 1144.31 393.17 1146.5 392.41 1148.68 391.61 1150.86 390.77 1153.05 389.9 1155.23 388.98 1157.42 388.03 1159.6 387.03 1161.78 386 1163.97 384.93 1166.15 383.82 1168.33 382.68 1170.52 381.49 1172.7 380.27 1174.89 379.02 1177.07 377.72 1179.25 376.39 1181.44 375.03 1183.62 373.62 1185.81 372.19 1187.99 370.71 1190.17 369.21 1192.36 367.66 1194.54 366.09 1196.72 364.47 1200 362"/></g><g><text class="svg-plot-label svg-plot-t" x="0" y="0" transform="rotate(-90) translate(-199.1 -20.87)">signal</text><text class="svg-plot-value" style="text-anchor:end" x="-5" y="83.2143">1</text><text class="svg-plot-value" style="text-anchor:end" x="-5" y="314.959">-1</text><text class="svg-plot-value" style="text-anchor:end" x="-5" y="199.086">0</text><text class="svg-plot-label svg-plot-t" x="600" y="424.1">time</text><text class="svg-plot-value" x="1187.99" y="408.6">1088</text><text class="svg-plot-value" x="0" y="408.6">0</text><text class="svg-plot-value" x="1153.05" y="408.6">1056</text><text class="svg-plot-value" x="0" y="408.6">0</text><text class="svg-plot-value" x="1118.11" y="408.6">1024</text><text class="svg-plot-value" x="0" y="408.6">0</text><text class="svg-plot-value" x="1083.17" y="408.6">992</text><text class="svg-plot-value" x="0" y="408.6">0</text><text class="svg-plot-value" x="1048.23" y="408.6">960</text><text class="svg-plot-value" x="0" y="408.6">0</text><text class="svg-plot-value" x="1013.28" y="408.6">928</text><text class="svg-plot-value" x="0" y="408.6">0</text><text class="svg-plot-value" x="978.344" y="408.6">896</text><text class="svg-plot-value" x="0" y="408.6">0</text><text class="svg-plot-value" x="943.403" y="408.6">864</text><text class="svg-plot-value" x="0" y="408.6">0</text><text class="svg-plot-value" x="908.462" y="408.6">832</text><text class="svg-plot-value" x="0" y="408.6">0</text><text class="svg-plot-value" x="873.521" y="408.6">800</text><text class="svg-plot-value" x="0" y="408.6">0</text><text class="svg-plot-value" x="838.581" y="408.6">768</text><text class="svg-plot-value" x="0" y="408.6">0</text><text class="svg-plot-value" x="803.64" y="408.6">736</text><text class="svg-plot-value" x="0" y="408.6">0</text><text class="svg-plot-value" x="768.699" y="408.6">704</text><text class="svg-plot-value" x="0" y="408.6">0</text><text class="svg-plot-value" x="733.758" y="408.6">672</text><text class="svg-plot-value" x="0" y="408.6">0</text><text class="svg-plot-value" x="698.817" y="408.6">640</text><text class="svg-plot-value" x="0" y="408.6">0</text><text class="svg-plot-value" x="663.876" y="408.6">608</text><text class="svg-plot-value" x="0" y="408.6">0</text><text class="svg-plot-value" x="628.935" y="408.6">576</text><text class="svg-plot-value" x="0" y="408.6">0</text><text class="svg-plot-value" x="593.995" y="408.6">544</text><text class="svg-plot-value" x="0" y="408.6">0</text><text class="svg-plot-value" x="559.054" y="408.6">512</text><text class="svg-plot-value" x="0" y="408.6">0</text><text class="svg-plot-value" x="524.113" y="408.6">480</text><text class="svg-plot-value" x="0" y="408.6">0</text><text class="svg-plot-value" x="489.172" y="408.6">448</text><text class="svg-plot-value" x="0" y="408.6">0</text><text class="svg-plot-value" x="454.231" y="408.6">416</text><text class="svg-plot-value" x="0" y="408.6">0</text><text class="svg-plot-value" x="419.29" y="408.6">384</text><text class="svg-plot-value" x="0" y="408.6">0</text><text class="svg-plot-value" x="384.349" y="408.6">352</text><text class="svg-plot-value" x="0" y="408.6">0</text><text class="svg-plot-value" x="349.409" y="408.6">320</text><text class="svg-plot-value" x="0" y="408.6">0</text><text class="svg-plot-value" x="314.468" y="408.6">288</text><text class="svg-plot-value" x="0" y="408.6">0</text><text class="svg-plot-value" x="279.527" y="408.6">256</text><text class="svg-plot-value" x="0" y="408.6">0</text><text class="svg-plot-value" x="244.586" y="408.6">224</text><text class="svg-plot-value" x="0" y="408.6">0</text><text class="svg-plot-value" x="209.645" y="408.6">192</text><text class="svg-plot-value" x="0" y="408.6">0</text><text class="svg-plot-value" x="174.704" y="408.6">160</text><text class="svg-plot-value" x="0" y="408.6">0</text><text class="svg-plot-value" x="139.763" y="408.6">128</text><text class="svg-plot-value" x="0" y="408.6">0</text><text class="svg-plot-value" x="104.823" y="408.6">96</text><text class="svg-plot-value" x="0" y="408.6">0</text><text class="svg-plot-value" x="69.8817" y="408.6">64</text><text class="svg-plot-value" x="0" y="408.6">0</text><text class="svg-plot-value" x="34.9409" y="408.6">32</text><text class="svg-plot-value" x="0" y="408.6">0</text><text class="svg-plot-value" x="0" y="408.6">0</text><text class="svg-plot-value" x="0" y="408.6">0</text><text class="svg-plot-label svg-plot-t0" style="text-anchor:start" x="1203" y="360.795">stuff9</text></g><defs><g id="svg-plot-marker0" class="svg-plot-marker"><circle cx="0" cy="0" r="1" stroke="none"/></g><g id="svg-plot-marker1" class="svg-plot-marker"><path d="M0 0.9 -0.9 0 0 -0.9 0.9 0Z" fill="#FFFA" stroke-linejoin="miter" stroke-width="0.6"/></g><g id="svg-plot-marker2" class="svg-plot-marker"><path fill="none" d="M0 -1.2 0 1.2 M -1.2 0 1.2 0" stroke-width="0.7"/></g><g id="svg-plot-marker3" class="svg-plot-marker"><circle cx="0" cy="0" fill="#FFFA" r="0.8" stroke-width="0.65"/></g><g id="svg-plot-marker4" class="svg-plot-marker"><path stroke="none" d="M0 -1.25 1.25 0.9 -1.25 0.9Z"/></g><mask id="svg-plot-hatch0"><rect x="-1754" y="-1754" width="3508" height="3508" fill="url(#svg-plot-hatch0-pattern)" style="transform:rotate(30deg)"/></mask><pattern patternUnits="userSpaceOnUse" id="svg-plot-hatch0-pattern" class="svg-plot-hatch" x="0" y="0" width="10" height="2.4" stroke="#FFF" fill="none"><line x1="-1" x2="11" y1="1.2" y2="1.2"/></pattern><mask id="svg-plot-hatch1"><rect x="-1754" y="-1754" width="3508" height="3508" fill="url(#svg-plot-hatch1-pattern)" style="transform:rotate(-50deg)"/></mask><pattern patternUnits="userSpaceOnUse" id="svg-plot-hatch1-pattern" class="svg-plot-hatch" x="0" y="0" width="10" height="3" stroke="#FFF" fill="none"><line x1="-1" x2="11" y1="1.5" y2="1.5"/></pattern><mask id="svg-plot-hatch3"><rect x="-1754" y="-1754" width="3508" height="3508" fill="url(#svg-plot-hatch3-pattern)" style="transform:rotate(8deg)"/><rect x="-1754" y="-1754" width="3508" height="3508" fill="url(#svg-plot-hatch3-pattern)" style="transform:rotate(93deg)"/></mask><pattern patternUnits="userSpaceOnUse" id="svg-plot-hatch3-pattern" class="svg-plot-hatch" x="0" y="0" width="10" height="3" stroke="#FFF" fill="none"><line x1="-1" x2="11" y1="1.5" y2="1.5"/></pattern></defs><style>.svg-plot{stroke-linecap:butt;stroke-linejoin:round;}.svg-plot-bg{fill:none;stroke:none;}.svg-plot-axis{stroke:none;fill:#FFFFFFD9;}.svg-plot-legend{stroke:none;fill:#FFFFFFE4;}.svg-plot-line{stroke:blue;fill:none;stroke-width:1px;stroke-linejoin:round;}.svg-plot-fill{stroke:none;opacity:0.6;}.svg-plot-major{stroke:#000;stroke-width:1px;stroke-linecap:square;fill:none;}.svg-plot-minor{stroke:#0000004D;stroke-width:0.5px;stroke-dasharray:0.5 1.5;stroke-linecap:round;fill:none;}.svg-plot-tick{stroke:#000;fill:none;stroke-width:1px;stroke-linecap:butt;}.svg-plot-value,.svg-plot-label{font-family:Arial,sans-serif;fill:#000;stroke:#FFFFFF48;stroke-width:2.5px;paint-order:stroke fill;text-anchor:middle;dominant-baseline:central;alignment-baseline:baseline;}.svg-plot-label{font-size:12px;}.svg-plot-value{font-size:9px;}.svg-plot-hatch{stroke:#FFF;stroke-width:1px;}.svg-plot-marker{transform:scale(3.25);}.svg-plot-s{stroke:#000;}.svg-plot-f,.svg-plot-t{fill:#000;}.svg-plot-s0{stroke:#CC0000}.svg-plot-f0,.svg-plot-t0{fill:#CC0000}.svg-plot-s1{stroke:#0073E6}.svg-plot-f1,.svg-plot-t1{fill:#0073E6}.svg-plot-s2{stroke:#00B300}.svg-plot-f2,.svg-plot-t2{fill:#00B300}.svg-plot-s3{stroke:#806600}.svg-plot-f3,.svg-plot-t3{fill:#806600}.svg-plot-s4{stroke:#E69900}.svg-plot-f4,.svg-plot-t4{fill:#E69900}.svg-plot-s5{stroke:#CC00CC}.svg-plot-f5,.svg-plot-t5{fill:#CC00CC}.svg-plot-d0{stroke-width:0.9px}.svg-plot-d1{stroke-dasharray:2.8 1.6}.svg-plot-d2{stroke-dasharray:1.2 1.2}.svg-plot-d3{stroke-dasharray:5 4}.svg-plot-d4{stroke-dasharray:4 1 1 1 1 1}.svg-plot-d5{stroke-dasharray:10 3}.svg-plot-d6{stroke-dasharray:4 2 1 2}.svg-plot-h0{mask:url(#svg-plot-hatch0)}.svg-plot-h1{mask:url(#svg-plot-hatch1)}.svg-plot-h2{opacity:0.2}.svg-plot-h3{mask:url(#svg-plot-hatch3)}#svg-plot-hatch0-pattern{stroke-width:0.9px}#svg-plot-hatch3-pattern{stroke-width:0.7px}.svg-plot-value,.svg-plot-label{font-family:Verdana,sans-serif;}.svg-plot-axis{fill:#EEE;}.svg-plot-tick{stroke:#666;stroke-width:0.75px;}.svg-plot-value{fill:#666;opacity:0.8;font-weight:bold;}.svg-plot-major{stroke:#FFF;stroke-width:1.5px;}.svg-plot-minor{stroke:#FFF;stroke-width:0.75px;stroke-dasharray:none;}</style><script>var q=document,x=setTimeout,a=Math.random,r=q.querySelector(&quot;style&quot;);r.textContent='@import &quot;/style/article/dist.css&quot;;'+r.textContent+'.svg-plot-value,.svg-plot-label{font-family:&quot;Geraint Dense&quot;,Arial,sans-serif}';var t=[];q.querySelectorAll(&quot;path&quot;).forEach(function(e){var y=e.getAttribute(&quot;d&quot;);t.push(function(){var f=40*a(),u=!0,g=2*(a()-.5),h=2*(a()-.5),k=2*(a()-.5),l=2*(a()-.5),m,n,B=y.replace(/([0-9\.]+) ([0-9\.]+)/g,function(C,z,A){function p(b,c){b=parseFloat(b);c=parseFloat(c);if(!u){var d=b-m,v=c-n;d=Math.sqrt(d*
		d+v*v);if(20&lt;d)return p(.5*(m+b),.5*(n+c)),p(b,c);f+=d;40&lt;f&amp;&amp;(f=0,g=h,k=l,h=2*(a()-.5),l=2*(a()-.5))}u=!1;m=b;n=c;d=f/40;b+=g+(h-g)*d;c+=k+(l-k)*d;result+=&quot; &quot;+b+&quot; &quot;+c}result=&quot;&quot;;p(z,A);return result});e.setAttribute(&quot;d&quot;,B)})});var w=function(){t.forEach(function(e){e()});x(w,240*(.9+.2*a()))};w()
		</script></svg>