<?xml version="1.0" encoding="utf-8" standalone="no"?>
<!DOCTYPE svg PUBLIC "-//W3C//DTD SVG 1.1//EN" "http://www.w3.org/Graphics/SVG/1.1/DTD/svg11.dtd">
<svg version="1.1" class="svg-plot" xmlns="http://www.w3.org/2000/svg" width="1285.2pt" height="449.5pt" viewBox="-35.37 -10 1285.2 449.5" preserveAspectRatio="xMidYMid"><rect x="-25.37" y="0" width="1265.2" height="429.5" class="svg-plot-bg"/><rect x="0" y="0" width="1200" height="400" class="svg-plot-axis"/><line x1="0" x2="0" y1="0" y2="400" class="svg-plot-major"/><line x1="0" x2="0" y1="0" y2="400" class="svg-plot-major"/><line x1="0" x2="0" y1="0" y2="400" class="svg-plot-major"/><line x1="0" x2="0" y1="0" y2="400" class="svg-plot-major"/><line x1="0" x2="0" y1="0" y2="400" class="svg-plot-major"/><line x1="0" x2="0" y1="0" y2="400" class="svg-plot-major"/><line x1="0" x2="0" y1="0" y2="400" class="svg-plot-major"/><line x1="0" x2="0" y1="0" y2="400" class="svg-plot-major"/><line x1="0" x2="0" y1="0" y2="400" class="svg-plot-major"/><line x1="0" x2="0" y1="0" y2="400" class="svg-plot-major"/><line x1="0" x2="0" y1="0" y2="400" class="svg-plot-major"/><line x1="0" x2="0" y1="0" y2="400" class="svg-plot-major"/><line x1="0" x2="0" y1="0" y2="400" class="svg-plot-major"/><line x1="0" x2="0" y1="0" y2="400" class="svg-plot-major"/><line x1="0" x2="0" y1="0" y2="400" class="svg-plot-major"/><line x1="0" x2="0" y1="0" y2="400" class="svg-plot-major"/><line x1="0" x2="0" y1="0" y2="400" class="svg-plot-major"/><line x1="0" x2="0" y1="0" y2="400" class="svg-plot-major"/><line x1="0" x2="0" y1="0" y2="400" class="svg-plot-major"/><line x1="0" x2="0" y1="0" y2="400" class="svg-plot-major"/><line x1="0" x2="0" y1="0" y2="400" class="svg-plot-major"/><line x1="0" x2="0" y1="0" y2="400" class="svg-plot-major"/><line x1="0" x2="0" y1="0" y2="400" class="svg-plot-major"/><line x1="0" x2="0" y1="0" y2="400" class="svg-plot-major"/><line x1="0" x2="0" y1="0" y2="400" class="svg-plot-major"/><line x1="0" x2="0" y1="0" y2="400" class="svg-plot-major"/><line x1="0" x2="0" y1="0" y2="400" class="svg-plot-major"/><line x1="0" x2="0" y1="0" y2="400" class="svg-plot-major"/><line x1="0" x2="0" y1="0" y2="400" class="svg-plot-major"/><line x1="0" x2="0" y1="0" y2="400" class="svg-plot-major"/><line x1="0" x2="0" y1="0" y2="400" class="svg-plot-major"/><line x1="0" x2="0" y1="0" y2="400" class="svg-plot-major"/><line x1="0" x2="0" y1="0" y2="400" class="svg-plot-major"/><line x1="0" x2="0" y1="0" y2="400" class="svg-plot-major"/><line x1="0" x2="0" y1="0" y2="400" class="svg-plot-major"/><line x1="0" x2="1200" y1="199.985" y2="199.985" class="svg-plot-major"/><line x1="0" x2="1200" y1="226.868" y2="226.868" class="svg-plot-minor"/><line x1="0" x2="1200" y1="173.103" y2="173.103" class="svg-plot-minor"/><clipPath id="clip0"><rect x="-0.5" y="-0.5" width="1201" height="401"/></clipPath><g clip-path="url(#clip0)"><path class="svg-plot-line svg-plot-s0 svg-plot-d0" d="M 0 173.1 1.09 309.18 2.18 392.13 3.28 381.59 4.37 282.71 5.46 143.6 6.55 31.94 7.64 2.04 8.74 68.44 10.92 329.75 12.01 397.53 13.1 369.2 14.19 258.56 15.29 119.44 16.38 19.53 17.47 7.43 18.56 89 19.65 224.55 20.75 348.12 21.84 399.61 22.93 353.97 24.02 233.44 25.11 96.65 26.21 10.17 27.3 16.04 28.39 111.4 29.48 249.83 30.57 363.98 31.67 398.33 32.76 336.18 33.85 207.79 34.94 75.64 36.03 4.01 37.12 27.74 38.22 135.25 39.31 274.23 40.4 377.05 41.49 393.71 42.58 316.12 43.68 182.06 44.77 56.75 45.86 1.16 46.95 42.3 48.04 160.15 49.14 297.34 50.23 387.13 51.32 385.85 52.41 294.16 53.5 156.68 54.6 40.3 55.69 1.65 56.78 59.49 57.87 185.66 58.96 318.76 60.05 394.04 61.15 374.89 62.24 270.66 63.33 132.08 64.42 26.58 65.51 5.46 66.61 78.99 67.7 211.35 68.79 338.14 69.88 397.68 70.97 361.03 72.07 246.04 73.16 108.81 74.25 15.84 75.34 12.49 76.43 100.35 77.53 236.65 78.62 355.07 79.71 398.01 80.8 344.6 81.89 220.86 82.98 87 84.08 8.15 85.17 22.66 86.26 123.42 87.35 261.4 88.44 369.45 89.54 395.03 90.63 325.72 92.81 67.14 93.9 3.69 95 35.76 96.09 147.7 97.18 285.04 98.27 380.96 99.36 388.81 100.45 304.8 101.55 169.82 102.64 49.56 103.73 2.52 104.82 51.55 105.91 172.78 107.01 307.2 108.1 389.42 109.19 379.46 110.28 282.19 111.37 144.96 112.47 34.54 113.56 4.64 114.65 69.78 116.83 327.51 117.93 394.71 119.02 367.16 120.11 258.29 121.2 121.09 122.29 22.31 123.38 9.99 124.48 90.1 125.57 223.65 126.66 345.64 127.75 396.75 128.84 352.12 129.94 233.49 131.03 98.6 132.12 13.06 133.21 18.48 134.3 112.19 135.4 248.59 136.49 361.31 137.58 395.52 138.67 334.6 139.76 208.21 140.86 77.85 141.95 6.93 143.04 29.95 144.13 135.67 145.22 272.66 146.31 374.27 147.41 391.07 148.5 314.91 149.59 182.87 150.68 59.17 151.77 4 152.87 44.18 153.96 160.15 155.05 295.47 156.14 384.32 157.23 383.48 158.33 293.38 159.42 157.86 160.51 42.86 161.6 4.31 162.69 60.95 163.79 185.22 164.88 316.66 165.97 391.32 167.06 372.89 168.15 270.36 169.24 133.6 170.34 29.16 171.43 7.82 172.52 79.97 173.61 210.49 174.7 335.89 175.8 395.17 176.89 359.49 177.98 246.22 179.07 110.48 180.16 18.28 181.26 14.48 182.35 100.92 183.44 235.55 184.53 352.87 185.62 395.81 186.72 343.49 187.81 221.37 188.9 88.85 189.99 10.39 191.08 24.16 192.17 123.46 193.27 259.99 194.36 367.32 195.45 393.26 196.54 325.17 198.73 69.06 199.82 5.61 200.91 36.71 202 147.24 203.09 283.43 204.19 379.03 205.28 387.55 206.37 304.82 207.46 171.1 208.55 51.42 209.65 4 210.74 51.91 211.83 171.86 212.92 305.5 214.01 387.82 215.1 378.79 216.2 282.77 217.29 146.48 218.38 36.2 219.47 5.58 220.56 69.52 222.75 325.85 223.84 393.55 224.93 367.11 226.02 259.37 227.12 122.73 228.21 23.64 229.3 10.32 230.39 89.26 231.48 222.07 232.58 344.16 233.67 396.14 234.76 352.71 235.85 234.99 236.94 100.22 238.03 13.95 239.13 18.16 240.22 110.82 241.31 246.86 242.4 360.14 243.49 395.53 244.59 335.82 245.68 210.01 246.77 79.31 247.86 7.27 248.95 28.96 250.05 133.85 251.14 270.93 252.23 373.54 253.32 391.75 254.41 316.69 255.51 184.84 256.6 60.33 257.69 3.72 258.78 42.56 259.87 157.99 260.96 293.88 262.06 384.13 263.15 384.84 264.24 295.62 265.33 159.87 266.42 43.59 267.52 3.35 268.61 58.75 269.7 182.87 270.79 315.35 271.88 391.75 272.98 374.9 274.07 272.96 275.16 135.5 276.25 29.36 277.34 6.19 278.43 77.27 279.53 208.07 280.62 334.98 281.71 396.26 282.8 362.09 283.89 249.05 284.99 112.12 286.08 17.88 287.17 12.19 288.26 97.85 289.35 233.22 290.45 352.46 291.54 397.58 292.63 346.6 293.72 224.28 294.81 90.11 295.91 9.34 297 21.28 298.09 120.15 299.18 257.89 300.27 367.5 301.36 395.67 302.46 328.67 304.64 69.84 305.73 3.89 306.82 33.31 307.92 143.82 309.01 281.68 310.1 379.85 311.19 390.56 312.28 308.57 313.38 173.74 314.47 51.63 315.56 1.65 316.65 48.12 317.74 168.48 318.84 304.2 319.93 389.28 321.02 382.3 322.11 286.64 323.2 148.8 324.29 35.81 325.39 2.65 326.48 65.47 327.57 193.74 328.66 325.09 329.75 395.62 330.85 371.02 331.94 263.21 333.03 124.62 334.12 22.64 335.21 6.9 336.31 85.08 337.4 219.17 338.49 343.97 339.58 398.77 340.67 356.88 341.77 238.67 342.86 101.6 343.95 12.36 345.04 14.35 346.13 106.65 347.22 244.37 348.32 360.54 349.41 398.64 350.5 340.12 351.59 213.42 352.68 80.15 353.78 5.14 354.87 24.9 355.96 129.82 357.05 268.91 358.14 374.5 359.24 395.22 360.33 320.98 361.42 187.87 362.51 60.62 363.6 1.14 364.7 38.37 365.79 154.23 366.88 292.37 367.97 385.6 369.06 388.56 370.15 299.79 371.25 162.46 372.34 43.35 373.43 0.42 374.52 54.56 375.61 179.45 376.71 314.35 377.8 393.64 378.89 378.74 379.98 276.89 381.07 137.61 382.17 28.65 383.26 3.03 384.35 73.21 385.44 205.07 386.53 334.47 387.63 398.47 388.72 365.93 389.81 252.66 390.9 113.75 391.99 16.78 393.08 8.92 394.18 94 395.27 230.65 396.36 352.39 397.45 400 398.54 350.32 399.64 227.5 400.73 91.29 401.82 7.95 402.91 18.02 404 116.61 405.1 255.76 406.19 367.78 407.28 398.19 408.37 332.18 410.56 70.63 411.65 2.32 412.74 30.17 413.83 140.63 414.92 279.96 416.01 380.39 417.11 393.05 418.2 311.8 419.29 176.16 420.38 52.11 421.47 0 422.57 45.18 423.66 165.66 424.75 302.84 425.84 389.97 426.93 384.68 428.03 289.54 429.12 150.84 430.21 36.06 431.3 1.03 432.39 62.79 433.48 191.29 434.58 324 435.67 396.37 436.76 373.2 437.85 265.77 438.94 126.35 440.04 22.77 441.13 5.41 442.22 82.71 443.31 217.05 444.4 343.07 445.5 399.47 446.59 358.82 447.68 240.9 448.77 103.1 449.86 12.45 450.96 13.05 452.05 104.59 453.14 242.51 454.23 359.73 455.32 399.21 456.41 341.77 457.51 215.36 458.6 81.5 459.69 5.3 460.78 23.83 461.87 128.05 462.97 267.24 464.06 373.68 465.15 395.61 466.24 322.36 467.33 189.6 468.43 61.92 469.52 1.44 470.61 37.56 471.7 152.69 472.79 290.8 473.89 384.7 474.98 388.72 476.07 300.92 477.16 164.04 478.25 44.69 479.34 0.91 480.44 53.99 481.53 178.08 482.62 312.8 483.71 392.59 484.8 378.66 485.9 277.82 486.99 139.14 488.08 30.1 489.17 3.74 490.26 72.85 492.45 332.85 493.54 397.23 494.63 365.63 495.72 253.46 496.82 115.31 497.91 18.39 499 9.85 500.09 93.8 501.18 229.39 502.27 350.63 503.37 398.55 504.46 349.85 505.55 228.27 506.64 92.96 507.73 9.76 508.83 19.13 509.92 116.48 511.01 254.42 512.1 365.83 513.19 396.53 514.29 331.6 516.47 72.47 517.56 4.35 518.65 31.42 519.75 140.49 520.84 278.47 521.93 378.22 523.02 391.23 524.11 311.2 525.2 177.09 526.3 54.16 527.39 2.22 528.48 46.5 529.57 165.43 530.66 301.14 531.76 387.59 532.85 382.75 533.94 289 535.03 151.97 536.12 38.35 537.22 3.39 538.31 64.09 539.4 190.87 540.49 322.05 541.58 393.81 542.68 371.25 543.77 265.38 544.86 127.73 545.95 25.28 547.04 7.84 548.13 83.89 549.23 216.39 550.32 340.87 551.41 396.77 552.5 356.93 553.59 240.75 554.69 104.77 555.78 15.15 556.87 15.48 557.96 105.56 559.05 241.55 560.15 357.29 561.24 396.47 562.33 340.05 563.42 215.51 564.51 83.46 565.61 8.12 566.7 26.14 567.79 128.73 568.88 265.95 569.97 371.05 571.06 392.9 572.16 320.9 573.25 190.1 574.34 64.13 575.43 4.29 576.52 39.66 577.62 153.02 578.71 289.19 579.8 381.95 580.89 386.16 581.98 299.8 583.08 164.91 584.17 47.11 585.26 3.7 586.35 55.78 587.44 178.01 588.54 310.9 589.63 389.81 590.72 376.36 591.81 277.12 592.9 140.37 593.99 32.64 595.09 6.34 596.18 74.25 598.36 330.73 599.45 394.54 600.55 363.69 601.64 253.21 602.73 116.86 603.82 20.96 604.91 12.16 606.01 94.73 607.1 228.49 608.19 348.37 609.28 396.06 610.37 348.35 611.46 228.48 612.56 94.76 613.65 12.24 614.74 21.05 615.83 116.91 616.92 253.17 618.02 363.55 619.11 394.36 620.2 330.62 622.38 74.42 623.48 6.6 624.57 32.85 625.66 140.4 626.75 276.94 627.84 376.03 628.94 389.49 630.03 310.77 631.12 178.15 632.21 56.25 633.3 4.13 634.39 47.29 635.49 164.72 636.58 299.31 637.67 385.59 638.76 381.58 639.85 289.24 640.95 153.48 642.04 40.33 643.13 4.84 644.22 64.27 645.31 189.72 646.41 320.17 647.5 392.17 648.59 370.69 649.68 266.17 650.77 129.45 651.87 27.03 652.96 8.73 654.05 83.46 655.14 214.89 656.23 339.08 657.32 395.62 658.42 357.01 659.51 242.01 660.6 106.56 661.69 16.53 662.78 15.73 663.88 104.56 664.97 239.81 666.06 355.72 667.15 395.89 668.24 340.77 669.34 217.16 670.43 85.18 671.52 9.01 672.61 25.73 673.7 127.21 674.8 264.11 675.89 369.85 676.98 392.98 678.07 322.23 679.16 192.01 680.25 65.64 681.35 4.59 682.44 38.58 683.53 151.08 684.62 287.39 685.71 381.23 686.81 386.92 687.9 301.68 688.99 166.96 690.08 48.27 691.17 3.35 692.27 54.06 693.36 175.77 694.45 309.29 695.54 389.67 696.63 377.81 697.73 279.45 698.82 142.4 699.91 33.33 701 5.3 702.09 71.95 704.28 329.45 705.37 395.05 706.46 365.79 707.55 255.87 708.64 118.73 709.74 21.08 710.83 10.42 711.92 91.97 713.01 226.08 714.1 347.54 715.2 397.26 716.29 351.04 717.38 231.33 718.47 96.33 719.56 11.71 720.66 18.65 721.75 113.79 722.84 250.89 723.93 363.27 725.02 396.26 726.11 333.79 727.21 206.22 728.3 75.57 729.39 5.4 730.48 29.85 731.57 137.07 732.67 274.93 733.76 376.38 734.85 392.06 735.94 314.31 737.03 180.93 738.13 56.78 739.22 2.24 740.31 43.87 741.4 161.46 742.49 297.82 743.59 386.64 744.68 384.69 745.77 292.9 746.86 155.89 747.95 40.27 749.04 2.31 750.14 60.49 751.23 186.54 752.32 319.17 753.41 393.87 754.5 374.28 755.6 269.91 756.69 131.49 757.78 26.34 758.87 5.63 759.96 79.45 761.06 211.92 762.15 338.63 763.24 397.94 764.33 360.97 765.42 245.69 766.52 108.14 767.61 15.22 768.7 12.15 769.79 100.45 770.88 237.19 771.97 355.87 773.07 398.76 774.16 344.98 775.25 220.64 776.34 86.23 777.43 7.11 778.53 21.79 779.62 123.15 780.71 261.92 781.8 370.59 782.89 396.31 783.99 326.54 786.17 66.13 787.26 2.16 788.35 34.4 789.44 147.19 790.54 285.69 791.63 382.54 792.72 390.61 793.81 305.95 794.9 169.73 796 48.2 797.09 0.47 798.18 49.78 799.27 172.17 800.36 308.11 801.46 391.49 802.55 381.73 803.64 283.56 804.73 144.71 805.82 32.73 806.92 2.08 808.01 67.7 810.19 328.8 811.28 397.28 812.37 369.81 813.47 259.72 814.56 120.55 815.65 20.01 816.74 6.99 817.83 87.86 818.93 223.28 820.02 347.38 821.11 399.81 822.2 355.04 823.29 234.83 824.39 97.67 825.48 10.26 826.57 15.13 827.66 109.93 828.75 248.54 829.85 363.55 830.94 399 832.03 337.65 833.12 209.32 834.21 76.44 835.3 3.65 836.4 26.36 837.49 133.53 838.58 273.04 839.67 377.01 840.76 394.87 841.86 317.94 842.95 183.62 844.04 57.26 845.13 0.32 846.22 40.52 847.32 158.28 848.41 296.34 849.5 387.52 850.59 387.48 851.68 296.23 852.78 158.16 853.87 40.44 854.96 0.34 856.05 57.35 857.14 183.75 858.23 318.05 859.33 394.9 860.42 376.93 861.51 272.89 862.6 133.38 863.69 26.29 864.79 3.7 865.88 76.59 866.97 209.51 868.06 337.78 869.15 399.01 870.25 363.42 871.34 248.32 872.43 109.72 873.52 15.05 874.61 10.35 875.71 97.9 876.8 235.11 877.89 355.21 878.98 399.78 880.07 347.16 881.16 222.94 882.26 87.58 883.35 6.92 884.44 20.19 885.53 120.92 886.62 260.1 887.72 370.01 888.81 397.19 889.9 328.43 892.08 67.34 893.18 2.04 894.27 33.05 895.36 145.26 896.45 284.07 897.54 381.95 898.64 391.29 899.73 307.56 900.82 171.52 901.91 49.36 903 0.5 904.09 48.7 905.19 170.48 906.28 306.59 907.37 390.81 908.46 382.17 909.55 284.91 910.65 146.36 911.74 33.93 912.83 2.31 913.92 66.86 916.11 327.29 917.2 396.45 918.29 370.01 919.38 260.87 920.47 122.14 921.57 21.32 922.66 7.44 923.75 87.24 924.84 221.86 925.93 345.8 927.02 398.77 928.12 355.02 929.21 235.86 930.3 99.28 931.39 11.74 932.48 15.8 933.58 109.46 934.67 247.13 935.76 361.83 936.85 397.75 937.94 337.46 939.04 210.3 940.13 78.17 941.22 5.34 942.31 27.22 943.4 133.15 944.49 271.55 945.59 375.1 946.68 393.42 947.77 317.63 948.86 184.64 949.95 59.15 951.05 2.22 952.14 41.51 953.23 157.89 954.32 294.71 955.41 385.4 956.51 385.86 957.6 295.9 958.69 159.3 959.78 42.55 960.87 2.42 961.97 58.42 963.06 183.27 964.15 316.21 965.24 392.57 966.33 375.21 967.42 272.62 968.52 134.72 969.61 28.62 970.7 5.92 971.79 77.63 972.88 208.85 973.98 335.71 975.07 396.5 976.16 361.67 977.25 248.2 978.34 111.31 979.44 17.6 980.53 12.65 981.62 98.83 982.71 234.2 983.8 352.88 984.9 397.14 985.99 345.48 987.08 223.05 988.17 89.44 989.26 9.64 990.35 22.47 991.45 121.65 992.54 258.91 993.63 367.46 994.72 394.51 995.81 326.92 998 69.47 999.09 4.88 1000.18 35.21 1001.27 145.7 1002.37 282.57 1003.46 379.22 1004.55 388.66 1005.64 306.31 1006.73 172.25 1007.83 51.73 1008.92 3.35 1010.01 50.65 1011.1 170.58 1012.19 304.79 1013.28 387.98 1014.38 379.7 1015.47 283.99 1016.56 147.44 1017.65 36.48 1018.74 5.09 1019.84 68.51 1022.02 325.22 1023.11 393.61 1024.2 367.8 1025.3 260.35 1026.39 123.56 1027.48 23.98 1028.57 10.03 1029.66 88.49 1030.76 221.18 1031.85 343.53 1032.94 396.04 1034.03 353.16 1035.12 235.77 1036.21 101 1037.31 14.39 1038.4 18.09 1039.49 110.27 1040.58 246.08 1041.67 359.45 1042.77 395.23 1043.86 336.03 1044.95 210.66 1046.04 80.1 1047.13 7.88 1048.23 29.12 1049.32 133.47 1050.41 270.17 1051.5 372.72 1052.59 391.23 1053.69 316.71 1054.78 185.41 1055.87 61.21 1056.96 4.53 1058.05 42.93 1059.14 157.73 1060.24 293.08 1061.33 383.14 1062.42 384.1 1063.51 295.5 1064.6 160.44 1065.7 44.61 1066.79 4.37 1067.88 59.29 1068.97 182.64 1070.06 314.44 1071.16 390.56 1072.25 373.98 1073.34 272.76 1074.43 136.14 1075.52 30.57 1076.62 7.41 1077.71 77.93 1078.8 207.82 1079.89 333.91 1080.98 394.86 1082.07 361.02 1083.17 248.84 1084.26 112.89 1085.35 19.29 1086.44 13.59 1087.53 98.56 1088.63 232.87 1089.72 351.2 1090.81 395.98 1091.9 345.43 1092.99 224.13 1094.09 91.06 1095.18 10.96 1096.27 22.81 1097.36 120.83 1098.45 257.38 1099.55 366.02 1100.64 393.92 1101.73 327.48 1103.91 71 1105 5.71 1106.1 34.91 1107.19 144.41 1108.28 280.97 1109.37 378.16 1110.46 388.7 1111.56 307.44 1112.65 173.9 1113.74 53.02 1114.83 3.61 1115.92 49.7 1117.02 168.91 1118.11 303.26 1119.2 387.4 1120.29 380.4 1121.38 285.63 1122.47 149.19 1123.57 37.42 1124.66 4.7 1125.75 66.96 1126.84 193.95 1127.93 323.91 1129.03 393.61 1130.12 369.15 1131.21 262.4 1132.3 125.26 1133.39 24.43 1134.49 8.97 1135.58 86.42 1136.67 219.13 1137.76 342.57 1138.85 396.69 1139.95 355.14 1141.04 238.11 1142.13 102.5 1143.22 14.27 1144.31 16.35 1145.4 107.76 1146.5 244.05 1147.59 358.95 1148.68 396.56 1149.77 338.56 1150.86 213.14 1151.96 81.28 1153.05 7.12 1154.14 26.75 1155.23 130.65 1156.32 268.31 1157.42 372.78 1158.51 393.23 1159.6 319.69 1160.69 187.9 1161.78 61.94 1162.88 3.09 1163.97 40 1165.06 154.73 1166.15 291.52 1167.24 383.83 1168.33 386.74 1169.43 298.81 1170.52 162.79 1171.61 44.81 1172.7 2.27 1173.79 55.89 1174.89 179.62 1175.98 313.29 1177.07 391.9 1178.16 377.18 1179.25 276.26 1180.35 138.21 1181.44 30.16 1182.53 4.68 1183.62 74.19 1185.81 333.28 1186.9 396.85 1187.99 364.68 1189.08 252.39 1190.17 114.57 1191.26 18.31 1192.36 10.26 1193.45 94.5 1194.54 230.07 1195.63 351.06 1196.72 398.59 1197.82 349.54 1198.91 227.73 1200 92.38"/></g><g><text class="svg-plot-label svg-plot-t" x="0" y="0" transform="rotate(-90) translate(-199.1 -20.87)">signal</text><text class="svg-plot-value" style="text-anchor:end" x="-5" y="172.203">1</text><text class="svg-plot-value" style="text-anchor:end" x="-5" y="225.968">-1</text><text class="svg-plot-value" style="text-anchor:end" x="-5" y="199.085">0</text><text class="svg-plot-label svg-plot-t" x="600" y="424.1">time</text><text class="svg-plot-value" x="1187.99" y="408.6">1088</text><text class="svg-plot-value" x="0" y="408.6">0</text><text class="svg-plot-value" x="1153.05" y="408.6">1056</text><text class="svg-plot-value" x="0" y="408.6">0</text><text class="svg-plot-value" x="1118.11" y="408.6">1024</text><text class="svg-plot-value" x="0" y="408.6">0</text><text class="svg-plot-value" x="1083.17" y="408.6">992</text><text class="svg-plot-value" x="0" y="408.6">0</text><text class="svg-plot-value" x="1048.23" y="408.6">960</text><text class="svg-plot-value" x="0" y="408.6">0</text><text class="svg-plot-value" x="1013.28" y="408.6">928</text><text class="svg-plot-value" x="0" y="408.6">0</text><text class="svg-plot-value" x="978.344" y="408.6">896</text><text class="svg-plot-value" x="0" y="408.6">0</text><text class="svg-plot-value" x="943.403" y="408.6">864</text><text class="svg-plot-value" x="0" y="408.6">0</text><text class="svg-plot-value" x="908.462" y="408.6">832</text><text class="svg-plot-value" x="0" y="408.6">0</text><text class="svg-plot-value" x="873.521" y="408.6">800</text><text class="svg-plot-value" x="0" y="408.6">0</text><text class="svg-plot-value" x="838.581" y="408.6">768</text><text class="svg-plot-value" x="0" y="408.6">0</text><text class="svg-plot-value" x="803.64" y="408.6">736</text><text class="svg-plot-value" x="0" y="408.6">0</text><text class="svg-plot-value" x="768.699" y="408.6">704</text><text class="svg-plot-value" x="0" y="408.6">0</text><text class="svg-plot-value" x="733.758" y="408.6">672</text><text class="svg-plot-value" x="0" y="408.6">0</text><text class="svg-plot-value" x="698.817" y="408.6">640</text><text class="svg-plot-value" x="0" y="408.6">0</text><text class="svg-plot-value" x="663.876" y="408.6">608</text><text class="svg-plot-value" x="0" y="408.6">0</text><text class="svg-plot-value" x="628.935" y="408.6">576</text><text class="svg-plot-value" x="0" y="408.6">0</text><text class="svg-plot-value" x="593.995" y="408.6">544</text><text class="svg-plot-value" x="0" y="408.6">0</text><text class="svg-plot-value" x="559.054" y="408.6">512</text><text class="svg-plot-value" x="0" y="408.6">0</text><text class="svg-plot-value" x="524.113" y="408.6">480</text><text class="svg-plot-value" x="0" y="408.6">0</text><text class="svg-plot-value" x="489.172" y="408.6">448</text><text class="svg-plot-value" x="0" y="408.6">0</text><text class="svg-plot-value" x="454.231" y="408.6">416</text><text class="svg-plot-value" x="0" y="408.6">0</text><text class="svg-plot-value" x="419.29" y="408.6">384</text><text class="svg-plot-value" x="0" y="408.6">0</text><text class="svg-plot-value" x="384.349" y="408.6">352</text><text class="svg-plot-value" x="0" y="408.6">0</text><text class="svg-plot-value" x="349.409" y="408.6">320</text><text class="svg-plot-value" x="0" y="408.6">0</text><text class="svg-plot-value" x="314.468" y="408.6">288</text><text class="svg-plot-value" x="0" y="408.6">0</text><text class="svg-plot-value" x="279.527" y="408.6">256</text><text class="svg-plot-value" x="0" y="408.6">0</text><text class="svg-plot-value" x="244.586" y="408.6">224</text><text class="svg-plot-value" x="0" y="408.6">0</text><text class="svg-plot-value" x="209.645" y="408.6">192</text><text class="svg-plot-value" x="0" y="408.6">0</text><text class="svg-plot-value" x="174.704" y="408.6">160</text><text class="svg-plot-value" x="0" y="408.6">0</text><text class="svg-plot-value" x="139.763" y="408.6">128</text><text class="svg-plot-value" x="0" y="408.6">0</text><text class="svg-plot-value" x="104.823" y="408.6">96</text><text class="svg-plot-value" x="0" y="408.6">0</text><text class="svg-plot-value" x="69.8817" y="408.6">64</text><text class="svg-plot-value" x="0" y="408.6">0</text><text class="svg-plot-value" x="34.9409" y="408.6">32</text><text class="svg-plot-value" x="0" y="408.6">0</text><text class="svg-plot-value" x="0" y="408.6">0</text><text class="svg-plot-value" x="0" y="408.6">0</text><text class="svg-plot-label svg-plot-t0" style="text-anchor:start" x="1203" y="91.1784">stuff7</text></g><defs><g id="svg-plot-marker0" class="svg-plot-marker"><circle cx="0" cy="0" r="1" stroke="none"/></g><g id="svg-plot-marker1" class="svg-plot-marker"><path d="M0 0.9 -0.9 0 0 -0.9 0.9 0Z" fill="#FFFA" stroke-linejoin="miter" stroke-width="0.6"/></g><g id="svg-plot-marker2" class="svg-plot-marker"><path fill="none" d="M0 -1.2 0 1.2 M -1.2 0 1.2 0" stroke-width="0.7"/></g><g id="svg-plot-marker3" class="svg-plot-marker"><circle cx="0" cy="0" fill="#FFFA" r="0.8" stroke-width="0.65"/></g><g id="svg-plot-marker4" class="svg-plot-marker"><path stroke="none" d="M0 -1.25 1.25 0.9 -1.25 0.9Z"/></g><mask id="svg-plot-hatch0"><rect x="-1754" y="-1754" width="3508" height="3508" fill="url(#svg-plot-hatch0-pattern)" style="transform:rotate(30deg)"/></mask><pattern patternUnits="userSpaceOnUse" id="svg-plot-hatch0-pattern" class="svg-plot-hatch" x="0" y="0" width="10" height="2.4" stroke="#FFF" fill="none"><line x1="-1" x2="11" y1="1.2" y2="1.2"/></pattern><mask id="svg-plot-hatch1"><rect x="-1754" y="-1754" width="3508" height="3508" fill="url(#svg-plot-hatch1-pattern)" style="transform:rotate(-50deg)"/></mask><pattern patternUnits="userSpaceOnUse" id="svg-plot-hatch1-pattern" class="svg-plot-hatch" x="0" y="0" width="10" height="3" stroke="#FFF" fill="none"><line x1="-1" x2="11" y1="1.5" y2="1.5"/></pattern><mask id="svg-plot-hatch3"><rect x="-1754" y="-1754" width="3508" height="3508" fill="url(#svg-plot-hatch3-pattern)" style="transform:rotate(8deg)"/><rect x="-1754" y="-1754" width="3508" height="3508" fill="url(#svg-plot-hatch3-pattern)" style="transform:rotate(93deg)"/></mask><pattern patternUnits="userSpaceOnUse" id="svg-plot-hatch3-pattern" class="svg-plot-hatch" x="0" y="0" width="10" height="3" stroke="#FFF" fill="none"><line x1="-1" x2="11" y1="1.5" y2="1.5"/></pattern></defs><style>.svg-plot{stroke-linecap:butt;stroke-linejoin:round;}.svg-plot-bg{fill:none;stroke:none;}.svg-plot-axis{stroke:none;fill:#FFFFFFD9;}.svg-plot-legend{stroke:none;fill:#FFFFFFE4;}.svg-plot-line{stroke:blue;fill:none;stroke-width:1px;stroke-linejoin:round;}.svg-plot-fill{stroke:none;opacity:0.6;}.svg-plot-major{stroke:#000;stroke-width:1px;stroke-linecap:square;fill:none;}.svg-plot-minor{stroke:#0000004D;stroke-width:0.5px;stroke-dasharray:0.5 1.5;stroke-linecap:round;fill:none;}.svg-plot-tick{stroke:#000;fill:none;stroke-width:1px;stroke-linecap:butt;}.svg-plot-value,.svg-plot-label{font-family:Arial,sans-serif;fill:#000;stroke:#FFFFFF48;stroke-width:2.5px;paint-order:stroke fill;text-anchor:middle;dominant-baseline:central;alignment-baseline:baseline;}.svg-plot-label{font-size:12px;}.svg-plot-value{font-size:9px;}.svg-plot-hatch{stroke:#FFF;stroke-width:1px;}.svg-plot-marker{transform:scale(3.25);}.svg-plot-s{stroke:#000;}.svg-plot-f,.svg-plot-t{fill:#000;}.svg-plot-s0{stroke:#CC0000}.svg-plot-f0,.svg-plot-t0{fill:#CC0000}.svg-plot-s1{stroke:#0073E6}.svg-plot-f1,.svg-plot-t1{fill:#0073E6}.svg-plot-s2{stroke:#00B300}.svg-plot-f2,.svg-plot-t2{fill:#00B300}.svg-plot-s3{stroke:#806600}.svg-plot-f3,.svg-plot-t3{fill:#806600}.svg-plot-s4{stroke:#E69900}.svg-plot-f4,.svg-plot-t4{fill:#E69900}.svg-plot-s5{stroke:#CC00CC}.svg-plot-f5,.svg-plot-t5{fill:#CC00CC}.svg-plot-d0{stroke-width:0.9px}.svg-plot-d1{stroke-dasharray:2.8 1.6}.svg-plot-d2{stroke-dasharray:1.2 1.2}.svg-plot-d3{stroke-dasharray:5 4}.svg-plot-d4{stroke-dasharray:4 1 1 1 1 1}.svg-plot-d5{stroke-dasharray:10 3}.svg-plot-d6{stroke-dasharray:4 2 1 2}.svg-plot-h0{mask:url(#svg-plot-hatch0)}.svg-plot-h1{mask:url(#svg-plot-hatch1)}.svg-plot-h2{opacity:0.2}.svg-plot-h3{mask:url(#svg-plot-hatch3)}#svg-plot-hatch0-pattern{stroke-width:0.9px}#svg-plot-hatch3-pattern{stroke-width:0.7px}.svg-plot-value,.svg-plot-label{font-family:Verdana,sans-serif;}.svg-plot-axis{fill:#EEE;}.svg-plot-tick{stroke:#666;stroke-width:0.75px;}.svg-plot-value{fill:#666;opacity:0.8;font-weight:bold;}.svg-plot-major{stroke:#FFF;stroke-width:1.5px;}.svg-plot-minor{stroke:#FFF;stroke-width:0.75px;stroke-dasharray:none;}</style><script>var q=document,x=setTimeout,a=Math.random,r=q.querySelector(&quot;style&quot;);r.textContent='@import &quot;/style/article/dist.css&quot;;'+r.textContent+'.svg-plot-value,.svg-plot-label{font-family:&quot;Geraint Dense&quot;,Arial,sans-serif}';var t=[];q.querySelectorAll(&quot;path&quot;).forEach(function(e){var y=e.getAttribute(&quot;d&quot;);t.push(function(){var f=40*a(),u=!0,g=2*(a()-.5),h=2*(a()-.5),k=2*(a()-.5),l=2*(a()-.5),m,n,B=y.replace(/([0-9\.]+) ([0-9\.]+)/g,function(C,z,A){function p(b,c){b=parseFloat(b);c=parseFloat(c);if(!u){var d=b-m,v=c-n;d=Math.sqrt(d*
		d+v*v);if(20&lt;d)return p(.5*(m+b),.5*(n+c)),p(b,c);f+=d;40&lt;f&amp;&amp;(f=0,g=h,k=l,h=2*(a()-.5),l=2*(a()-.5))}u=!1;m=b;n=c;d=f/40;b+=g+(h-g)*d;c+=k+(l-k)*d;result+=&quot; &quot;+b+&quot; &quot;+c}result=&quot;&quot;;p(z,A);return result});e.setAttribute(&quot;d&quot;,B)})});var w=function(){t.forEach(function(e){e()});x(w,240*(.9+.2*a()))};w()
		</script></svg>