<?xml version="1.0" encoding="utf-8" standalone="no"?>
<!DOCTYPE svg PUBLIC "-//W3C//DTD SVG 1.1//EN" "http://www.w3.org/Graphics/SVG/1.1/DTD/svg11.dtd">
<svg version="1.1" class="svg-plot" xmlns="http://www.w3.org/2000/svg" width="1285.33pt" height="449.5pt" viewBox="-35.37 -10 1285.33 449.5" preserveAspectRatio="xMidYMid"><rect x="-25.37" y="0" width="1265.33" height="429.5" class="svg-plot-bg"/><rect x="0" y="0" width="1200" height="400" class="svg-plot-axis"/><line x1="0" x2="0" y1="0" y2="400" class="svg-plot-major"/><line x1="0" x2="0" y1="0" y2="400" class="svg-plot-major"/><line x1="0" x2="0" y1="0" y2="400" class="svg-plot-major"/><line x1="0" x2="0" y1="0" y2="400" class="svg-plot-major"/><line x1="0" x2="0" y1="0" y2="400" class="svg-plot-major"/><line x1="0" x2="0" y1="0" y2="400" class="svg-plot-major"/><line x1="0" x2="0" y1="0" y2="400" class="svg-plot-major"/><line x1="0" x2="0" y1="0" y2="400" class="svg-plot-major"/><line x1="0" x2="0" y1="0" y2="400" class="svg-plot-major"/><line x1="0" x2="0" y1="0" y2="400" class="svg-plot-major"/><line x1="0" x2="0" y1="0" y2="400" class="svg-plot-major"/><line x1="0" x2="0" y1="0" y2="400" class="svg-plot-major"/><line x1="0" x2="0" y1="0" y2="400" class="svg-plot-major"/><line x1="0" x2="0" y1="0" y2="400" class="svg-plot-major"/><line x1="0" x2="0" y1="0" y2="400" class="svg-plot-major"/><line x1="0" x2="0" y1="0" y2="400" class="svg-plot-major"/><line x1="0" x2="0" y1="0" y2="400" class="svg-plot-major"/><line x1="0" x2="0" y1="0" y2="400" class="svg-plot-major"/><line x1="0" x2="0" y1="0" y2="400" class="svg-plot-major"/><line x1="0" x2="0" y1="0" y2="400" class="svg-plot-major"/><line x1="0" x2="0" y1="0" y2="400" class="svg-plot-major"/><line x1="0" x2="0" y1="0" y2="400" class="svg-plot-major"/><line x1="0" x2="0" y1="0" y2="400" class="svg-plot-major"/><line x1="0" x2="0" y1="0" y2="400" class="svg-plot-major"/><line x1="0" x2="0" y1="0" y2="400" class="svg-plot-major"/><line x1="0" x2="0" y1="0" y2="400" class="svg-plot-major"/><line x1="0" x2="0" y1="0" y2="400" class="svg-plot-major"/><line x1="0" x2="0" y1="0" y2="400" class="svg-plot-major"/><line x1="0" x2="0" y1="0" y2="400" class="svg-plot-major"/><line x1="0" x2="0" y1="0" y2="400" class="svg-plot-major"/><line x1="0" x2="0" y1="0" y2="400" class="svg-plot-major"/><line x1="0" x2="0" y1="0" y2="400" class="svg-plot-major"/><line x1="0" x2="0" y1="0" y2="400" class="svg-plot-major"/><line x1="0" x2="0" y1="0" y2="400" class="svg-plot-major"/><line x1="0" x2="0" y1="0" y2="400" class="svg-plot-major"/><line x1="0" x2="1200" y1="197.778" y2="197.778" class="svg-plot-major"/><line x1="0" x2="1200" y1="249.088" y2="249.088" class="svg-plot-minor"/><line x1="0" x2="1200" y1="146.469" y2="146.469" class="svg-plot-minor"/><clipPath id="clip0"><rect x="-0.5" y="-0.5" width="1201" height="401"/></clipPath><g clip-path="url(#clip0)"><path class="svg-plot-line svg-plot-s0 svg-plot-d0" d="M 0 249.09 1.09 243.57 2.18 243.06 3.28 247.06 4.37 254.35 5.46 263.44 6.55 272.99 7.64 282.11 8.74 290.4 9.83 297.81 10.92 304.38 12.01 310.01 13.1 314.39 14.19 317.04 15.29 317.59 16.38 316.04 17.47 312.91 18.56 309.25 19.65 306.38 20.75 305.5 21.84 307.32 22.93 311.75 25.11 324.03 26.21 328.61 27.3 330.16 28.39 328.01 29.48 322.4 30.57 314.45 31.67 305.78 32.76 298.13 33.85 292.91 34.94 290.98 36.03 292.49 37.12 297.09 38.22 304.12 39.31 312.83 40.4 322.54 42.58 342.6 43.68 351.75 44.77 359.33 45.86 364.54 46.95 366.68 48.04 365.4 49.14 360.83 50.23 353.68 52.41 336.47 53.5 328.96 54.6 323.35 55.69 319.82 56.78 318.02 57.87 317.21 58.96 316.63 60.05 315.75 61.15 314.44 62.24 312.99 63.33 311.94 64.42 311.79 65.51 312.82 66.61 314.93 68.79 320.37 69.88 322.54 70.97 323.94 72.07 324.74 73.16 325.44 74.25 326.66 75.34 328.86 76.43 332.09 77.53 335.92 78.62 339.58 79.71 342.18 80.8 343.1 81.89 342.27 82.98 340.25 84.08 338.12 85.17 337.17 86.26 338.39 87.35 342.19 88.44 348.1 89.54 354.91 90.63 360.98 91.72 364.74 92.81 365.2 93.9 362.3 95 357 96.09 350.98 97.18 346.2 98.27 344.3 99.36 346.1 100.45 351.39 101.55 358.97 102.64 366.97 103.73 373.43 104.82 376.81 105.91 376.35 107.01 372.24 108.1 365.5 109.19 357.61 110.28 350.09 111.37 344.19 112.47 340.59 113.56 339.41 114.65 340.28 115.74 342.6 116.83 345.65 117.93 348.8 119.02 351.51 120.11 353.31 121.2 353.83 122.29 352.75 123.38 349.86 124.48 345.24 125.57 339.22 126.66 332.51 127.75 326.03 128.84 320.78 129.94 317.52 131.03 316.64 132.12 317.99 133.21 320.96 134.3 324.63 135.4 328.11 136.49 330.73 137.58 332.29 138.67 333.05 139.76 333.57 140.86 334.48 141.95 336.23 143.04 338.92 144.13 342.26 145.22 345.71 146.31 348.72 147.41 350.88 148.5 352.14 149.59 352.75 150.68 353.17 151.77 353.87 152.87 355.12 153.96 356.87 155.05 358.79 156.14 360.4 157.23 361.23 158.33 361.03 159.42 359.78 160.51 357.71 161.6 355.19 162.69 352.55 163.79 349.98 164.88 347.56 165.97 345.25 167.06 343.05 168.15 341.05 169.24 339.45 170.34 338.43 171.43 338 172.52 337.91 173.61 337.58 174.7 336.21 175.8 333.13 176.89 328.02 177.98 321.28 179.07 314.04 180.16 307.98 181.26 304.9 182.35 306.19 183.44 312.27 184.53 322.4 185.62 334.75 186.72 346.8 187.81 356.06 188.9 360.73 189.99 360.18 191.08 355.09 192.17 347.16 193.27 338.57 194.36 331.27 195.45 326.43 196.54 324.24 197.63 323.98 198.73 324.42 199.82 324.35 200.91 323.04 202 320.37 203.09 316.78 204.19 312.92 205.28 309.28 206.37 305.89 207.46 302.29 208.55 297.82 209.65 291.96 210.74 284.75 211.83 276.96 212.92 270.01 214.01 265.57 215.1 264.96 216.2 268.71 217.29 276.21 219.47 295.74 220.56 303.72 221.66 308.65 222.75 310.46 223.84 310.13 224.93 309.26 226.02 309.4 227.12 311.41 228.21 315.03 229.3 318.92 230.39 321.13 231.48 319.77 232.58 313.79 233.67 303.48 235.85 277.45 236.94 267.2 238.03 261.92 239.13 262.49 240.22 268.23 241.31 277.11 242.4 286.38 243.49 293.41 244.59 296.47 245.68 295.12 246.77 290.32 247.86 283.98 248.95 278.4 250.05 275.52 251.14 276.42 252.23 281.11 253.32 288.62 254.41 297.37 255.51 305.63 256.6 311.97 257.69 315.49 258.78 315.9 259.87 313.4 260.96 308.48 262.06 301.69 263.15 293.54 264.24 284.46 266.42 265.06 267.52 255.59 268.61 246.9 269.7 239.42 270.79 233.4 271.88 228.86 272.98 225.61 274.07 223.3 275.16 221.57 276.25 220.22 277.34 219.24 278.43 218.85 279.53 219.38 280.62 221.11 281.71 224.1 282.8 228.09 283.89 232.49 284.99 236.53 286.08 239.45 287.17 240.71 288.26 240.18 289.35 238.18 290.45 235.34 291.54 232.43 292.63 230.05 293.72 228.46 294.81 227.49 295.91 226.58 297 225.05 298.09 222.34 299.18 218.32 300.27 213.35 301.36 208.26 302.46 204.11 303.55 201.81 304.64 201.79 305.73 203.82 306.82 206.97 307.92 209.88 309.01 211.15 310.1 209.83 311.19 205.69 312.28 199.38 313.38 192.24 314.47 185.93 315.56 181.91 316.65 181.03 317.74 183.27 318.84 187.83 319.93 193.44 321.02 198.79 322.11 203 323.2 205.87 324.29 207.91 325.39 210.06 326.48 213.28 327.57 218.12 328.66 224.47 329.75 231.5 330.85 237.92 331.94 242.41 333.03 243.99 334.12 242.3 335.21 237.69 336.31 230.97 337.4 223.11 339.58 206.42 340.67 197.71 341.77 188.32 342.86 177.94 345.04 155.35 346.13 145.01 347.22 137.03 348.32 132.46 349.41 131.72 350.5 134.34 351.59 139.08 352.68 144.27 353.78 148.24 354.87 149.84 355.96 148.71 357.05 145.32 358.14 140.76 359.24 136.31 360.33 133.06 361.42 131.54 362.51 131.62 364.7 133.65 365.79 133.78 366.88 132.5 367.97 129.74 369.06 125.95 370.15 121.92 371.25 118.58 372.34 116.8 373.43 117.19 374.52 119.98 375.61 124.94 376.71 131.42 377.8 138.4 378.89 144.63 379.98 148.89 381.07 150.21 382.17 148.2 383.26 143.18 384.35 136.19 385.44 128.79 386.53 122.63 387.63 118.95 388.72 118.18 389.81 119.7 390.9 121.96 391.99 123 393.08 121.06 394.18 115.28 395.27 106.11 396.36 95.28 397.45 85.36 398.54 78.96 399.64 77.87 400.73 82.42 401.82 91.34 402.91 102.17 404 112.03 405.1 118.66 406.19 121.19 407.28 120.43 408.37 118.58 409.46 118.38 410.56 122.07 411.65 130.52 412.74 142.76 413.83 156.22 414.92 167.54 416.01 173.63 417.11 172.72 418.2 164.86 419.29 151.92 420.38 136.91 421.47 122.94 422.57 112.26 423.66 105.63 424.75 102.23 425.84 100.2 426.93 97.41 428.03 92.35 429.12 84.61 430.21 75 431.3 65.05 432.39 56.4 433.48 50.09 434.58 46.2 435.67 43.9 436.76 41.88 437.85 39 438.94 34.83 440.04 29.9 441.13 25.48 442.22 23.15 443.31 24.07 444.4 28.53 445.5 35.75 446.59 44.1 447.68 51.68 448.77 56.94 449.86 59.17 450.96 58.74 453.14 54.86 454.23 54.17 455.32 55.3 456.41 58.03 457.51 61.52 458.6 64.74 459.69 66.94 460.78 67.94 461.87 68.16 462.97 68.42 464.06 69.51 465.15 71.87 466.24 75.39 467.33 79.49 468.43 83.35 469.52 86.32 470.61 88.12 471.7 88.95 472.79 89.36 473.89 89.87 474.98 90.73 476.07 91.74 477.16 92.25 478.25 91.47 479.34 88.79 480.44 84.11 481.53 77.88 482.62 71.01 483.71 64.48 484.8 58.96 485.9 54.55 486.99 50.68 488.08 46.44 489.17 40.91 490.26 33.72 492.45 16.7 493.54 9.73 494.63 6.03 495.72 6.71 496.82 12 497.91 21.16 499 32.67 500.09 44.75 501.18 55.78 502.27 64.65 503.37 70.92 504.46 74.71 505.55 76.41 506.64 76.48 507.73 75.21 508.83 72.84 509.92 69.56 511.01 65.76 512.1 62.06 513.19 59.22 514.29 57.88 515.38 58.31 516.47 60.18 517.56 62.59 518.65 64.25 519.75 63.99 520.84 61.12 521.93 55.82 523.02 49.11 524.11 42.58 525.2 37.9 526.3 36.22 527.39 37.77 528.48 41.78 529.57 46.67 530.66 50.62 531.76 52.09 532.85 50.31 533.94 45.4 535.03 38.25 536.12 30.15 537.22 22.3 538.31 15.48 539.4 9.98 540.49 5.73 541.58 2.55 542.68 0.51 543.77 0 544.86 1.68 545.95 6.13 547.04 13.54 548.13 23.42 549.23 34.56 550.32 45.31 551.41 53.99 552.5 59.39 553.59 61.14 554.69 59.78 555.78 56.54 556.87 52.95 557.96 50.29 559.05 49.34 560.15 50.2 561.24 52.45 562.33 55.51 563.42 58.92 564.51 62.54 565.61 66.57 566.7 71.31 567.79 76.88 569.97 89.29 571.06 94.72 572.16 98.72 573.25 101.06 574.34 102.09 575.43 102.61 576.52 103.54 577.62 105.49 578.71 108.38 579.8 111.42 580.89 113.28 581.98 112.62 583.08 108.68 584.17 101.66 586.35 83.95 587.44 77.1 588.54 73.49 589.63 73.12 590.72 74.71 591.81 76.04 592.9 74.73 593.99 69.1 595.09 58.86 596.18 45.26 597.27 30.79 598.36 18.36 599.45 10.41 600.55 8.14 601.64 11.11 602.73 17.57 603.82 25.05 604.91 31.27 606.01 34.88 607.1 35.86 608.19 35.37 609.28 35.19 610.37 37.02 611.46 41.78 612.56 49.31 614.74 67.58 615.83 75.12 616.92 80.22 618.02 82.91 619.11 84.04 620.2 84.88 621.29 86.59 622.38 89.79 623.48 94.44 625.66 105.5 626.75 110.53 627.84 114.87 628.94 118.84 630.03 122.98 631.12 127.71 633.3 138.24 634.39 142.39 635.49 144.31 636.58 143.26 637.67 139.18 638.76 132.88 639.85 125.79 640.95 119.55 642.04 115.5 643.13 114.26 644.22 115.56 645.31 118.43 646.41 121.55 647.5 123.74 648.59 124.36 649.68 123.47 650.77 121.73 651.87 120.08 652.96 119.31 654.05 119.78 655.14 121.25 656.23 123.03 657.32 124.28 658.42 124.27 659.51 122.77 660.6 120.03 661.69 116.72 662.78 113.72 663.88 111.76 664.97 111.27 666.06 112.28 667.15 114.51 668.24 117.51 669.34 120.9 672.61 131.37 673.7 134.68 674.8 137.59 675.89 139.75 676.98 140.77 678.07 140.44 679.16 138.86 681.35 134.21 682.44 132.88 683.53 133.31 684.62 135.95 685.71 140.72 686.81 147.07 687.9 154.1 688.99 160.8 690.08 166.34 691.17 170.22 692.27 172.33 693.36 172.94 694.45 172.52 695.54 171.62 696.63 170.69 697.73 170.03 698.82 169.81 699.91 170.1 701 170.9 702.09 172.23 703.18 174.08 704.28 176.4 705.37 179.06 706.46 181.81 707.55 184.36 708.64 186.35 709.74 187.51 710.83 187.69 711.92 186.92 713.01 185.42 715.2 181.59 716.29 180.07 717.38 179.23 718.47 179.27 719.56 180.22 720.66 182.01 721.75 184.45 722.84 187.31 723.93 190.3 725.02 193.17 726.11 195.72 727.21 197.81 728.3 199.42 729.39 200.59 730.48 201.45 732.67 202.85 733.76 203.7 734.85 204.83 735.94 206.37 737.03 208.43 738.13 211.13 739.22 214.52 740.31 218.55 742.49 227.52 743.59 231.52 744.68 234.43 745.77 235.78 746.86 235.35 747.95 233.33 749.04 230.26 750.14 226.99 751.23 224.44 752.32 223.39 753.41 224.26 754.5 227.02 755.6 231.26 756.69 236.33 757.78 241.62 758.87 246.69 759.96 251.41 761.06 255.88 762.15 260.25 763.24 264.48 764.33 268.24 765.42 270.84 766.52 271.48 767.61 269.54 768.7 264.95 769.79 258.37 770.88 251.21 771.97 245.32 773.07 242.47 774.16 243.79 775.25 249.26 776.34 257.66 777.43 266.71 778.53 273.75 779.62 276.45 780.71 273.58 781.8 265.29 782.89 253.32 783.99 240.39 785.08 229.43 786.17 222.79 787.26 221.53 788.35 225.19 789.44 231.99 790.54 239.47 791.63 245.27 792.72 247.94 793.81 247.3 794.9 244.49 796 241.53 797.09 240.61 798.18 243.4 799.27 250.49 800.36 261.22 802.55 286.44 803.64 296.83 804.73 303.84 805.82 307.21 806.92 307.64 808.01 306.42 809.1 304.9 810.19 304.07 811.28 304.26 813.47 306.11 814.56 306.37 815.65 305.66 816.74 304.27 817.83 303.09 818.93 303.28 820.02 305.9 821.11 311.43 822.2 319.56 823.29 329.13 824.39 338.43 825.48 345.63 826.57 349.34 827.66 348.97 828.75 344.9 829.85 338.39 830.94 331.14 832.03 324.8 833.12 320.5 834.21 318.55 835.3 318.43 836.4 319.03 837.49 319.11 838.58 317.73 839.67 314.59 840.76 310.11 841.86 305.25 842.95 301.18 844.04 298.82 845.13 298.56 846.22 300.13 847.32 302.76 848.41 305.53 849.5 307.72 850.59 309.11 851.68 310.09 852.78 311.48 853.87 314.13 854.96 318.5 856.05 324.39 857.14 330.8 858.23 336.19 859.33 338.91 860.42 337.78 861.51 332.47 862.6 323.77 863.69 313.35 864.79 303.39 865.88 295.9 866.97 292.2 868.06 292.57 869.15 296.23 870.25 301.68 871.34 307.24 872.43 311.59 873.52 314.17 874.61 315.32 875.71 316.01 876.8 317.46 877.89 320.63 878.98 325.8 880.07 332.52 881.16 339.66 882.26 345.88 883.35 350.01 884.44 351.49 885.53 350.51 886.62 347.98 887.72 345.23 888.81 343.63 889.9 344.21 890.99 347.42 892.08 353.07 893.18 360.45 894.27 368.55 895.36 376.3 896.45 382.8 897.54 387.41 898.64 389.82 899.73 390.01 900.82 388.2 901.91 384.82 903 380.42 904.09 375.61 905.19 370.99 906.28 366.97 907.37 363.69 909.55 358.24 910.65 354.9 911.74 350.36 912.83 344.39 913.92 337.35 915.01 330.16 916.11 324.15 917.2 320.76 918.29 321.05 919.38 325.38 920.47 333.12 922.66 352.36 923.75 359.65 924.84 363.02 925.93 361.71 927.02 356.06 928.12 347.39 929.21 337.61 930.3 328.76 931.39 322.46 932.48 319.55 933.58 320.04 934.67 323.15 935.76 327.69 936.85 332.42 937.94 336.36 939.04 339.01 940.13 340.31 941.22 340.54 942.31 340.12 943.4 339.33 944.49 338.26 945.59 336.77 946.68 334.57 947.77 331.43 948.86 327.32 951.05 317.74 952.14 313.74 953.23 311.44 954.32 311.53 955.41 314.31 956.51 319.57 957.6 326.63 958.69 334.46 959.78 341.95 960.87 348.22 961.97 352.84 963.06 355.99 964.15 358.39 965.24 361.08 966.33 365.08 967.42 370.98 968.52 378.64 969.61 387.1 970.7 394.73 971.79 399.59 972.88 400 973.98 395.03 975.07 384.88 976.16 370.97 977.25 355.65 978.34 341.65 979.44 331.45 980.53 326.6 981.62 327.37 982.71 332.69 984.9 348.06 985.99 353.14 987.08 354.07 988.17 350.28 989.26 342.33 990.35 331.59 991.45 319.84 992.54 308.8 993.63 299.74 994.72 293.34 995.81 289.69 996.91 288.43 998 289 999.09 290.78 1000.18 293.29 1001.27 296.17 1002.37 299.22 1003.46 302.37 1004.55 305.62 1005.64 309.06 1006.73 312.8 1007.83 316.94 1010.01 325.96 1011.1 329.94 1012.19 332.44 1013.28 332.47 1014.38 329.14 1015.47 322.07 1016.56 311.63 1018.74 286.29 1019.84 275.65 1020.93 269.28 1022.02 268.58 1023.11 273.85 1024.2 284.19 1025.3 297.67 1026.39 311.85 1027.48 324.35 1028.57 333.39 1029.66 338.12 1030.76 338.66 1031.85 335.85 1032.94 330.88 1034.03 324.83 1036.21 312.12 1037.31 305.87 1038.4 299.74 1039.49 293.95 1040.58 288.97 1041.67 285.44 1042.77 283.9 1043.86 284.52 1044.95 286.9 1046.04 290.05 1047.13 292.61 1048.23 293.27 1049.32 291.18 1050.41 286.26 1051.5 279.34 1052.59 271.92 1053.69 265.81 1054.78 262.58 1055.87 263.15 1056.96 267.55 1058.05 274.92 1059.14 283.78 1060.24 292.44 1061.33 299.4 1062.42 303.64 1063.51 304.7 1064.6 302.62 1065.7 297.76 1066.79 290.55 1067.88 281.46 1068.97 270.93 1070.06 259.44 1071.16 247.67 1072.25 236.5 1073.34 226.92 1074.43 219.9 1075.52 216.1 1076.62 215.67 1077.71 218.19 1078.8 222.7 1079.89 228 1080.98 232.91 1082.07 236.61 1083.17 238.84 1084.26 239.85 1085.35 240.27 1086.44 240.79 1087.53 241.88 1088.63 243.64 1089.72 245.78 1090.81 247.72 1091.9 248.91 1092.99 249.03 1094.09 248.12 1096.27 245.05 1097.36 243.99 1098.45 243.66 1099.55 243.88 1100.64 244.13 1101.73 243.76 1102.82 242.29 1103.91 239.61 1106.1 232.67 1107.19 230.11 1108.28 229.18 1109.37 230.02 1110.46 232.14 1111.56 234.44 1112.65 235.6 1113.74 234.47 1114.83 230.53 1115.92 224.09 1117.02 216.28 1118.11 208.74 1119.2 203.15 1120.29 200.65 1121.38 201.52 1122.47 204.99 1123.57 209.46 1124.66 212.97 1125.75 213.75 1126.84 210.74 1127.93 203.93 1129.03 194.3 1130.12 183.58 1131.21 173.75 1132.3 166.49 1133.39 162.77 1134.49 162.7 1135.58 165.52 1136.67 169.97 1137.76 174.61 1138.85 178.2 1139.95 179.95 1141.04 179.59 1142.13 177.25 1143.22 173.4 1144.31 168.58 1145.4 163.37 1146.5 158.3 1147.59 153.87 1148.68 150.59 1149.77 148.94 1150.86 149.29 1151.96 151.77 1153.05 156.18 1154.14 161.92 1155.23 168.1 1156.32 173.71 1157.42 177.85 1158.51 180 1159.6 180.12 1160.69 178.66 1161.78 176.42 1162.88 174.23 1163.97 172.73 1165.06 172.13 1166.15 172.21 1167.24 172.45 1168.33 172.18 1169.43 170.95 1170.52 168.6 1171.61 165.35 1172.7 161.71 1173.79 158.21 1174.89 155.27 1175.98 152.97 1178.16 149.16 1179.25 146.76 1180.35 143.59 1181.44 139.67 1183.62 131.01 1184.71 127.25 1185.81 124.36 1186.9 122.42 1187.99 121.28 1189.08 120.66 1190.17 120.28 1191.26 119.99 1192.36 119.72 1193.45 119.5 1194.54 119.3 1195.63 119 1196.72 118.37 1197.82 117.19 1198.91 115.43 1200 113.36"/></g><g><text class="svg-plot-label svg-plot-t" x="0" y="0" transform="rotate(-90) translate(-199.1 -20.87)">signal</text><text class="svg-plot-value" style="text-anchor:end" x="-5" y="145.569">1</text><text class="svg-plot-value" style="text-anchor:end" x="-5" y="248.188">-1</text><text class="svg-plot-value" style="text-anchor:end" x="-5" y="196.878">0</text><text class="svg-plot-label svg-plot-t" x="600" y="424.1">time</text><text class="svg-plot-value" x="1187.99" y="408.6">1088</text><text class="svg-plot-value" x="0" y="408.6">0</text><text class="svg-plot-value" x="1153.05" y="408.6">1056</text><text class="svg-plot-value" x="0" y="408.6">0</text><text class="svg-plot-value" x="1118.11" y="408.6">1024</text><text class="svg-plot-value" x="0" y="408.6">0</text><text class="svg-plot-value" x="1083.17" y="408.6">992</text><text class="svg-plot-value" x="0" y="408.6">0</text><text class="svg-plot-value" x="1048.23" y="408.6">960</text><text class="svg-plot-value" x="0" y="408.6">0</text><text class="svg-plot-value" x="1013.28" y="408.6">928</text><text class="svg-plot-value" x="0" y="408.6">0</text><text class="svg-plot-value" x="978.344" y="408.6">896</text><text class="svg-plot-value" x="0" y="408.6">0</text><text class="svg-plot-value" x="943.403" y="408.6">864</text><text class="svg-plot-value" x="0" y="408.6">0</text><text class="svg-plot-value" x="908.462" y="408.6">832</text><text class="svg-plot-value" x="0" y="408.6">0</text><text class="svg-plot-value" x="873.521" y="408.6">800</text><text class="svg-plot-value" x="0" y="408.6">0</text><text class="svg-plot-value" x="838.581" y="408.6">768</text><text class="svg-plot-value" x="0" y="408.6">0</text><text class="svg-plot-value" x="803.64" y="408.6">736</text><text class="svg-plot-value" x="0" y="408.6">0</text><text class="svg-plot-value" x="768.699" y="408.6">704</text><text class="svg-plot-value" x="0" y="408.6">0</text><text class="svg-plot-value" x="733.758" y="408.6">672</text><text class="svg-plot-value" x="0" y="408.6">0</text><text class="svg-plot-value" x="698.817" y="408.6">640</text><text class="svg-plot-value" x="0" y="408.6">0</text><text class="svg-plot-value" x="663.876" y="408.6">608</text><text class="svg-plot-value" x="0" y="408.6">0</text><text class="svg-plot-value" x="628.935" y="408.6">576</text><text class="svg-plot-value" x="0" y="408.6">0</text><text class="svg-plot-value" x="593.995" y="408.6">544</text><text class="svg-plot-value" x="0" y="408.6">0</text><text class="svg-plot-value" x="559.054" y="408.6">512</text><text class="svg-plot-value" x="0" y="408.6">0</text><text class="svg-plot-value" x="524.113" y="408.6">480</text><text class="svg-plot-value" x="0" y="408.6">0</text><text class="svg-plot-value" x="489.172" y="408.6">448</text><text class="svg-plot-value" x="0" y="408.6">0</text><text class="svg-plot-value" x="454.231" y="408.6">416</text><text class="svg-plot-value" x="0" y="408.6">0</text><text class="svg-plot-value" x="419.29" y="408.6">384</text><text class="svg-plot-value" x="0" y="408.6">0</text><text class="svg-plot-value" x="384.349" y="408.6">352</text><text class="svg-plot-value" x="0" y="408.6">0</text><text class="svg-plot-value" x="349.409" y="408.6">320</text><text class="svg-plot-value" x="0" y="408.6">0</text><text class="svg-plot-value" x="314.468" y="408.6">288</text><text class="svg-plot-value" x="0" y="408.6">0</text><text class="svg-plot-value" x="279.527" y="408.6">256</text><text class="svg-plot-value" x="0" y="408.6">0</text><text class="svg-plot-value" x="244.586" y="408.6">224</text><text class="svg-plot-value" x="0" y="408.6">0</text><text class="svg-plot-value" x="209.645" y="408.6">192</text><text class="svg-plot-value" x="0" y="408.6">0</text><text class="svg-plot-value" x="174.704" y="408.6">160</text><text class="svg-plot-value" x="0" y="408.6">0</text><text class="svg-plot-value" x="139.763" y="408.6">128</text><text class="svg-plot-value" x="0" y="408.6">0</text><text class="svg-plot-value" x="104.823" y="408.6">96</text><text class="svg-plot-value" x="0" y="408.6">0</text><text class="svg-plot-value" x="69.8817" y="408.6">64</text><text class="svg-plot-value" x="0" y="408.6">0</text><text class="svg-plot-value" x="34.9409" y="408.6">32</text><text class="svg-plot-value" x="0" y="408.6">0</text><text class="svg-plot-value" x="0" y="408.6">0</text><text class="svg-plot-value" x="0" y="408.6">0</text><text class="svg-plot-label svg-plot-t0" style="text-anchor:start" x="1203" y="112.159">stuff3</text></g><defs><g id="svg-plot-marker0" class="svg-plot-marker"><circle cx="0" cy="0" r="1" stroke="none"/></g><g id="svg-plot-marker1" class="svg-plot-marker"><path d="M0 0.9 -0.9 0 0 -0.9 0.9 0Z" fill="#FFFA" stroke-linejoin="miter" stroke-width="0.6"/></g><g id="svg-plot-marker2" class="svg-plot-marker"><path fill="none" d="M0 -1.2 0 1.2 M -1.2 0 1.2 0" stroke-width="0.7"/></g><g id="svg-plot-marker3" class="svg-plot-marker"><circle cx="0" cy="0" fill="#FFFA" r="0.8" stroke-width="0.65"/></g><g id="svg-plot-marker4" class="svg-plot-marker"><path stroke="none" d="M0 -1.25 1.25 0.9 -1.25 0.9Z"/></g><mask id="svg-plot-hatch0"><rect x="-1754" y="-1754" width="3508" height="3508" fill="url(#svg-plot-hatch0-pattern)" style="transform:rotate(30deg)"/></mask><pattern patternUnits="userSpaceOnUse" id="svg-plot-hatch0-pattern" class="svg-plot-hatch" x="0" y="0" width="10" height="2.4" stroke="#FFF" fill="none"><line x1="-1" x2="11" y1="1.2" y2="1.2"/></pattern><mask id="svg-plot-hatch1"><rect x="-1754" y="-1754" width="3508" height="3508" fill="url(#svg-plot-hatch1-pattern)" style="transform:rotate(-50deg)"/></mask><pattern patternUnits="userSpaceOnUse" id="svg-plot-hatch1-pattern" class="svg-plot-hatch" x="0" y="0" width="10" height="3" stroke="#FFF" fill="none"><line x1="-1" x2="11" y1="1.5" y2="1.5"/></pattern><mask id="svg-plot-hatch3"><rect x="-1754" y="-1754" width="3508" height="3508" fill="url(#svg-plot-hatch3-pattern)" style="transform:rotate(8deg)"/><rect x="-1754" y="-1754" width="3508" height="3508" fill="url(#svg-plot-hatch3-pattern)" style="transform:rotate(93deg)"/></mask><pattern patternUnits="userSpaceOnUse" id="svg-plot-hatch3-pattern" class="svg-plot-hatch" x="0" y="0" width="10" height="3" stroke="#FFF" fill="none"><line x1="-1" x2="11" y1="1.5" y2="1.5"/></pattern></defs><style>.svg-plot{stroke-linecap:butt;stroke-linejoin:round;}.svg-plot-bg{fill:none;stroke:none;}.svg-plot-axis{stroke:none;fill:#FFFFFFD9;}.svg-plot-legend{stroke:none;fill:#FFFFFFE4;}.svg-plot-line{stroke:blue;fill:none;stroke-width:1px;stroke-linejoin:round;}.svg-plot-fill{stroke:none;opacity:0.6;}.svg-plot-major{stroke:#000;stroke-width:1px;stroke-linecap:square;fill:none;}.svg-plot-minor{stroke:#0000004D;stroke-width:0.5px;stroke-dasharray:0.5 1.5;stroke-linecap:round;fill:none;}.svg-plot-tick{stroke:#000;fill:none;stroke-width:1px;stroke-linecap:butt;}.svg-plot-value,.svg-plot-label{font-family:Arial,sans-serif;fill:#000;stroke:#FFFFFF48;stroke-width:2.5px;paint-order:stroke fill;text-anchor:middle;dominant-baseline:central;alignment-baseline:baseline;}.svg-plot-label{font-size:12px;}.svg-plot-value{font-size:9px;}.svg-plot-hatch{stroke:#FFF;stroke-width:1px;}.svg-plot-marker{transform:scale(3.25);}.svg-plot-s{stroke:#000;}.svg-plot-f,.svg-plot-t{fill:#000;}.svg-plot-s0{stroke:#CC0000}.svg-plot-f0,.svg-plot-t0{fill:#CC0000}.svg-plot-s1{stroke:#0073E6}.svg-plot-f1,.svg-plot-t1{fill:#0073E6}.svg-plot-s2{stroke:#00B300}.svg-plot-f2,.svg-plot-t2{fill:#00B300}.svg-plot-s3{stroke:#806600}.svg-plot-f3,.svg-plot-t3{fill:#806600}.svg-plot-s4{stroke:#E69900}.svg-plot-f4,.svg-plot-t4{fill:#E69900}.svg-plot-s5{stroke:#CC00CC}.svg-plot-f5,.svg-plot-t5{fill:#CC00CC}.svg-plot-d0{stroke-width:0.9px}.svg-plot-d1{stroke-dasharray:2.8 1.6}.svg-plot-d2{stroke-dasharray:1.2 1.2}.svg-plot-d3{stroke-dasharray:5 4}.svg-plot-d4{stroke-dasharray:4 1 1 1 1 1}.svg-plot-d5{stroke-dasharray:10 3}.svg-plot-d6{stroke-dasharray:4 2 1 2}.svg-plot-h0{mask:url(#svg-plot-hatch0)}.svg-plot-h1{mask:url(#svg-plot-hatch1)}.svg-plot-h2{opacity:0.2}.svg-plot-h3{mask:url(#svg-plot-hatch3)}#svg-plot-hatch0-pattern{stroke-width:0.9px}#svg-plot-hatch3-pattern{stroke-width:0.7px}.svg-plot-value,.svg-plot-label{font-family:Verdana,sans-serif;}.svg-plot-axis{fill:#EEE;}.svg-plot-tick{stroke:#666;stroke-width:0.75px;}.svg-plot-value{fill:#666;opacity:0.8;font-weight:bold;}.svg-plot-major{stroke:#FFF;stroke-width:1.5px;}.svg-plot-minor{stroke:#FFF;stroke-width:0.75px;stroke-dasharray:none;}</style><script>var q=document,x=setTimeout,a=Math.random,r=q.querySelector(&quot;style&quot;);r.textContent='@import &quot;/style/article/dist.css&quot;;'+r.textContent+'.svg-plot-value,.svg-plot-label{font-family:&quot;Geraint Dense&quot;,Arial,sans-serif}';var t=[];q.querySelectorAll(&quot;path&quot;).forEach(function(e){var y=e.getAttribute(&quot;d&quot;);t.push(function(){var f=40*a(),u=!0,g=2*(a()-.5),h=2*(a()-.5),k=2*(a()-.5),l=2*(a()-.5),m,n,B=y.replace(/([0-9\.]+) ([0-9\.]+)/g,function(C,z,A){function p(b,c){b=parseFloat(b);c=parseFloat(c);if(!u){var d=b-m,v=c-n;d=Math.sqrt(d*
		d+v*v);if(20&lt;d)return p(.5*(m+b),.5*(n+c)),p(b,c);f+=d;40&lt;f&amp;&amp;(f=0,g=h,k=l,h=2*(a()-.5),l=2*(a()-.5))}u=!1;m=b;n=c;d=f/40;b+=g+(h-g)*d;c+=k+(l-k)*d;result+=&quot; &quot;+b+&quot; &quot;+c}result=&quot;&quot;;p(z,A);return result});e.setAttribute(&quot;d&quot;,B)})});var w=function(){t.forEach(function(e){e()});x(w,240*(.9+.2*a()))};w()
		</script></svg>