<?xml version="1.0" encoding="utf-8" standalone="no"?>
<!DOCTYPE svg PUBLIC "-//W3C//DTD SVG 1.1//EN" "http://www.w3.org/Graphics/SVG/1.1/DTD/svg11.dtd">
<svg version="1.1" class="svg-plot" xmlns="http://www.w3.org/2000/svg" width="1285.2pt" height="449.5pt" viewBox="-35.37 -10 1285.2 449.5" preserveAspectRatio="xMidYMid"><rect x="-25.37" y="0" width="1265.2" height="429.5" class="svg-plot-bg"/><rect x="0" y="0" width="1200" height="400" class="svg-plot-axis"/><line x1="0" x2="0" y1="0" y2="400" class="svg-plot-major"/><line x1="0" x2="0" y1="0" y2="400" class="svg-plot-major"/><line x1="0" x2="0" y1="0" y2="400" class="svg-plot-major"/><line x1="0" x2="0" y1="0" y2="400" class="svg-plot-major"/><line x1="0" x2="0" y1="0" y2="400" class="svg-plot-major"/><line x1="0" x2="0" y1="0" y2="400" class="svg-plot-major"/><line x1="0" x2="0" y1="0" y2="400" class="svg-plot-major"/><line x1="0" x2="0" y1="0" y2="400" class="svg-plot-major"/><line x1="0" x2="0" y1="0" y2="400" class="svg-plot-major"/><line x1="0" x2="0" y1="0" y2="400" class="svg-plot-major"/><line x1="0" x2="0" y1="0" y2="400" class="svg-plot-major"/><line x1="0" x2="0" y1="0" y2="400" class="svg-plot-major"/><line x1="0" x2="0" y1="0" y2="400" class="svg-plot-major"/><line x1="0" x2="0" y1="0" y2="400" class="svg-plot-major"/><line x1="0" x2="0" y1="0" y2="400" class="svg-plot-major"/><line x1="0" x2="0" y1="0" y2="400" class="svg-plot-major"/><line x1="0" x2="0" y1="0" y2="400" class="svg-plot-major"/><line x1="0" x2="0" y1="0" y2="400" class="svg-plot-major"/><line x1="0" x2="0" y1="0" y2="400" class="svg-plot-major"/><line x1="0" x2="0" y1="0" y2="400" class="svg-plot-major"/><line x1="0" x2="0" y1="0" y2="400" class="svg-plot-major"/><line x1="0" x2="0" y1="0" y2="400" class="svg-plot-major"/><line x1="0" x2="0" y1="0" y2="400" class="svg-plot-major"/><line x1="0" x2="0" y1="0" y2="400" class="svg-plot-major"/><line x1="0" x2="0" y1="0" y2="400" class="svg-plot-major"/><line x1="0" x2="0" y1="0" y2="400" class="svg-plot-major"/><line x1="0" x2="0" y1="0" y2="400" class="svg-plot-major"/><line x1="0" x2="0" y1="0" y2="400" class="svg-plot-major"/><line x1="0" x2="0" y1="0" y2="400" class="svg-plot-major"/><line x1="0" x2="0" y1="0" y2="400" class="svg-plot-major"/><line x1="0" x2="0" y1="0" y2="400" class="svg-plot-major"/><line x1="0" x2="0" y1="0" y2="400" class="svg-plot-major"/><line x1="0" x2="0" y1="0" y2="400" class="svg-plot-major"/><line x1="0" x2="0" y1="0" y2="400" class="svg-plot-major"/><line x1="0" x2="0" y1="0" y2="400" class="svg-plot-major"/><line x1="0" x2="1200" y1="199.979" y2="199.979" class="svg-plot-major"/><line x1="0" x2="1200" y1="270.858" y2="270.858" class="svg-plot-minor"/><line x1="0" x2="1200" y1="129.099" y2="129.099" class="svg-plot-minor"/><clipPath id="clip0"><rect x="-0.5" y="-0.5" width="1201" height="401"/></clipPath><g clip-path="url(#clip0)"><path class="svg-plot-line svg-plot-s0 svg-plot-d0" d="M 0 270.86 1.09 264.7 2.18 257.19 3.28 250.32 4.37 245.84 5.46 244.74 6.55 246.98 7.64 251.55 8.74 256.82 9.83 261.07 10.92 262.95 12.01 261.85 13.1 257.95 14.19 252.04 16.38 238.42 17.47 232.53 18.56 227.99 19.65 225.1 20.75 224.08 21.84 225.22 22.93 228.76 24.02 234.81 25.11 243.05 27.3 262.14 28.39 270.03 29.48 274.9 30.57 276.07 31.67 273.88 32.76 269.75 33.85 265.9 34.94 264.72 36.03 268.07 37.12 276.72 38.22 290.04 40.4 322.48 41.49 336.46 42.58 346.24 43.68 351.21 44.77 352.02 45.86 350.26 46.95 347.91 48.04 346.61 49.14 347.25 50.23 349.71 51.32 353.05 52.41 355.93 53.5 357.13 54.6 355.92 55.69 352.29 56.78 346.9 57.87 340.76 58.96 334.88 60.05 329.98 61.15 326.34 62.24 323.81 63.33 322 64.42 320.45 65.51 318.83 66.61 316.94 67.7 314.7 68.79 312.02 69.88 308.72 70.97 304.57 72.07 299.37 73.16 293.15 74.25 286.34 75.34 279.78 76.43 274.64 77.53 272.18 78.62 273.36 79.71 278.57 80.8 287.43 81.89 298.79 82.98 311.02 84.08 322.34 85.17 331.3 86.26 337.05 87.35 339.58 88.44 339.57 90.63 336.95 91.72 336.83 92.81 338.58 93.9 342.34 95 347.71 97.18 360.15 98.27 365.44 99.36 369.14 100.45 370.8 101.55 370.24 102.64 367.47 103.73 362.71 104.82 356.31 105.91 348.78 107.01 340.77 108.1 333.06 109.19 326.51 110.28 321.98 111.37 320.2 112.47 321.65 113.56 326.37 114.65 333.96 115.74 343.52 116.83 353.78 117.93 363.28 119.02 370.61 120.11 374.73 121.2 375.14 122.29 372.04 123.38 366.25 125.57 351.91 126.66 346.1 127.75 342.52 128.84 341.46 129.94 342.72 131.03 345.72 132.12 349.81 133.21 354.44 134.3 359.39 135.4 364.66 136.49 370.35 138.67 382.45 139.76 387.64 140.86 390.84 141.95 390.94 143.04 387.2 144.13 379.64 145.22 369.15 146.31 357.42 147.41 346.56 148.5 338.55 149.59 334.74 150.68 335.45 151.77 339.94 152.87 346.64 153.96 353.65 155.05 359.31 156.14 362.66 157.23 363.64 158.33 363 159.42 361.87 160.51 361.35 161.6 362.01 162.69 363.74 163.79 365.78 164.88 367.1 165.97 366.8 167.06 364.54 168.15 360.72 169.24 356.38 170.34 352.86 171.43 351.34 172.52 352.43 173.61 355.91 175.8 365.55 176.89 368.77 177.98 369.37 179.07 367.05 180.16 362.26 181.26 356.05 182.35 349.67 183.44 344.17 184.53 340.12 185.62 337.52 186.72 335.92 187.81 334.69 188.9 333.39 189.99 331.91 191.08 330.61 192.17 330.17 193.27 331.29 194.36 334.43 195.45 339.58 196.54 346.13 197.63 353.04 198.73 359.04 199.82 363.03 200.91 364.31 202 362.78 203.09 358.96 204.19 353.81 205.28 348.45 206.37 343.94 207.46 340.98 208.55 339.85 209.65 340.39 210.74 342.21 211.83 344.82 212.92 347.85 214.01 351.11 215.1 354.63 216.2 358.52 217.29 362.86 218.38 367.51 219.47 372.05 220.56 375.82 221.66 378.03 222.75 377.99 223.84 375.34 224.93 370.17 226.02 363.08 227.12 355.07 228.21 347.26 229.3 340.67 230.39 335.88 231.48 332.95 232.58 331.39 233.67 330.36 234.76 328.98 235.85 326.59 236.94 323.01 238.03 318.58 239.13 314.03 240.22 310.26 241.31 307.99 242.4 307.53 243.49 308.67 245.68 312.83 246.77 314.17 247.86 314.35 248.95 313.46 250.05 312.11 251.14 311.19 252.23 311.55 253.32 313.68 254.41 317.54 256.6 327.39 257.69 331.05 258.78 332.42 259.87 330.9 260.96 326.52 262.06 319.89 264.24 304.08 265.33 297.06 266.42 291.61 267.52 287.96 268.61 285.89 269.7 284.88 270.79 284.28 271.88 283.52 272.98 282.25 274.07 280.39 275.16 278.22 276.25 276.28 277.34 275.24 278.43 275.76 279.53 278.32 280.62 283.04 281.71 289.64 282.8 297.39 283.89 305.3 284.99 312.29 286.08 317.45 287.17 320.25 288.26 320.68 289.35 319.19 290.45 316.55 291.54 313.52 292.63 310.6 293.72 307.83 294.81 304.72 295.91 300.46 297 294.22 298.09 285.55 299.18 274.61 300.27 262.35 301.36 250.33 302.46 240.33 303.55 233.94 304.64 232.03 305.73 234.53 306.82 240.4 307.92 247.91 309.01 255.13 310.1 260.47 311.19 263.1 312.28 263.13 313.38 261.54 314.47 259.76 315.56 259.21 316.65 260.78 317.74 264.56 319.93 274.9 321.02 278.32 322.11 278.6 323.2 274.96 324.29 267.54 325.39 257.3 326.48 245.79 327.57 234.74 328.66 225.63 329.75 219.36 330.85 216.08 331.94 215.29 333.03 216.07 334.12 217.41 335.21 218.54 336.31 219.1 337.4 219.19 338.49 219.23 339.58 219.65 340.67 220.68 341.77 222.06 342.86 223.14 343.95 222.96 345.04 220.64 346.13 215.72 347.22 208.5 348.32 200.07 349.41 192.15 350.5 186.69 351.59 185.27 352.68 188.62 353.78 196.29 354.87 206.74 355.96 217.66 357.05 226.64 358.14 231.82 359.24 232.49 360.33 229.2 361.42 223.59 362.51 217.8 363.6 213.74 364.7 212.45 365.79 213.68 366.88 216.02 367.97 217.35 369.06 215.53 370.15 209.2 371.25 198.21 372.34 183.73 373.43 167.97 374.52 153.48 375.61 142.46 376.71 136.21 377.8 134.81 378.89 137.34 379.98 142.26 381.07 147.97 382.17 153.3 383.26 157.75 384.35 161.43 385.44 164.81 386.53 168.33 388.72 175.94 389.81 179.16 390.9 181.15 391.99 181.46 393.08 180.06 394.18 177.3 395.27 173.81 396.36 170.22 397.45 167 398.54 164.32 399.64 162.21 400.73 160.53 401.82 159.24 402.91 158.42 404 158.2 405.1 158.6 406.19 159.31 407.28 159.65 408.37 158.66 409.46 155.39 410.56 149.35 411.65 140.82 412.74 130.94 413.83 121.6 414.92 114.85 416.01 112.28 417.11 114.41 418.2 120.45 419.29 128.38 420.38 135.56 421.47 139.49 422.57 138.62 423.66 132.82 424.75 123.37 425.84 112.55 426.93 102.81 428.03 95.99 429.12 92.82 430.21 92.75 431.3 94.38 432.39 96.07 433.48 96.68 434.58 96.01 435.67 94.83 436.76 94.53 437.85 96.49 438.94 101.43 440.04 109.07 441.13 118.18 442.22 126.98 443.31 133.77 444.4 137.5 445.5 138.05 446.59 136.14 447.68 132.83 448.77 128.96 449.86 124.74 450.96 119.61 452.05 112.54 453.14 102.64 454.23 89.77 456.41 60.38 457.51 48.74 458.6 42.57 459.69 43.31 460.78 50.8 461.87 63.21 462.97 77.6 464.06 90.8 465.15 100.35 466.24 105.17 467.33 105.71 468.43 103.58 469.52 100.72 470.61 98.65 471.7 97.8 472.79 97.48 473.89 96.24 474.98 92.61 476.07 85.79 477.16 76.18 478.25 65.3 479.34 55.3 480.44 48.22 481.53 45.21 482.62 46.11 483.71 49.5 484.8 53.24 485.9 55.25 486.99 54.29 488.08 50.37 489.17 44.75 490.26 39.39 491.36 36.29 492.45 36.68 493.54 40.66 494.63 47.22 495.72 54.64 496.82 61.17 497.91 65.63 499 67.8 500.09 68.33 501.18 68.45 502.27 69.37 503.37 71.8 504.46 75.76 505.55 80.56 506.64 85.23 507.73 88.86 508.83 91.03 509.92 91.85 511.01 91.86 512.1 91.65 513.19 91.53 514.29 91.32 515.38 90.36 516.47 87.78 517.56 82.89 518.65 75.54 519.75 66.28 520.84 56.21 521.93 46.69 523.02 38.88 524.11 33.36 525.2 29.98 526.3 28.01 527.39 26.4 528.48 24.3 529.57 21.31 530.66 17.67 531.76 14.14 532.85 11.61 533.94 10.8 535.03 11.89 536.12 14.42 537.22 17.46 538.31 19.85 539.4 20.63 540.49 19.31 541.58 16.01 542.68 11.42 543.77 6.55 544.86 2.48 545.95 0.11 547.04 0 548.13 2.32 549.23 6.95 550.32 13.49 551.41 21.44 553.59 39.02 554.69 47.29 555.78 54.34 556.87 59.75 557.96 63.35 559.05 65.34 560.15 66.25 561.24 66.81 562.33 67.79 563.42 69.7 564.51 72.72 565.61 76.64 566.7 80.9 567.79 84.85 568.88 87.89 569.97 89.62 571.06 89.91 572.16 88.74 573.25 86.16 574.34 82.09 575.43 76.4 576.52 68.94 577.62 59.74 578.71 49.23 579.8 38.28 580.89 28.12 581.98 20.03 583.08 15.01 584.17 13.43 585.26 14.85 586.35 18.11 587.44 21.68 588.54 24.14 589.63 24.67 590.72 23.35 591.81 21.13 592.9 19.5 593.99 19.99 595.09 23.56 596.18 30.26 597.27 39.12 598.36 48.45 599.45 56.32 600.55 61.19 601.64 62.38 602.73 60.27 603.82 56.13 604.91 51.68 606.01 48.58 607.1 47.87 608.19 49.73 609.28 53.48 610.37 57.85 611.46 61.46 612.56 63.19 613.65 62.57 614.74 59.82 615.83 55.75 616.92 51.48 618.02 48.11 619.11 46.41 620.2 46.66 621.29 48.6 623.48 54.44 624.57 56.27 625.66 56.08 626.75 53.27 627.84 47.72 628.94 39.87 631.12 21.55 632.21 14.03 633.3 9.6 634.39 9.31 635.49 13.56 636.58 21.98 637.67 33.52 639.85 59.69 640.95 71.14 642.04 79.97 643.13 85.78 644.22 88.74 645.31 89.51 646.41 89.02 647.5 88.31 648.59 88.34 649.68 89.86 650.77 93.39 651.87 99.09 652.96 106.73 654.05 115.65 655.14 124.78 656.23 132.81 657.32 138.4 658.42 140.57 659.51 138.98 660.6 134.1 661.69 127.21 662.78 120.04 663.88 114.35 664.97 111.36 666.06 111.36 667.15 113.57 668.24 116.43 669.34 118.09 670.43 117.1 671.52 112.92 672.61 106.13 673.7 98.32 674.8 91.41 675.89 87.05 676.98 85.9 678.07 87.39 679.16 89.88 680.25 91.28 681.35 89.82 682.44 84.82 683.53 76.98 684.62 68.26 685.71 61.24 686.81 58.16 687.9 60.17 688.99 66.82 691.17 85.47 692.27 91.99 693.36 94.06 694.45 91.61 695.54 86.13 696.63 80.21 697.73 76.58 698.82 77.24 699.91 82.79 701 92.33 702.09 103.86 703.18 115 704.28 123.89 705.37 129.69 706.46 132.74 707.55 134.26 708.64 135.75 709.74 138.24 710.83 141.95 711.92 146.17 713.01 149.62 714.1 151.03 715.2 149.75 716.29 146.07 717.38 141.23 718.47 137.04 719.56 135.28 720.66 137.11 721.75 142.73 722.84 151.35 725.02 171.48 726.11 179.96 727.21 186.23 728.3 190.3 729.39 192.78 731.57 196.2 732.67 198.4 733.76 201.28 734.85 204.75 735.94 208.61 737.03 212.6 738.13 216.4 739.22 219.55 740.31 221.42 741.4 221.2 742.49 218.14 743.59 211.81 744.68 202.41 745.77 190.92 746.86 179.05 747.95 168.84 749.04 162.14 750.14 160 751.23 162.29 752.32 167.64 753.41 173.8 754.5 178.34 755.6 179.41 756.69 176.36 757.78 170.01 758.87 162.41 759.96 156.16 761.06 153.55 762.15 155.85 763.24 162.83 764.33 172.82 765.42 183.22 766.52 191.35 767.61 195.15 768.7 193.84 769.79 188.02 770.88 179.43 771.97 170.36 773.07 162.99 774.16 158.86 775.25 158.63 776.34 162.09 777.43 168.48 778.53 176.83 779.62 186.24 781.8 205.9 782.89 215.34 783.99 223.98 785.08 231.32 786.17 236.86 787.26 240.3 788.35 241.69 789.44 241.55 790.54 240.8 791.63 240.48 792.72 241.52 793.81 244.4 794.9 249.06 796 254.92 797.09 261.1 798.18 266.78 799.27 271.45 800.36 275.08 801.46 278.12 802.55 281.23 803.64 285.01 804.73 289.7 806.92 300.33 808.01 304.51 809.1 306.62 810.19 305.99 811.28 302.51 812.37 296.63 813.47 289.28 814.56 281.61 815.65 274.71 816.74 269.38 817.83 265.96 818.93 264.32 820.02 263.96 821.11 264.14 822.2 264.13 823.29 263.38 824.39 261.68 825.48 259.18 826.57 256.43 827.66 254.19 828.75 253.23 829.85 254.12 830.94 257.01 832.03 261.46 833.12 266.54 834.21 270.98 835.3 273.51 836.4 273.27 837.49 270.07 838.58 264.6 839.67 258.3 840.76 253.06 841.86 250.67 842.95 252.37 844.04 258.47 845.13 268.23 847.32 291.95 848.41 302.01 849.5 308.94 850.59 312.26 851.68 312.33 852.78 310.07 853.87 306.56 854.96 302.68 856.05 298.93 857.14 295.43 858.23 292.13 859.33 289.05 860.42 286.52 861.51 285.16 862.6 285.71 863.69 288.72 864.79 294.23 865.88 301.58 866.97 309.56 868.06 316.71 869.15 321.83 870.25 324.44 871.34 325.03 872.43 324.89 873.52 325.79 874.61 329.24 875.71 336 876.8 345.66 877.89 356.73 878.98 367.05 880.07 374.51 881.16 377.75 882.26 376.56 883.35 371.96 884.44 365.78 885.53 359.94 886.62 355.77 887.72 353.46 888.81 352.09 889.9 349.98 890.99 345.47 892.08 337.69 893.18 327.14 894.27 315.65 895.36 305.98 896.45 300.92 897.54 302.28 898.64 310.22 899.73 323 900.82 337.4 901.91 349.64 903 356.5 904.09 356.3 905.19 349.41 906.28 338.16 907.37 326.02 908.46 316.6 909.55 312.55 910.65 314.78 911.74 322.34 913.92 343.16 915.01 350.78 916.11 354.19 917.2 353.41 918.29 349.76 919.38 345.3 920.47 341.98 921.57 341.02 922.66 342.5 924.84 348.4 925.93 349.75 927.02 348.65 928.12 345.16 929.21 340.33 930.3 335.78 931.39 333.25 932.48 334.03 933.58 338.62 934.67 346.63 935.76 356.97 936.85 368.19 937.94 378.86 939.04 387.86 940.13 394.51 941.22 398.55 942.31 400 943.4 399.04 944.49 395.93 945.59 391.01 946.68 384.71 948.86 370.53 949.95 364.02 951.05 358.57 952.14 354.26 954.32 347.07 955.41 342.52 956.51 336.4 957.6 328.61 958.69 319.77 959.78 311.19 960.87 304.53 961.97 301.36 963.06 302.69 964.15 308.62 965.24 318.32 966.33 330.19 967.42 342.35 968.52 353.11 969.61 361.42 970.7 367.01 971.79 370.36 972.88 372.37 973.98 373.93 975.07 375.66 976.16 377.65 977.25 379.59 978.34 380.99 979.44 381.43 980.53 380.85 981.62 379.6 982.71 378.28 983.8 377.5 984.9 377.6 985.99 378.46 987.08 379.54 988.17 380.07 989.26 379.39 990.35 377.25 991.45 373.96 992.54 370.36 993.63 367.55 994.72 366.47 995.81 367.56 996.91 370.54 998 374.43 999.09 377.87 1000.18 379.47 1001.27 378.28 1002.37 374.01 1003.46 367.15 1004.55 358.72 1005.64 350.01 1006.73 342.2 1007.83 336.1 1008.92 332.08 1010.01 330.13 1011.1 330.02 1012.19 331.44 1013.28 334.08 1014.38 337.6 1015.47 341.53 1016.56 345.16 1017.65 347.61 1018.74 347.9 1019.84 345.3 1020.93 339.6 1022.02 331.32 1023.11 321.72 1024.2 312.52 1025.3 305.53 1026.39 302.03 1027.48 302.48 1028.57 306.24 1030.76 317.32 1031.85 320.91 1032.94 321.47 1034.03 318.84 1035.12 313.86 1036.21 308.02 1037.31 303.05 1038.4 300.37 1039.49 300.77 1040.58 304.3 1041.67 310.43 1042.77 318.29 1044.95 335.78 1046.04 344.17 1047.13 351.75 1048.23 358.09 1049.32 362.67 1050.41 364.96 1051.5 364.62 1052.59 361.76 1053.69 357.09 1054.78 351.98 1055.87 348.1 1056.96 347.04 1058.05 349.71 1059.14 356 1061.33 373.29 1062.42 379.55 1063.51 381.18 1064.6 377.06 1065.7 367.42 1066.79 353.81 1067.88 338.66 1068.97 324.53 1070.06 313.39 1071.16 306.13 1072.25 302.37 1073.34 300.75 1074.43 299.46 1075.52 296.9 1076.62 292.19 1077.71 285.36 1079.89 269.38 1080.98 262.87 1082.07 258.63 1083.17 256.81 1084.26 256.95 1085.35 258.17 1086.44 259.52 1087.53 260.32 1088.63 260.26 1089.72 259.45 1091.9 256.97 1092.99 256.03 1094.09 255.61 1095.18 255.83 1096.27 256.88 1097.36 259.04 1098.45 262.67 1099.55 268.12 1100.64 275.46 1101.73 284.34 1102.82 293.91 1103.91 302.89 1105 309.82 1106.1 313.45 1107.19 313.03 1108.28 308.64 1109.37 301.11 1111.56 282.74 1112.65 275.15 1113.74 270.13 1114.83 267.91 1115.92 268 1118.11 270.68 1119.2 270.83 1120.29 268.99 1121.38 264.9 1122.47 258.78 1123.57 251.27 1124.66 243.2 1125.75 235.44 1126.84 228.78 1127.93 223.8 1129.03 220.9 1130.12 220.29 1131.21 222.03 1132.3 225.96 1133.39 231.77 1134.49 238.93 1135.58 246.7 1136.67 254.15 1137.76 260.26 1138.85 264.08 1139.95 264.84 1141.04 262.16 1142.13 256.15 1143.22 247.45 1145.4 226.87 1146.5 217.92 1147.59 211.63 1148.68 208.77 1149.77 209.45 1150.86 213.13 1151.96 218.72 1153.05 224.89 1154.14 230.33 1155.23 234.08 1156.32 235.67 1157.42 235.12 1158.51 232.79 1159.6 229.17 1160.69 224.61 1161.78 219.21 1162.88 212.86 1163.97 205.37 1165.06 196.75 1166.15 187.43 1167.24 178.32 1168.33 170.73 1169.43 166.07 1170.52 165.37 1171.61 168.97 1172.7 176.23 1174.89 195.18 1175.98 202.71 1177.07 206.66 1178.16 206.4 1179.25 202.37 1180.35 195.87 1181.44 188.65 1182.53 182.31 1183.62 177.85 1184.71 175.41 1185.81 174.37 1186.9 173.65 1187.99 172.22 1189.08 169.49 1190.17 165.58 1191.26 161.25 1192.36 157.58 1193.45 155.53 1194.54 155.54 1195.63 157.31 1196.72 159.82 1197.82 161.69 1198.91 161.65 1200 158.95"/></g><g><text class="svg-plot-label svg-plot-t" x="0" y="0" transform="rotate(-90) translate(-199.1 -20.87)">signal</text><text class="svg-plot-value" style="text-anchor:end" x="-5" y="128.199">1</text><text class="svg-plot-value" style="text-anchor:end" x="-5" y="269.958">-1</text><text class="svg-plot-value" style="text-anchor:end" x="-5" y="199.079">0</text><text class="svg-plot-label svg-plot-t" x="600" y="424.1">time</text><text class="svg-plot-value" x="1187.99" y="408.6">1088</text><text class="svg-plot-value" x="0" y="408.6">0</text><text class="svg-plot-value" x="1153.05" y="408.6">1056</text><text class="svg-plot-value" x="0" y="408.6">0</text><text class="svg-plot-value" x="1118.11" y="408.6">1024</text><text class="svg-plot-value" x="0" y="408.6">0</text><text class="svg-plot-value" x="1083.17" y="408.6">992</text><text class="svg-plot-value" x="0" y="408.6">0</text><text class="svg-plot-value" x="1048.23" y="408.6">960</text><text class="svg-plot-value" x="0" y="408.6">0</text><text class="svg-plot-value" x="1013.28" y="408.6">928</text><text class="svg-plot-value" x="0" y="408.6">0</text><text class="svg-plot-value" x="978.344" y="408.6">896</text><text class="svg-plot-value" x="0" y="408.6">0</text><text class="svg-plot-value" x="943.403" y="408.6">864</text><text class="svg-plot-value" x="0" y="408.6">0</text><text class="svg-plot-value" x="908.462" y="408.6">832</text><text class="svg-plot-value" x="0" y="408.6">0</text><text class="svg-plot-value" x="873.521" y="408.6">800</text><text class="svg-plot-value" x="0" y="408.6">0</text><text class="svg-plot-value" x="838.581" y="408.6">768</text><text class="svg-plot-value" x="0" y="408.6">0</text><text class="svg-plot-value" x="803.64" y="408.6">736</text><text class="svg-plot-value" x="0" y="408.6">0</text><text class="svg-plot-value" x="768.699" y="408.6">704</text><text class="svg-plot-value" x="0" y="408.6">0</text><text class="svg-plot-value" x="733.758" y="408.6">672</text><text class="svg-plot-value" x="0" y="408.6">0</text><text class="svg-plot-value" x="698.817" y="408.6">640</text><text class="svg-plot-value" x="0" y="408.6">0</text><text class="svg-plot-value" x="663.876" y="408.6">608</text><text class="svg-plot-value" x="0" y="408.6">0</text><text class="svg-plot-value" x="628.935" y="408.6">576</text><text class="svg-plot-value" x="0" y="408.6">0</text><text class="svg-plot-value" x="593.995" y="408.6">544</text><text class="svg-plot-value" x="0" y="408.6">0</text><text class="svg-plot-value" x="559.054" y="408.6">512</text><text class="svg-plot-value" x="0" y="408.6">0</text><text class="svg-plot-value" x="524.113" y="408.6">480</text><text class="svg-plot-value" x="0" y="408.6">0</text><text class="svg-plot-value" x="489.172" y="408.6">448</text><text class="svg-plot-value" x="0" y="408.6">0</text><text class="svg-plot-value" x="454.231" y="408.6">416</text><text class="svg-plot-value" x="0" y="408.6">0</text><text class="svg-plot-value" x="419.29" y="408.6">384</text><text class="svg-plot-value" x="0" y="408.6">0</text><text class="svg-plot-value" x="384.349" y="408.6">352</text><text class="svg-plot-value" x="0" y="408.6">0</text><text class="svg-plot-value" x="349.409" y="408.6">320</text><text class="svg-plot-value" x="0" y="408.6">0</text><text class="svg-plot-value" x="314.468" y="408.6">288</text><text class="svg-plot-value" x="0" y="408.6">0</text><text class="svg-plot-value" x="279.527" y="408.6">256</text><text class="svg-plot-value" x="0" y="408.6">0</text><text class="svg-plot-value" x="244.586" y="408.6">224</text><text class="svg-plot-value" x="0" y="408.6">0</text><text class="svg-plot-value" x="209.645" y="408.6">192</text><text class="svg-plot-value" x="0" y="408.6">0</text><text class="svg-plot-value" x="174.704" y="408.6">160</text><text class="svg-plot-value" x="0" y="408.6">0</text><text class="svg-plot-value" x="139.763" y="408.6">128</text><text class="svg-plot-value" x="0" y="408.6">0</text><text class="svg-plot-value" x="104.823" y="408.6">96</text><text class="svg-plot-value" x="0" y="408.6">0</text><text class="svg-plot-value" x="69.8817" y="408.6">64</text><text class="svg-plot-value" x="0" y="408.6">0</text><text class="svg-plot-value" x="34.9409" y="408.6">32</text><text class="svg-plot-value" x="0" y="408.6">0</text><text class="svg-plot-value" x="0" y="408.6">0</text><text class="svg-plot-value" x="0" y="408.6">0</text><text class="svg-plot-label svg-plot-t0" style="text-anchor:start" x="1203" y="157.751">stuff5</text></g><defs><g id="svg-plot-marker0" class="svg-plot-marker"><circle cx="0" cy="0" r="1" stroke="none"/></g><g id="svg-plot-marker1" class="svg-plot-marker"><path d="M0 0.9 -0.9 0 0 -0.9 0.9 0Z" fill="#FFFA" stroke-linejoin="miter" stroke-width="0.6"/></g><g id="svg-plot-marker2" class="svg-plot-marker"><path fill="none" d="M0 -1.2 0 1.2 M -1.2 0 1.2 0" stroke-width="0.7"/></g><g id="svg-plot-marker3" class="svg-plot-marker"><circle cx="0" cy="0" fill="#FFFA" r="0.8" stroke-width="0.65"/></g><g id="svg-plot-marker4" class="svg-plot-marker"><path stroke="none" d="M0 -1.25 1.25 0.9 -1.25 0.9Z"/></g><mask id="svg-plot-hatch0"><rect x="-1754" y="-1754" width="3508" height="3508" fill="url(#svg-plot-hatch0-pattern)" style="transform:rotate(30deg)"/></mask><pattern patternUnits="userSpaceOnUse" id="svg-plot-hatch0-pattern" class="svg-plot-hatch" x="0" y="0" width="10" height="2.4" stroke="#FFF" fill="none"><line x1="-1" x2="11" y1="1.2" y2="1.2"/></pattern><mask id="svg-plot-hatch1"><rect x="-1754" y="-1754" width="3508" height="3508" fill="url(#svg-plot-hatch1-pattern)" style="transform:rotate(-50deg)"/></mask><pattern patternUnits="userSpaceOnUse" id="svg-plot-hatch1-pattern" class="svg-plot-hatch" x="0" y="0" width="10" height="3" stroke="#FFF" fill="none"><line x1="-1" x2="11" y1="1.5" y2="1.5"/></pattern><mask id="svg-plot-hatch3"><rect x="-1754" y="-1754" width="3508" height="3508" fill="url(#svg-plot-hatch3-pattern)" style="transform:rotate(8deg)"/><rect x="-1754" y="-1754" width="3508" height="3508" fill="url(#svg-plot-hatch3-pattern)" style="transform:rotate(93deg)"/></mask><pattern patternUnits="userSpaceOnUse" id="svg-plot-hatch3-pattern" class="svg-plot-hatch" x="0" y="0" width="10" height="3" stroke="#FFF" fill="none"><line x1="-1" x2="11" y1="1.5" y2="1.5"/></pattern></defs><style>.svg-plot{stroke-linecap:butt;stroke-linejoin:round;}.svg-plot-bg{fill:none;stroke:none;}.svg-plot-axis{stroke:none;fill:#FFFFFFD9;}.svg-plot-legend{stroke:none;fill:#FFFFFFE4;}.svg-plot-line{stroke:blue;fill:none;stroke-width:1px;stroke-linejoin:round;}.svg-plot-fill{stroke:none;opacity:0.6;}.svg-plot-major{stroke:#000;stroke-width:1px;stroke-linecap:square;fill:none;}.svg-plot-minor{stroke:#0000004D;stroke-width:0.5px;stroke-dasharray:0.5 1.5;stroke-linecap:round;fill:none;}.svg-plot-tick{stroke:#000;fill:none;stroke-width:1px;stroke-linecap:butt;}.svg-plot-value,.svg-plot-label{font-family:Arial,sans-serif;fill:#000;stroke:#FFFFFF48;stroke-width:2.5px;paint-order:stroke fill;text-anchor:middle;dominant-baseline:central;alignment-baseline:baseline;}.svg-plot-label{font-size:12px;}.svg-plot-value{font-size:9px;}.svg-plot-hatch{stroke:#FFF;stroke-width:1px;}.svg-plot-marker{transform:scale(3.25);}.svg-plot-s{stroke:#000;}.svg-plot-f,.svg-plot-t{fill:#000;}.svg-plot-s0{stroke:#CC0000}.svg-plot-f0,.svg-plot-t0{fill:#CC0000}.svg-plot-s1{stroke:#0073E6}.svg-plot-f1,.svg-plot-t1{fill:#0073E6}.svg-plot-s2{stroke:#00B300}.svg-plot-f2,.svg-plot-t2{fill:#00B300}.svg-plot-s3{stroke:#806600}.svg-plot-f3,.svg-plot-t3{fill:#806600}.svg-plot-s4{stroke:#E69900}.svg-plot-f4,.svg-plot-t4{fill:#E69900}.svg-plot-s5{stroke:#CC00CC}.svg-plot-f5,.svg-plot-t5{fill:#CC00CC}.svg-plot-d0{stroke-width:0.9px}.svg-plot-d1{stroke-dasharray:2.8 1.6}.svg-plot-d2{stroke-dasharray:1.2 1.2}.svg-plot-d3{stroke-dasharray:5 4}.svg-plot-d4{stroke-dasharray:4 1 1 1 1 1}.svg-plot-d5{stroke-dasharray:10 3}.svg-plot-d6{stroke-dasharray:4 2 1 2}.svg-plot-h0{mask:url(#svg-plot-hatch0)}.svg-plot-h1{mask:url(#svg-plot-hatch1)}.svg-plot-h2{opacity:0.2}.svg-plot-h3{mask:url(#svg-plot-hatch3)}#svg-plot-hatch0-pattern{stroke-width:0.9px}#svg-plot-hatch3-pattern{stroke-width:0.7px}.svg-plot-value,.svg-plot-label{font-family:Verdana,sans-serif;}.svg-plot-axis{fill:#EEE;}.svg-plot-tick{stroke:#666;stroke-width:0.75px;}.svg-plot-value{fill:#666;opacity:0.8;font-weight:bold;}.svg-plot-major{stroke:#FFF;stroke-width:1.5px;}.svg-plot-minor{stroke:#FFF;stroke-width:0.75px;stroke-dasharray:none;}</style><script>var q=document,x=setTimeout,a=Math.random,r=q.querySelector(&quot;style&quot;);r.textContent='@import &quot;/style/article/dist.css&quot;;'+r.textContent+'.svg-plot-value,.svg-plot-label{font-family:&quot;Geraint Dense&quot;,Arial,sans-serif}';var t=[];q.querySelectorAll(&quot;path&quot;).forEach(function(e){var y=e.getAttribute(&quot;d&quot;);t.push(function(){var f=40*a(),u=!0,g=2*(a()-.5),h=2*(a()-.5),k=2*(a()-.5),l=2*(a()-.5),m,n,B=y.replace(/([0-9\.]+) ([0-9\.]+)/g,function(C,z,A){function p(b,c){b=parseFloat(b);c=parseFloat(c);if(!u){var d=b-m,v=c-n;d=Math.sqrt(d*
		d+v*v);if(20&lt;d)return p(.5*(m+b),.5*(n+c)),p(b,c);f+=d;40&lt;f&amp;&amp;(f=0,g=h,k=l,h=2*(a()-.5),l=2*(a()-.5))}u=!1;m=b;n=c;d=f/40;b+=g+(h-g)*d;c+=k+(l-k)*d;result+=&quot; &quot;+b+&quot; &quot;+c}result=&quot;&quot;;p(z,A);return result});e.setAttribute(&quot;d&quot;,B)})});var w=function(){t.forEach(function(e){e()});x(w,240*(.9+.2*a()))};w()
		</script></svg>