<?xml version="1.0" encoding="utf-8" standalone="no"?>
<!DOCTYPE svg PUBLIC "-//W3C//DTD SVG 1.1//EN" "http://www.w3.org/Graphics/SVG/1.1/DTD/svg11.dtd">
<svg version="1.1" class="svg-plot" xmlns="http://www.w3.org/2000/svg" width="1285.33pt" height="449.5pt" viewBox="-35.37 -10 1285.33 449.5" preserveAspectRatio="xMidYMid"><rect x="-25.37" y="0" width="1265.33" height="429.5" class="svg-plot-bg"/><rect x="0" y="0" width="1200" height="400" class="svg-plot-axis"/><line x1="0" x2="0" y1="0" y2="400" class="svg-plot-major"/><line x1="0" x2="0" y1="0" y2="400" class="svg-plot-major"/><line x1="0" x2="0" y1="0" y2="400" class="svg-plot-major"/><line x1="0" x2="0" y1="0" y2="400" class="svg-plot-major"/><line x1="0" x2="0" y1="0" y2="400" class="svg-plot-major"/><line x1="0" x2="0" y1="0" y2="400" class="svg-plot-major"/><line x1="0" x2="0" y1="0" y2="400" class="svg-plot-major"/><line x1="0" x2="0" y1="0" y2="400" class="svg-plot-major"/><line x1="0" x2="0" y1="0" y2="400" class="svg-plot-major"/><line x1="0" x2="0" y1="0" y2="400" class="svg-plot-major"/><line x1="0" x2="0" y1="0" y2="400" class="svg-plot-major"/><line x1="0" x2="0" y1="0" y2="400" class="svg-plot-major"/><line x1="0" x2="0" y1="0" y2="400" class="svg-plot-major"/><line x1="0" x2="0" y1="0" y2="400" class="svg-plot-major"/><line x1="0" x2="0" y1="0" y2="400" class="svg-plot-major"/><line x1="0" x2="0" y1="0" y2="400" class="svg-plot-major"/><line x1="0" x2="0" y1="0" y2="400" class="svg-plot-major"/><line x1="0" x2="0" y1="0" y2="400" class="svg-plot-major"/><line x1="0" x2="0" y1="0" y2="400" class="svg-plot-major"/><line x1="0" x2="0" y1="0" y2="400" class="svg-plot-major"/><line x1="0" x2="0" y1="0" y2="400" class="svg-plot-major"/><line x1="0" x2="0" y1="0" y2="400" class="svg-plot-major"/><line x1="0" x2="0" y1="0" y2="400" class="svg-plot-major"/><line x1="0" x2="0" y1="0" y2="400" class="svg-plot-major"/><line x1="0" x2="0" y1="0" y2="400" class="svg-plot-major"/><line x1="0" x2="0" y1="0" y2="400" class="svg-plot-major"/><line x1="0" x2="0" y1="0" y2="400" class="svg-plot-major"/><line x1="0" x2="0" y1="0" y2="400" class="svg-plot-major"/><line x1="0" x2="0" y1="0" y2="400" class="svg-plot-major"/><line x1="0" x2="0" y1="0" y2="400" class="svg-plot-major"/><line x1="0" x2="0" y1="0" y2="400" class="svg-plot-major"/><line x1="0" x2="0" y1="0" y2="400" class="svg-plot-major"/><line x1="0" x2="0" y1="0" y2="400" class="svg-plot-major"/><line x1="0" x2="0" y1="0" y2="400" class="svg-plot-major"/><line x1="0" x2="0" y1="0" y2="400" class="svg-plot-major"/><line x1="0" x2="1200" y1="205.268" y2="205.268" class="svg-plot-major"/><line x1="0" x2="1200" y1="286.32" y2="286.32" class="svg-plot-minor"/><line x1="0" x2="1200" y1="124.216" y2="124.216" class="svg-plot-minor"/><clipPath id="clip0"><rect x="-0.5" y="-0.5" width="1201" height="401"/></clipPath><g clip-path="url(#clip0)"><path class="svg-plot-line svg-plot-s0 svg-plot-d0" d="M 0 124.22 1.09 123.41 2.18 122.64 3.28 121.9 4.37 121.23 5.46 120.66 6.55 120.22 7.64 119.95 8.74 119.85 9.83 119.91 10.92 120.09 13.1 120.56 14.19 120.69 15.29 120.67 16.38 120.43 17.47 119.94 18.56 119.19 19.65 118.18 20.75 116.95 21.84 115.54 22.93 114.02 25.11 110.9 26.21 109.45 27.3 108.14 28.39 107 29.48 106.02 30.57 105.16 31.67 104.34 32.76 103.48 33.85 102.47 34.94 101.22 36.03 99.66 37.12 97.77 38.22 95.6 39.31 93.23 40.4 90.79 41.49 88.43 42.58 86.29 43.68 84.45 44.77 82.97 45.86 81.8 46.95 80.87 48.04 80.01 49.14 79.09 50.23 77.96 51.32 76.53 52.41 74.77 53.5 72.74 55.69 68.37 56.78 66.39 57.87 64.75 58.96 63.57 60.05 62.86 61.15 62.59 62.24 62.65 64.42 63.08 65.51 63.14 66.61 62.93 67.7 62.4 68.79 61.56 69.88 60.47 70.97 59.22 72.07 57.95 73.16 56.75 74.25 55.72 75.34 54.94 76.43 54.42 77.53 54.18 78.62 54.2 79.71 54.43 80.8 54.81 82.98 55.72 84.08 56.08 85.17 56.29 86.26 56.27 87.35 56 88.44 55.5 89.54 54.83 90.63 54.08 91.72 53.38 92.81 52.89 93.9 52.72 95 52.97 96.09 53.64 97.18 54.69 98.27 56 99.36 57.39 100.45 58.66 101.55 59.62 102.64 60.15 103.73 60.17 104.82 59.7 105.91 58.82 107.01 57.7 108.1 56.48 109.19 55.33 110.28 54.37 111.37 53.64 112.47 53.15 113.56 52.82 115.74 52.33 116.83 51.99 117.93 51.53 119.02 50.94 120.11 50.25 121.2 49.49 123.38 47.89 124.48 47.05 125.57 46.17 126.66 45.22 127.75 44.2 128.84 43.15 129.94 42.15 131.03 41.3 132.12 40.73 133.21 40.57 134.3 40.88 135.4 41.67 136.49 42.84 138.67 45.64 139.76 46.81 140.86 47.55 141.95 47.73 143.04 47.34 144.13 46.44 145.22 45.2 146.31 43.84 147.41 42.57 148.5 41.53 149.59 40.79 150.68 40.3 151.77 39.91 152.87 39.43 153.96 38.65 155.05 37.42 156.14 35.66 157.23 33.43 159.42 28.33 160.51 26 161.6 24.15 162.69 22.98 163.79 22.54 164.88 22.76 165.97 23.47 168.15 25.38 169.24 26.09 170.34 26.42 171.43 26.34 172.52 25.91 174.7 24.62 175.8 24.13 176.89 23.94 177.98 24.14 179.07 24.73 180.16 25.67 181.26 26.88 182.35 28.27 183.44 29.78 184.53 31.39 185.62 33.08 186.72 34.88 187.81 36.83 188.9 38.91 191.08 43.34 192.17 45.52 193.27 47.52 194.36 49.22 195.45 50.54 196.54 51.44 197.63 51.94 198.73 52.12 199.82 52.09 200.91 51.99 202 51.96 203.09 52.13 204.19 52.61 205.28 53.46 206.37 54.72 207.46 56.39 208.55 58.46 209.65 60.88 210.74 63.55 212.92 69.18 214.01 71.83 215.1 74.12 216.2 75.88 217.29 76.98 218.38 77.31 219.47 76.88 220.56 75.73 221.66 74.02 222.75 71.91 224.93 67.34 226.02 65.21 227.12 63.31 228.21 61.64 229.3 60.14 230.39 58.71 231.48 57.22 232.58 55.57 233.67 53.71 234.76 51.63 235.85 49.37 238.03 44.66 239.13 42.42 240.22 40.39 241.31 38.64 242.4 37.22 243.49 36.18 244.59 35.57 245.68 35.47 246.77 35.92 247.86 37.01 248.95 38.75 250.05 41.14 251.14 44.08 252.23 47.41 253.32 50.91 254.41 54.3 255.51 57.32 256.6 59.74 257.69 61.41 258.78 62.3 259.87 62.49 260.96 62.15 262.06 61.53 263.15 60.88 264.24 60.41 265.33 60.28 266.42 60.56 267.52 61.25 268.61 62.3 269.7 63.63 270.79 65.21 271.88 67.02 272.98 69.09 274.07 71.5 275.16 74.29 276.25 77.48 277.34 81.02 279.53 88.43 280.62 91.77 281.71 94.5 282.8 96.39 283.89 97.36 284.99 97.46 286.08 96.89 287.17 96 288.26 95.16 289.35 94.75 290.45 95.04 291.54 96.17 292.63 98.08 293.72 100.59 295.91 106.14 297 108.55 298.09 110.44 299.18 111.75 300.27 112.61 301.36 113.23 302.46 113.9 303.55 114.9 304.64 116.42 305.73 118.55 306.82 121.26 307.92 124.39 310.1 130.98 311.19 134 312.28 136.64 313.38 138.83 314.47 140.6 315.56 142 316.65 143.12 317.74 143.98 318.84 144.6 319.93 144.94 321.02 144.93 322.11 144.51 323.2 143.68 324.29 142.47 325.39 141.01 326.48 139.44 327.57 137.94 328.66 136.67 329.75 135.72 330.85 135.06 331.94 134.63 333.03 134.25 334.12 133.73 335.21 132.93 336.31 131.76 337.4 130.22 339.58 126.63 340.67 125.02 341.77 123.85 342.86 123.27 343.95 123.35 345.04 124.06 346.13 125.27 347.22 126.82 348.32 128.56 349.41 130.4 350.5 132.29 351.59 134.31 352.68 136.56 353.78 139.14 354.87 142.1 355.96 145.42 358.14 152.38 359.24 155.48 360.33 157.92 361.42 159.48 362.51 160.12 363.6 159.95 364.7 159.25 365.79 158.43 366.88 157.95 367.97 158.21 369.06 159.48 370.15 161.83 371.25 165.14 372.34 169.08 373.43 173.24 374.52 177.17 375.61 180.51 376.71 183.04 377.8 184.74 378.89 185.77 379.98 186.41 381.07 187 382.17 187.85 383.26 189.19 384.35 191.06 385.44 193.39 387.63 198.61 388.72 201.03 389.81 203.11 390.9 204.84 391.99 206.33 393.08 207.79 394.18 209.44 395.27 211.49 396.36 214.05 397.45 217.07 399.64 223.82 400.73 227 401.82 229.7 402.91 231.8 404 233.27 405.1 234.27 406.19 235.05 407.28 235.88 408.37 237.04 409.46 238.67 410.56 240.79 412.74 245.72 413.83 247.88 414.92 249.38 416.01 249.97 417.11 249.56 418.2 248.24 419.29 246.25 420.38 243.95 421.47 241.73 422.57 239.92 423.66 238.69 424.75 238.06 425.84 237.86 426.93 237.8 428.03 237.48 429.12 236.59 430.21 234.89 431.3 232.33 432.39 229.05 434.58 221.7 435.67 218.52 436.76 216.21 437.85 215.02 438.94 215.02 440.04 216.05 441.13 217.84 443.31 222.17 444.4 224.05 445.5 225.49 446.59 226.51 447.68 227.31 448.77 228.15 449.86 229.33 450.96 231.08 452.05 233.5 453.14 236.5 455.32 243.18 456.41 246.08 457.51 248.23 458.6 249.4 459.69 249.63 460.78 249.15 461.87 248.4 462.97 247.93 464.06 248.31 465.15 250.01 466.24 253.3 467.33 258.17 468.43 264.36 469.52 271.35 470.61 278.53 471.7 285.23 472.79 290.92 473.89 295.25 474.98 298.15 476.07 299.81 477.16 300.64 478.25 301.13 479.34 301.8 480.44 303.02 481.53 304.98 482.62 307.65 483.71 310.78 484.8 313.99 485.9 316.85 486.99 319.04 488.08 320.38 489.17 320.92 490.26 320.91 491.36 320.8 492.45 321.08 493.54 322.2 494.63 324.48 495.72 328 496.82 332.61 497.91 337.91 499 343.36 500.09 348.37 501.18 352.39 502.27 355.01 503.37 356.05 504.46 355.53 505.55 353.68 506.64 350.83 507.73 347.39 509.92 340.02 511.01 336.49 512.1 333.11 514.29 326.51 515.38 323.12 517.56 316.05 518.65 312.64 519.75 309.61 520.84 307.2 521.93 305.6 523.02 304.95 524.11 305.26 525.2 306.45 526.3 308.33 527.39 310.64 528.48 313.1 529.57 315.41 530.66 317.33 531.76 318.68 532.85 319.35 533.94 319.34 535.03 318.69 536.12 317.55 538.31 314.74 539.4 313.62 540.49 313.07 541.58 313.33 542.68 314.56 543.77 316.76 544.86 319.81 545.95 323.43 547.04 327.24 548.13 330.8 549.23 333.7 550.32 335.62 551.41 336.43 552.5 336.18 553.59 335.15 554.69 333.79 555.78 332.62 556.87 332.14 557.96 332.74 559.05 334.58 560.15 337.57 561.24 341.4 562.33 345.55 563.42 349.43 564.51 352.5 565.61 354.36 566.7 354.87 567.79 354.15 568.88 352.58 569.97 350.71 571.06 349.17 572.16 348.52 573.25 349.17 574.34 351.27 575.43 354.73 576.52 359.22 578.71 369.24 579.8 373.68 580.89 377.16 581.98 379.45 583.08 380.52 584.17 380.49 585.26 379.64 586.35 378.28 587.44 376.77 588.54 375.4 589.63 374.42 590.72 373.97 591.81 374.15 592.9 374.92 593.99 376.22 595.09 377.88 596.18 379.71 597.27 381.45 598.36 382.82 599.45 383.55 600.55 383.43 601.64 382.32 602.73 380.24 603.82 377.34 604.91 373.94 606.01 370.48 607.1 367.42 608.19 365.23 609.28 364.24 610.37 364.58 611.46 366.17 612.56 368.7 613.65 371.68 614.74 374.53 615.83 376.69 616.92 377.74 618.02 377.41 619.11 375.72 620.2 372.86 621.29 369.22 622.38 365.23 623.48 361.32 624.57 357.81 625.66 354.87 626.75 352.5 627.84 350.56 630.03 347.1 631.12 345.19 632.21 342.99 633.3 340.51 634.39 337.82 636.58 332.15 638.76 326.34 639.85 323.28 640.95 320.05 643.13 313.17 644.22 309.9 645.31 307.2 646.41 305.5 647.5 305.2 648.59 306.56 649.68 309.67 650.77 314.33 651.87 320.16 654.05 333.01 655.14 338.87 656.23 343.79 657.32 347.67 658.42 350.66 660.6 355.53 661.69 358.36 662.78 361.96 663.88 366.41 664.97 371.55 666.06 376.96 667.15 382.07 668.24 386.3 669.34 389.19 670.43 390.5 671.52 390.3 672.61 388.95 673.7 387.02 674.8 385.17 675.89 384.03 676.98 384.01 678.07 385.29 679.16 387.72 680.25 390.9 681.35 394.28 682.44 397.24 683.53 399.26 684.62 400 685.71 399.35 686.81 397.42 687.9 394.5 688.99 390.98 690.08 387.23 691.17 383.58 692.27 380.21 693.36 377.19 694.45 374.46 696.63 369.38 699.91 361.69 701 359.25 702.09 357.04 703.18 355.12 704.28 353.44 705.37 351.87 706.46 350.21 707.55 348.2 708.64 345.56 709.74 342.11 710.83 337.74 711.92 332.46 713.01 326.44 714.1 319.92 715.2 313.22 716.29 306.68 717.38 300.65 718.47 295.39 719.56 291.15 720.66 288.07 721.75 286.26 722.84 285.77 723.93 286.6 725.02 288.65 726.11 291.77 727.21 295.7 729.39 304.58 730.48 308.73 731.57 312.19 732.67 314.7 733.76 316.14 734.85 316.55 735.94 316.1 737.03 315.1 738.13 313.87 739.22 312.74 740.31 311.94 741.4 311.6 742.49 311.7 743.59 312.1 744.68 312.55 745.77 312.81 746.86 312.63 747.95 311.85 749.04 310.42 750.14 308.36 751.23 305.78 752.32 302.82 754.5 296.44 755.6 293.34 756.69 290.47 757.78 287.97 758.87 285.99 759.96 284.68 761.06 284.23 762.15 284.84 763.24 286.67 764.33 289.77 765.42 294.04 766.52 299.22 767.61 304.85 768.7 310.36 769.79 315.2 770.88 318.91 771.97 321.21 773.07 322.07 774.16 321.6 775.25 320.07 776.34 317.8 777.43 315.07 779.62 309.2 780.71 306.41 781.8 303.87 782.89 301.63 783.99 299.7 785.08 298.05 786.17 296.65 787.26 295.56 788.35 294.85 789.44 294.69 790.54 295.17 791.63 296.3 793.81 299.44 794.9 300.45 796 300.28 797.09 298.48 798.18 294.83 799.27 289.44 800.36 282.71 802.55 267.65 803.64 260.58 804.73 254.47 805.82 249.51 806.92 245.67 808.01 242.68 809.1 240.08 810.19 237.36 811.28 234.08 812.37 229.95 813.47 224.97 814.56 219.39 815.65 213.67 816.74 208.34 817.83 203.88 818.93 200.58 820.02 198.52 821.11 197.61 822.2 197.63 823.29 198.3 824.39 199.39 825.48 200.69 827.66 203.43 830.94 207.4 833.12 210.07 834.21 211.27 835.3 212.2 836.4 212.72 837.49 212.75 838.58 212.36 839.67 211.73 840.76 211.13 841.86 210.83 842.95 211 844.04 211.66 845.13 212.7 846.22 213.89 847.32 214.98 848.41 215.72 849.5 215.93 850.59 215.54 851.68 214.52 852.78 212.99 854.96 209.26 856.05 207.67 857.14 206.63 858.23 206.33 859.33 206.75 860.42 207.72 861.51 208.99 862.6 210.31 864.79 212.84 865.88 214.29 866.97 216.16 868.06 218.64 869.15 221.72 871.34 228.77 872.43 231.92 873.52 234.24 874.61 235.35 875.71 235.05 876.8 233.3 877.89 230.25 878.98 226.24 881.16 217.27 882.26 213.37 883.35 210.41 884.44 208.54 885.53 207.64 886.62 207.34 887.72 207.11 888.81 206.4 889.9 204.77 890.99 201.95 892.08 197.94 893.18 192.92 894.27 187.23 896.45 175.34 897.54 169.73 898.64 164.53 899.73 159.71 901.91 150.66 903 146.03 904.09 141.15 905.19 135.97 907.37 125.15 908.46 119.99 909.55 115.4 910.65 111.59 911.74 108.69 912.83 106.61 913.92 105.13 915.01 103.92 916.11 102.65 917.2 101.06 918.29 99.1 919.38 96.91 920.47 94.82 921.57 93.21 922.66 92.46 923.75 92.8 924.84 94.28 925.93 96.74 927.02 99.85 928.12 103.21 929.21 106.39 930.3 109.03 931.39 110.87 932.48 111.84 933.58 112.09 934.67 111.93 935.76 111.83 936.85 112.28 937.94 113.68 939.04 116.21 940.13 119.72 941.22 123.74 942.31 127.6 943.4 130.59 944.49 132.16 945.59 132.11 946.68 130.63 947.77 128.25 948.86 125.71 949.95 123.76 951.05 122.9 952.14 123.33 953.23 124.9 954.32 127.2 955.41 129.76 956.51 132.13 957.6 134.06 958.69 135.45 959.78 136.35 960.87 136.86 961.97 137.11 963.06 137.21 964.15 137.28 965.24 137.43 966.33 137.76 967.42 138.31 968.52 138.93 969.61 139.28 970.7 138.88 971.79 137.25 972.88 134.06 973.98 129.33 975.07 123.41 976.16 116.95 977.25 110.68 978.34 105.18 979.44 100.81 980.53 97.64 981.62 95.57 982.71 94.43 983.8 94.02 984.9 94.11 985.99 94.37 987.08 94.32 988.17 93.38 989.26 91.04 990.35 87.08 991.45 81.67 993.63 69.07 994.72 63.42 995.81 58.87 996.91 55.42 998 52.71 999.09 50.22 1000.18 47.52 1001.27 44.39 1002.37 40.87 1004.55 33.28 1005.64 29.61 1006.73 26.33 1007.83 23.76 1008.92 22.35 1010.01 22.55 1011.1 24.64 1012.19 28.57 1013.28 33.87 1014.38 39.76 1015.47 45.38 1016.56 50.04 1017.65 53.41 1018.74 55.5 1019.84 56.55 1020.93 56.81 1022.02 56.49 1023.11 55.71 1024.2 54.59 1025.3 53.31 1026.39 52.17 1027.48 51.41 1028.57 51.14 1029.66 51.21 1030.76 51.34 1031.85 51.18 1032.94 50.63 1034.03 49.88 1035.12 49.4 1036.21 49.7 1037.31 51.13 1038.4 53.67 1039.49 57.01 1041.67 64.41 1042.77 68.07 1043.86 71.84 1044.95 75.93 1047.13 84.65 1048.23 88.29 1049.32 90.6 1050.41 91.21 1051.5 90.28 1052.59 88.47 1053.69 86.73 1054.78 85.93 1055.87 86.58 1056.96 88.66 1058.05 91.77 1059.14 95.31 1060.24 98.74 1061.33 101.75 1062.42 104.24 1063.51 106.16 1064.6 107.41 1065.7 107.73 1066.79 106.78 1067.88 104.37 1068.97 100.62 1071.16 91.55 1072.25 88.02 1073.34 86.12 1074.43 86.02 1075.52 87.22 1076.62 88.81 1077.71 89.71 1078.8 89.03 1079.89 86.37 1080.98 81.81 1082.07 75.85 1083.17 69.12 1084.26 62.23 1085.35 55.63 1086.44 49.64 1087.53 44.51 1088.63 40.51 1089.72 37.89 1090.81 36.72 1091.9 36.78 1092.99 37.52 1094.09 38.16 1095.18 37.92 1096.27 36.29 1097.36 33.16 1098.45 28.84 1099.55 23.82 1100.64 18.65 1101.73 13.7 1102.82 9.22 1103.91 5.37 1105 2.37 1106.1 0.51 1107.19 0 1108.28 0.83 1109.37 2.65 1110.46 4.88 1111.56 6.83 1112.65 8.07 1113.74 8.49 1114.83 8.37 1115.92 8.08 1117.02 7.86 1118.11 7.73 1119.2 7.56 1120.29 7.34 1121.38 7.42 1122.47 8.54 1123.57 11.55 1124.66 17.02 1125.75 24.8 1127.93 43.32 1129.03 51.54 1130.12 58.11 1131.21 63.31 1132.3 67.97 1133.39 72.98 1134.49 78.75 1135.58 84.99 1136.67 90.99 1137.76 96.1 1138.85 100.18 1139.95 103.78 1141.04 107.75 1142.13 112.77 1143.22 118.83 1144.31 125.14 1145.4 130.53 1146.5 134.03 1147.59 135.4 1148.68 135.26 1149.77 134.73 1150.86 134.81 1151.96 135.84 1153.05 137.3 1154.14 138.19 1155.23 137.49 1156.32 134.78 1157.42 130.31 1159.6 119.42 1160.69 114.53 1161.78 110.44 1162.88 107.12 1163.97 104.53 1165.06 102.73 1166.15 101.86 1167.24 101.83 1168.33 102.19 1169.43 102.11 1170.52 100.75 1171.61 97.63 1172.7 92.95 1173.79 87.61 1174.89 82.78 1175.98 79.36 1177.07 77.58 1178.16 76.91 1179.25 76.38 1180.35 75.09 1181.44 72.6 1182.53 69.09 1183.62 65.14 1184.71 61.3 1185.81 57.81 1186.9 54.51 1187.99 51.11 1189.08 47.42 1190.17 43.65 1191.26 40.34 1192.36 38.11 1193.45 37.4 1194.54 38.2 1195.63 40.05 1196.72 42.31 1197.82 44.34 1198.91 45.76 1200 46.44"/></g><g><text class="svg-plot-label svg-plot-t" x="0" y="0" transform="rotate(-90) translate(-199.1 -20.87)">signal</text><text class="svg-plot-value" style="text-anchor:end" x="-5" y="123.316">1</text><text class="svg-plot-value" style="text-anchor:end" x="-5" y="285.42">-1</text><text class="svg-plot-value" style="text-anchor:end" x="-5" y="204.368">0</text><text class="svg-plot-label svg-plot-t" x="600" y="424.1">time</text><text class="svg-plot-value" x="1187.99" y="408.6">1088</text><text class="svg-plot-value" x="0" y="408.6">0</text><text class="svg-plot-value" x="1153.05" y="408.6">1056</text><text class="svg-plot-value" x="0" y="408.6">0</text><text class="svg-plot-value" x="1118.11" y="408.6">1024</text><text class="svg-plot-value" x="0" y="408.6">0</text><text class="svg-plot-value" x="1083.17" y="408.6">992</text><text class="svg-plot-value" x="0" y="408.6">0</text><text class="svg-plot-value" x="1048.23" y="408.6">960</text><text class="svg-plot-value" x="0" y="408.6">0</text><text class="svg-plot-value" x="1013.28" y="408.6">928</text><text class="svg-plot-value" x="0" y="408.6">0</text><text class="svg-plot-value" x="978.344" y="408.6">896</text><text class="svg-plot-value" x="0" y="408.6">0</text><text class="svg-plot-value" x="943.403" y="408.6">864</text><text class="svg-plot-value" x="0" y="408.6">0</text><text class="svg-plot-value" x="908.462" y="408.6">832</text><text class="svg-plot-value" x="0" y="408.6">0</text><text class="svg-plot-value" x="873.521" y="408.6">800</text><text class="svg-plot-value" x="0" y="408.6">0</text><text class="svg-plot-value" x="838.581" y="408.6">768</text><text class="svg-plot-value" x="0" y="408.6">0</text><text class="svg-plot-value" x="803.64" y="408.6">736</text><text class="svg-plot-value" x="0" y="408.6">0</text><text class="svg-plot-value" x="768.699" y="408.6">704</text><text class="svg-plot-value" x="0" y="408.6">0</text><text class="svg-plot-value" x="733.758" y="408.6">672</text><text class="svg-plot-value" x="0" y="408.6">0</text><text class="svg-plot-value" x="698.817" y="408.6">640</text><text class="svg-plot-value" x="0" y="408.6">0</text><text class="svg-plot-value" x="663.876" y="408.6">608</text><text class="svg-plot-value" x="0" y="408.6">0</text><text class="svg-plot-value" x="628.935" y="408.6">576</text><text class="svg-plot-value" x="0" y="408.6">0</text><text class="svg-plot-value" x="593.995" y="408.6">544</text><text class="svg-plot-value" x="0" y="408.6">0</text><text class="svg-plot-value" x="559.054" y="408.6">512</text><text class="svg-plot-value" x="0" y="408.6">0</text><text class="svg-plot-value" x="524.113" y="408.6">480</text><text class="svg-plot-value" x="0" y="408.6">0</text><text class="svg-plot-value" x="489.172" y="408.6">448</text><text class="svg-plot-value" x="0" y="408.6">0</text><text class="svg-plot-value" x="454.231" y="408.6">416</text><text class="svg-plot-value" x="0" y="408.6">0</text><text class="svg-plot-value" x="419.29" y="408.6">384</text><text class="svg-plot-value" x="0" y="408.6">0</text><text class="svg-plot-value" x="384.349" y="408.6">352</text><text class="svg-plot-value" x="0" y="408.6">0</text><text class="svg-plot-value" x="349.409" y="408.6">320</text><text class="svg-plot-value" x="0" y="408.6">0</text><text class="svg-plot-value" x="314.468" y="408.6">288</text><text class="svg-plot-value" x="0" y="408.6">0</text><text class="svg-plot-value" x="279.527" y="408.6">256</text><text class="svg-plot-value" x="0" y="408.6">0</text><text class="svg-plot-value" x="244.586" y="408.6">224</text><text class="svg-plot-value" x="0" y="408.6">0</text><text class="svg-plot-value" x="209.645" y="408.6">192</text><text class="svg-plot-value" x="0" y="408.6">0</text><text class="svg-plot-value" x="174.704" y="408.6">160</text><text class="svg-plot-value" x="0" y="408.6">0</text><text class="svg-plot-value" x="139.763" y="408.6">128</text><text class="svg-plot-value" x="0" y="408.6">0</text><text class="svg-plot-value" x="104.823" y="408.6">96</text><text class="svg-plot-value" x="0" y="408.6">0</text><text class="svg-plot-value" x="69.8817" y="408.6">64</text><text class="svg-plot-value" x="0" y="408.6">0</text><text class="svg-plot-value" x="34.9409" y="408.6">32</text><text class="svg-plot-value" x="0" y="408.6">0</text><text class="svg-plot-value" x="0" y="408.6">0</text><text class="svg-plot-value" x="0" y="408.6">0</text><text class="svg-plot-label svg-plot-t0" style="text-anchor:start" x="1203" y="45.239">stuff6</text></g><defs><g id="svg-plot-marker0" class="svg-plot-marker"><circle cx="0" cy="0" r="1" stroke="none"/></g><g id="svg-plot-marker1" class="svg-plot-marker"><path d="M0 0.9 -0.9 0 0 -0.9 0.9 0Z" fill="#FFFA" stroke-linejoin="miter" stroke-width="0.6"/></g><g id="svg-plot-marker2" class="svg-plot-marker"><path fill="none" d="M0 -1.2 0 1.2 M -1.2 0 1.2 0" stroke-width="0.7"/></g><g id="svg-plot-marker3" class="svg-plot-marker"><circle cx="0" cy="0" fill="#FFFA" r="0.8" stroke-width="0.65"/></g><g id="svg-plot-marker4" class="svg-plot-marker"><path stroke="none" d="M0 -1.25 1.25 0.9 -1.25 0.9Z"/></g><mask id="svg-plot-hatch0"><rect x="-1754" y="-1754" width="3508" height="3508" fill="url(#svg-plot-hatch0-pattern)" style="transform:rotate(30deg)"/></mask><pattern patternUnits="userSpaceOnUse" id="svg-plot-hatch0-pattern" class="svg-plot-hatch" x="0" y="0" width="10" height="2.4" stroke="#FFF" fill="none"><line x1="-1" x2="11" y1="1.2" y2="1.2"/></pattern><mask id="svg-plot-hatch1"><rect x="-1754" y="-1754" width="3508" height="3508" fill="url(#svg-plot-hatch1-pattern)" style="transform:rotate(-50deg)"/></mask><pattern patternUnits="userSpaceOnUse" id="svg-plot-hatch1-pattern" class="svg-plot-hatch" x="0" y="0" width="10" height="3" stroke="#FFF" fill="none"><line x1="-1" x2="11" y1="1.5" y2="1.5"/></pattern><mask id="svg-plot-hatch3"><rect x="-1754" y="-1754" width="3508" height="3508" fill="url(#svg-plot-hatch3-pattern)" style="transform:rotate(8deg)"/><rect x="-1754" y="-1754" width="3508" height="3508" fill="url(#svg-plot-hatch3-pattern)" style="transform:rotate(93deg)"/></mask><pattern patternUnits="userSpaceOnUse" id="svg-plot-hatch3-pattern" class="svg-plot-hatch" x="0" y="0" width="10" height="3" stroke="#FFF" fill="none"><line x1="-1" x2="11" y1="1.5" y2="1.5"/></pattern></defs><style>.svg-plot{stroke-linecap:butt;stroke-linejoin:round;}.svg-plot-bg{fill:none;stroke:none;}.svg-plot-axis{stroke:none;fill:#FFFFFFD9;}.svg-plot-legend{stroke:none;fill:#FFFFFFE4;}.svg-plot-line{stroke:blue;fill:none;stroke-width:1px;stroke-linejoin:round;}.svg-plot-fill{stroke:none;opacity:0.6;}.svg-plot-major{stroke:#000;stroke-width:1px;stroke-linecap:square;fill:none;}.svg-plot-minor{stroke:#0000004D;stroke-width:0.5px;stroke-dasharray:0.5 1.5;stroke-linecap:round;fill:none;}.svg-plot-tick{stroke:#000;fill:none;stroke-width:1px;stroke-linecap:butt;}.svg-plot-value,.svg-plot-label{font-family:Arial,sans-serif;fill:#000;stroke:#FFFFFF48;stroke-width:2.5px;paint-order:stroke fill;text-anchor:middle;dominant-baseline:central;alignment-baseline:baseline;}.svg-plot-label{font-size:12px;}.svg-plot-value{font-size:9px;}.svg-plot-hatch{stroke:#FFF;stroke-width:1px;}.svg-plot-marker{transform:scale(3.25);}.svg-plot-s{stroke:#000;}.svg-plot-f,.svg-plot-t{fill:#000;}.svg-plot-s0{stroke:#CC0000}.svg-plot-f0,.svg-plot-t0{fill:#CC0000}.svg-plot-s1{stroke:#0073E6}.svg-plot-f1,.svg-plot-t1{fill:#0073E6}.svg-plot-s2{stroke:#00B300}.svg-plot-f2,.svg-plot-t2{fill:#00B300}.svg-plot-s3{stroke:#806600}.svg-plot-f3,.svg-plot-t3{fill:#806600}.svg-plot-s4{stroke:#E69900}.svg-plot-f4,.svg-plot-t4{fill:#E69900}.svg-plot-s5{stroke:#CC00CC}.svg-plot-f5,.svg-plot-t5{fill:#CC00CC}.svg-plot-d0{stroke-width:0.9px}.svg-plot-d1{stroke-dasharray:2.8 1.6}.svg-plot-d2{stroke-dasharray:1.2 1.2}.svg-plot-d3{stroke-dasharray:5 4}.svg-plot-d4{stroke-dasharray:4 1 1 1 1 1}.svg-plot-d5{stroke-dasharray:10 3}.svg-plot-d6{stroke-dasharray:4 2 1 2}.svg-plot-h0{mask:url(#svg-plot-hatch0)}.svg-plot-h1{mask:url(#svg-plot-hatch1)}.svg-plot-h2{opacity:0.2}.svg-plot-h3{mask:url(#svg-plot-hatch3)}#svg-plot-hatch0-pattern{stroke-width:0.9px}#svg-plot-hatch3-pattern{stroke-width:0.7px}.svg-plot-value,.svg-plot-label{font-family:Verdana,sans-serif;}.svg-plot-axis{fill:#EEE;}.svg-plot-tick{stroke:#666;stroke-width:0.75px;}.svg-plot-value{fill:#666;opacity:0.8;font-weight:bold;}.svg-plot-major{stroke:#FFF;stroke-width:1.5px;}.svg-plot-minor{stroke:#FFF;stroke-width:0.75px;stroke-dasharray:none;}</style><script>var q=document,x=setTimeout,a=Math.random,r=q.querySelector(&quot;style&quot;);r.textContent='@import &quot;/style/article/dist.css&quot;;'+r.textContent+'.svg-plot-value,.svg-plot-label{font-family:&quot;Geraint Dense&quot;,Arial,sans-serif}';var t=[];q.querySelectorAll(&quot;path&quot;).forEach(function(e){var y=e.getAttribute(&quot;d&quot;);t.push(function(){var f=40*a(),u=!0,g=2*(a()-.5),h=2*(a()-.5),k=2*(a()-.5),l=2*(a()-.5),m,n,B=y.replace(/([0-9\.]+) ([0-9\.]+)/g,function(C,z,A){function p(b,c){b=parseFloat(b);c=parseFloat(c);if(!u){var d=b-m,v=c-n;d=Math.sqrt(d*
		d+v*v);if(20&lt;d)return p(.5*(m+b),.5*(n+c)),p(b,c);f+=d;40&lt;f&amp;&amp;(f=0,g=h,k=l,h=2*(a()-.5),l=2*(a()-.5))}u=!1;m=b;n=c;d=f/40;b+=g+(h-g)*d;c+=k+(l-k)*d;result+=&quot; &quot;+b+&quot; &quot;+c}result=&quot;&quot;;p(z,A);return result});e.setAttribute(&quot;d&quot;,B)})});var w=function(){t.forEach(function(e){e()});x(w,240*(.9+.2*a()))};w()
		</script></svg>