<?xml version="1.0" encoding="utf-8" standalone="no"?>
<!DOCTYPE svg PUBLIC "-//W3C//DTD SVG 1.1//EN" "http://www.w3.org/Graphics/SVG/1.1/DTD/svg11.dtd">
<svg version="1.1" class="svg-plot" xmlns="http://www.w3.org/2000/svg" width="1284.67pt" height="449.5pt" viewBox="-35.37 -10 1284.67 449.5" preserveAspectRatio="xMidYMid"><rect x="-25.37" y="0" width="1264.67" height="429.5" class="svg-plot-bg"/><rect x="0" y="0" width="1200" height="400" class="svg-plot-axis"/><line x1="0" x2="0" y1="0" y2="400" class="svg-plot-major"/><line x1="0" x2="0" y1="0" y2="400" class="svg-plot-major"/><line x1="0" x2="0" y1="0" y2="400" class="svg-plot-major"/><line x1="0" x2="0" y1="0" y2="400" class="svg-plot-major"/><line x1="0" x2="0" y1="0" y2="400" class="svg-plot-major"/><line x1="0" x2="0" y1="0" y2="400" class="svg-plot-major"/><line x1="0" x2="0" y1="0" y2="400" class="svg-plot-major"/><line x1="0" x2="0" y1="0" y2="400" class="svg-plot-major"/><line x1="0" x2="0" y1="0" y2="400" class="svg-plot-major"/><line x1="0" x2="0" y1="0" y2="400" class="svg-plot-major"/><line x1="0" x2="0" y1="0" y2="400" class="svg-plot-major"/><line x1="0" x2="0" y1="0" y2="400" class="svg-plot-major"/><line x1="0" x2="0" y1="0" y2="400" class="svg-plot-major"/><line x1="0" x2="0" y1="0" y2="400" class="svg-plot-major"/><line x1="0" x2="0" y1="0" y2="400" class="svg-plot-major"/><line x1="0" x2="0" y1="0" y2="400" class="svg-plot-major"/><line x1="0" x2="0" y1="0" y2="400" class="svg-plot-major"/><line x1="0" x2="0" y1="0" y2="400" class="svg-plot-major"/><line x1="0" x2="0" y1="0" y2="400" class="svg-plot-major"/><line x1="0" x2="0" y1="0" y2="400" class="svg-plot-major"/><line x1="0" x2="0" y1="0" y2="400" class="svg-plot-major"/><line x1="0" x2="0" y1="0" y2="400" class="svg-plot-major"/><line x1="0" x2="0" y1="0" y2="400" class="svg-plot-major"/><line x1="0" x2="0" y1="0" y2="400" class="svg-plot-major"/><line x1="0" x2="0" y1="0" y2="400" class="svg-plot-major"/><line x1="0" x2="0" y1="0" y2="400" class="svg-plot-major"/><line x1="0" x2="0" y1="0" y2="400" class="svg-plot-major"/><line x1="0" x2="0" y1="0" y2="400" class="svg-plot-major"/><line x1="0" x2="0" y1="0" y2="400" class="svg-plot-major"/><line x1="0" x2="0" y1="0" y2="400" class="svg-plot-major"/><line x1="0" x2="0" y1="0" y2="400" class="svg-plot-major"/><line x1="0" x2="0" y1="0" y2="400" class="svg-plot-major"/><line x1="0" x2="0" y1="0" y2="400" class="svg-plot-major"/><line x1="0" x2="0" y1="0" y2="400" class="svg-plot-major"/><line x1="0" x2="0" y1="0" y2="400" class="svg-plot-major"/><line x1="0" x2="1200" y1="198.152" y2="198.152" class="svg-plot-major"/><line x1="0" x2="1200" y1="227.535" y2="227.535" class="svg-plot-minor"/><line x1="0" x2="1200" y1="168.769" y2="168.769" class="svg-plot-minor"/><clipPath id="clip0"><rect x="-0.5" y="-0.5" width="1201" height="401"/></clipPath><g clip-path="url(#clip0)"><path class="svg-plot-line svg-plot-s0 svg-plot-d0" d="M 0 168.77 1.09 168.33 2.18 170.62 3.28 175.34 4.37 181.66 5.46 188.41 6.55 194.31 7.64 198.2 8.74 199.24 9.83 197 10.92 191.54 12.01 183.36 13.1 173.26 15.29 151.29 16.38 141.34 17.47 133.09 18.56 126.99 19.65 123.24 20.75 121.77 21.84 122.3 22.93 124.37 24.02 127.34 25.11 130.51 26.21 133.16 27.3 134.69 28.39 134.66 29.48 132.93 30.57 129.69 31.67 125.41 32.76 120.75 33.85 116.39 34.94 112.85 36.03 110.36 37.12 108.76 38.22 107.6 39.31 106.24 40.4 104.08 41.49 100.8 42.58 96.48 43.68 91.65 44.77 87.19 45.86 84.1 46.95 83.19 48.04 84.84 49.14 88.81 50.23 94.28 51.32 99.97 52.41 104.46 53.5 106.6 54.6 105.75 55.69 102.02 56.78 96.26 57.87 89.83 58.96 84.33 60.05 81.15 61.15 81.15 62.24 84.49 63.33 90.6 64.42 98.41 65.51 106.65 66.61 114.19 67.7 120.35 68.79 124.96 69.88 128.38 70.97 131.18 72.07 133.89 73.16 136.74 74.25 139.45 75.34 141.28 76.43 141.27 77.53 138.47 78.62 132.33 79.71 122.89 80.8 110.88 82.98 84.19 84.08 72.28 85.17 62.64 86.26 55.6 87.35 50.89 88.44 47.93 89.54 46.08 90.63 44.89 91.72 44.34 92.81 44.77 93.9 46.75 95 50.8 96.09 57.13 97.18 65.43 99.36 84.23 100.45 92.2 101.55 97.64 102.64 99.87 103.73 98.74 104.82 94.68 105.91 88.46 107.01 81.03 108.1 73.26 109.19 65.81 110.28 59.05 111.37 53.09 112.47 47.88 113.56 43.25 114.65 39.05 115.74 35.15 116.83 31.49 117.93 28.1 119.02 25.12 120.11 22.8 121.2 21.54 122.29 21.85 123.38 24.17 124.48 28.8 125.57 35.61 126.66 43.99 127.75 52.8 128.84 60.48 129.94 65.41 131.03 66.22 132.12 62.24 133.21 53.73 134.3 41.91 135.4 28.78 136.49 16.68 137.58 7.76 138.67 3.5 139.76 4.39 140.86 9.87 141.95 18.58 144.13 38.75 145.22 47.44 146.31 54.43 147.41 60.04 148.5 65.03 149.59 70.28 150.68 76.37 151.77 83.39 152.87 90.85 153.96 97.86 155.05 103.39 156.14 106.55 157.23 106.87 158.33 104.34 159.42 99.36 160.51 92.56 161.6 84.63 162.69 76.07 164.88 58.21 165.97 49.21 167.06 40.47 168.15 32.46 169.24 25.83 170.34 21.31 171.43 19.47 172.52 20.52 173.61 24.16 174.7 29.55 175.8 35.4 176.89 40.26 177.98 42.8 179.07 42.14 180.16 38.02 181.26 30.94 182.35 22.06 183.44 12.98 184.53 5.44 185.62 0.99 186.72 0.64 187.81 4.7 188.9 12.67 189.99 23.34 191.08 34.97 192.17 45.67 193.27 53.69 194.36 57.84 195.45 57.65 196.54 53.51 197.63 46.55 198.73 38.34 199.82 30.58 200.91 24.65 202 21.37 203.09 20.85 204.19 22.59 205.28 25.7 206.37 29.3 207.46 32.8 208.55 36.13 209.65 39.65 210.74 44.01 211.83 49.72 212.92 56.9 214.01 64.99 215.1 72.88 216.2 79.13 217.29 82.45 218.38 82.18 219.47 78.55 220.56 72.76 221.66 66.66 222.75 62.17 223.84 60.71 224.93 62.69 226.02 67.36 227.12 73 228.21 77.52 229.3 79.15 230.39 77.04 231.48 71.61 232.58 64.4 233.67 57.58 234.76 53.17 235.85 52.34 236.94 54.94 238.03 59.49 239.13 63.71 240.22 65.19 241.31 62.32 242.4 54.79 243.49 43.8 244.59 31.71 245.68 21.34 246.77 15.15 247.86 14.56 248.95 19.61 250.05 29.1 251.14 41.09 252.23 53.56 253.32 65.01 254.41 74.78 255.51 82.98 256.6 90.19 257.69 96.94 258.78 103.38 259.87 109.13 260.96 113.42 262.06 115.5 263.15 115 264.24 112.23 266.42 104.1 267.52 101.29 268.61 100.38 269.7 101.22 270.79 102.95 271.88 104.26 272.98 104 274.07 101.55 275.16 97.08 277.34 85.95 278.43 81.48 279.53 78.52 280.62 76.75 281.71 75.32 282.8 73.27 283.89 70.05 284.99 65.88 286.08 61.8 287.17 59.33 288.26 59.93 289.35 64.41 290.45 72.49 292.63 93.29 293.72 101.81 294.81 106.87 295.91 108.02 297 105.99 299.18 98.51 300.27 95.96 301.36 95.01 302.46 95.25 303.55 95.83 304.64 96.03 305.73 95.77 306.82 95.79 307.92 97.42 309.01 101.96 310.1 110 311.19 120.87 312.28 132.63 313.38 142.46 314.47 147.67 315.56 146.66 316.65 139.69 318.84 118.64 319.93 112.6 321.02 114.26 322.11 124.9 323.2 143.26 324.29 165.86 325.39 188.03 326.48 205.23 327.57 214.45 328.66 214.93 329.75 208.23 330.85 197.51 331.94 186.42 333.03 177.82 334.12 173.01 335.21 171.53 336.31 171.54 337.4 170.76 338.49 167.39 339.58 160.82 340.67 151.79 341.77 142.04 342.86 133.65 343.95 128.22 345.04 126.37 346.13 127.62 347.22 130.68 348.32 134.04 349.41 136.56 350.5 137.82 351.59 138.18 352.68 138.49 353.78 139.61 354.87 141.97 355.96 145.4 357.05 149.17 358.14 152.4 359.24 154.43 360.33 155.2 361.42 155.32 362.51 155.9 363.6 158.09 364.7 162.69 365.79 169.77 366.88 178.62 367.97 187.96 369.06 196.33 370.15 202.55 371.25 206.03 372.34 206.92 373.43 205.94 374.52 204.13 375.61 202.49 376.71 201.75 377.8 202.27 378.89 204.04 379.98 206.82 381.07 210.25 382.17 213.94 383.26 217.47 384.35 220.39 385.44 222.22 386.53 222.61 387.63 221.42 388.72 218.94 389.81 216 390.9 213.8 391.99 213.68 393.08 216.72 394.18 223.24 395.27 232.6 396.36 243.17 397.45 252.68 398.54 258.83 399.64 259.96 400.73 255.55 401.82 246.49 404 223.27 405.1 214.35 406.19 209.84 407.28 210.27 408.37 214.9 409.46 222.04 410.56 229.68 411.65 236.09 412.74 240.28 413.83 242.17 414.92 242.43 416.01 242.14 417.11 242.32 418.2 243.63 419.29 246.2 420.38 249.7 421.47 253.55 422.57 257.16 423.66 260.14 424.75 262.27 425.84 263.56 426.93 264.01 428.03 263.62 429.12 262.33 430.21 260.1 431.3 257.01 433.48 249.83 434.58 247.01 435.67 245.58 436.76 245.94 437.85 248.1 438.94 251.68 440.04 256.04 441.13 260.5 442.22 264.52 443.31 267.9 444.4 270.7 446.59 275.77 447.68 278.5 448.77 281.34 449.86 284.05 450.96 286.28 452.05 287.79 453.14 288.53 454.23 288.7 455.32 288.64 456.41 288.71 457.51 289.17 458.6 290.12 459.69 291.52 460.78 293.3 461.87 295.45 462.97 298.11 464.06 301.51 465.15 305.8 466.24 310.93 467.33 316.52 468.43 321.84 469.52 326.03 470.61 328.33 471.7 328.42 472.79 326.55 473.89 323.61 474.98 320.79 476.07 319.25 477.16 319.7 478.25 322.07 479.34 325.54 480.44 328.78 481.53 330.37 482.62 329.31 483.71 325.37 484.8 319.12 485.9 311.72 486.99 304.5 488.08 298.45 489.17 293.95 490.26 290.65 491.36 287.83 492.45 284.76 494.63 277.75 495.72 275.5 496.82 275.93 497.91 280.22 499 288.65 500.09 300.37 501.18 313.48 502.27 325.49 503.37 334.12 504.46 337.96 505.55 336.99 506.64 332.57 507.73 327.03 508.83 322.9 509.92 322.1 511.01 325.36 512.1 331.99 513.19 340.18 514.29 347.66 515.38 352.46 516.47 353.59 517.56 351.32 519.75 342.89 520.84 340.76 521.93 341.99 523.02 346.77 524.11 354.23 525.2 362.77 526.3 370.57 527.39 376.16 528.48 378.86 529.57 378.8 530.66 376.8 531.76 374 532.85 371.38 533.94 369.46 535.03 368.17 536.12 366.95 537.22 364.99 538.31 361.57 539.4 356.37 540.49 349.61 541.58 342.07 542.68 334.89 543.77 329.3 544.86 326.35 545.95 326.6 547.04 329.99 548.13 335.82 549.23 342.88 550.32 349.66 551.41 354.65 552.5 356.67 553.59 355.12 554.69 350.11 555.78 342.44 556.87 333.48 557.96 324.86 559.05 318.08 560.15 314.26 561.24 313.85 562.33 316.57 563.42 321.58 564.51 327.67 565.61 333.65 566.7 338.57 567.79 341.96 568.88 343.86 569.97 344.66 571.06 344.92 572.16 345.11 573.25 345.5 574.34 346.02 575.43 346.39 576.52 346.28 577.62 345.47 578.71 344.01 579.8 342.3 580.89 340.99 581.98 340.87 583.08 342.63 584.17 346.7 585.26 353.1 586.35 361.39 588.54 380.2 589.63 388.61 590.72 395.05 591.81 398.92 592.9 400 593.99 398.47 595.09 394.88 596.18 389.99 597.27 384.62 598.36 379.5 599.45 375.14 600.55 371.76 601.64 369.35 602.73 367.64 603.82 366.33 604.91 365.06 606.01 363.62 607.1 361.84 608.19 359.69 609.28 357.14 610.37 354.2 611.46 350.84 612.56 347.06 613.65 342.9 614.74 338.56 615.83 334.32 616.92 330.57 618.02 327.68 619.11 325.88 620.2 325.19 621.29 325.37 622.38 325.98 623.48 326.55 624.57 326.71 625.66 326.36 626.75 325.69 627.84 325.1 628.94 325.02 630.03 325.73 631.12 327.22 632.21 329.15 633.3 330.98 634.39 332.21 635.49 332.57 636.58 332.22 637.67 331.7 638.76 331.74 639.85 332.96 640.95 335.56 643.13 342.68 644.22 344.93 645.31 344.72 646.41 341.42 647.5 335.26 649.68 319.24 650.77 312.79 651.87 309.31 652.96 309.31 654.05 312.36 655.14 317.25 656.23 322.47 657.32 326.64 658.42 328.93 659.51 329.26 660.6 328.08 661.69 326.15 663.88 321.99 664.97 319.7 666.06 316.7 667.15 312.61 668.24 307.56 669.34 302.33 670.43 298.26 671.52 296.88 672.61 299.38 673.7 306.17 674.8 316.56 675.89 328.92 676.98 341.04 678.07 350.77 679.16 356.55 680.25 357.82 681.35 355.06 682.44 349.48 684.62 335.56 685.71 329.19 686.81 323.54 687.9 318.36 688.99 313.31 690.08 308.36 691.17 303.87 692.27 300.51 693.36 298.93 694.45 299.38 695.54 301.48 696.63 304.19 697.73 306.07 698.82 305.78 699.91 302.51 701 296.34 702.09 288.26 703.18 279.83 704.28 272.7 705.37 268.01 706.46 266.04 707.55 266.11 708.64 266.87 709.74 266.82 710.83 264.84 711.92 260.65 713.01 254.86 714.1 248.77 715.2 243.85 716.29 241.25 717.38 241.34 718.47 243.58 719.56 246.72 720.66 249.22 721.75 249.75 722.84 247.62 723.93 242.98 725.02 236.73 726.11 230.23 727.21 224.86 728.3 221.66 729.39 221.12 730.48 223.12 731.57 227.1 732.67 232.25 733.76 237.79 734.85 243.1 735.94 247.82 737.03 251.78 738.13 254.97 739.22 257.49 740.31 259.46 741.4 261.03 742.49 262.34 743.59 263.54 744.68 264.68 745.77 265.75 746.86 266.59 747.95 267.03 749.04 266.85 750.14 266.01 751.23 264.63 752.32 263.01 753.41 261.6 754.5 260.76 755.6 260.64 757.78 261.46 758.87 261.11 759.96 259.29 761.06 255.59 762.15 250.1 763.24 243.43 764.33 236.55 765.42 230.56 766.52 226.3 767.61 224.1 768.7 223.7 770.88 224.97 771.97 224.62 773.07 222.67 774.16 218.95 775.25 213.75 776.34 207.65 777.43 201.27 778.53 195.12 779.62 189.43 780.71 184.23 781.8 179.38 783.99 170.02 785.08 165.22 786.17 160.13 787.26 154.56 788.35 148.25 789.44 141.06 790.54 133.11 791.63 124.9 792.72 117.42 793.81 111.98 794.9 109.93 796 112.26 797.09 119.23 798.18 130.16 799.27 143.55 800.36 157.39 801.46 169.7 802.55 179.08 803.64 185.03 804.73 188.06 805.82 189.33 806.92 190.18 808.01 191.58 809.1 193.74 810.19 196.03 811.28 197.28 812.37 196.25 813.47 192.21 814.56 185.28 815.65 176.48 816.74 167.42 817.83 159.79 818.93 154.77 820.02 152.63 821.11 152.74 822.2 153.78 823.29 154.34 824.39 153.42 825.48 150.8 826.57 147.11 827.66 143.52 828.75 141.24 829.85 141.07 830.94 143.07 832.03 146.59 833.12 150.54 834.21 153.92 835.3 156.14 836.4 157.25 837.49 157.83 838.58 158.61 839.67 159.98 840.76 161.72 841.86 162.87 842.95 162.06 844.04 158.05 845.13 150.28 846.22 139.28 847.32 126.7 848.41 114.86 849.5 106.09 850.59 101.97 851.68 102.68 852.78 106.97 853.87 112.41 854.96 116.16 856.05 115.85 857.14 110.32 858.23 99.99 859.33 86.69 860.42 73.12 861.51 61.99 862.6 55.26 863.69 53.6 864.79 56.32 865.88 61.66 866.97 67.43 868.06 71.68 869.15 73.25 870.25 71.99 871.34 68.73 872.43 64.89 873.52 62.06 874.61 61.55 875.71 64.07 876.8 69.64 877.89 77.66 878.98 87.1 880.07 96.76 881.16 105.51 882.26 112.48 883.35 117.17 884.44 119.5 885.53 119.82 886.62 118.78 887.72 117.18 888.81 115.77 889.9 115.08 890.99 115.21 892.08 115.81 893.18 116.14 894.27 115.29 895.36 112.46 896.45 107.18 897.54 99.52 898.64 90.09 899.73 79.88 900.82 70 901.91 61.37 903 54.55 904.09 49.6 905.19 46.2 906.28 43.79 907.37 41.88 908.46 40.12 909.55 38.45 910.65 37.01 911.74 36.05 912.83 35.73 913.92 36.13 915.01 37.19 916.11 38.79 917.2 40.86 918.29 43.41 919.38 46.47 920.47 50.08 921.57 54.08 922.66 58.18 923.75 61.91 924.84 64.87 925.93 66.93 927.02 68.35 928.12 69.85 929.21 72.36 930.3 76.7 931.39 83.12 933.58 98.9 934.67 104.66 935.76 106.19 936.85 102.08 937.94 92.22 939.04 78.01 940.13 62.16 941.22 47.98 942.31 38.43 943.4 35.28 944.49 38.51 945.59 46.34 946.68 55.74 947.77 63.41 948.86 66.75 949.95 64.63 951.05 57.65 952.14 47.78 953.23 37.61 954.32 29.45 955.41 24.5 956.51 22.59 957.6 22.39 958.69 22.05 959.78 20 960.87 15.66 963.06 3.78 964.15 0 965.24 0.01 966.33 4.38 967.42 12.34 968.52 21.98 969.61 30.9 970.7 37.01 971.79 39.24 972.88 37.89 973.98 34.46 975.07 31.14 976.16 29.97 977.25 32.2 978.34 37.86 979.44 45.8 980.53 54.14 981.62 60.89 982.71 64.65 983.8 64.97 984.9 62.42 985.99 58.27 987.08 54.01 988.17 50.82 989.26 49.24 990.35 49.08 991.45 49.67 992.54 50.21 993.63 50.1 994.72 49.22 995.81 47.89 996.91 46.7 998 46.18 999.09 46.55 1000.18 47.59 1001.27 48.75 1002.37 49.34 1003.46 48.91 1004.55 47.42 1005.64 45.39 1006.73 43.73 1007.83 43.45 1008.92 45.31 1010.01 49.53 1011.1 55.63 1012.19 62.56 1013.28 68.92 1014.38 73.39 1015.47 75.11 1016.56 73.89 1017.65 70.24 1019.84 60.45 1020.93 56.96 1022.02 55.69 1023.11 56.87 1024.2 60.06 1025.3 64.26 1026.39 68.2 1027.48 70.6 1028.57 70.45 1029.66 67.25 1030.76 61.06 1031.85 52.52 1034.03 32.79 1035.12 24.15 1036.21 17.8 1037.31 14.45 1038.4 14.35 1039.49 17.29 1040.58 22.72 1041.67 29.84 1043.86 45.51 1044.95 52.39 1046.04 57.78 1047.13 61.3 1048.23 62.81 1049.32 62.37 1050.41 60.27 1051.5 56.99 1052.59 53.16 1053.69 49.48 1054.78 46.64 1055.87 45.17 1056.96 45.34 1058.05 47.11 1059.14 50.12 1061.33 57.47 1062.42 60.62 1063.51 62.99 1064.6 64.7 1065.7 66.19 1066.79 68.14 1067.88 71.18 1068.97 75.72 1070.06 81.72 1072.25 95.69 1073.34 101.66 1074.43 105.63 1075.52 107.03 1076.62 105.94 1077.71 103.04 1078.8 99.56 1079.89 96.94 1080.98 96.46 1082.07 98.94 1083.17 104.48 1084.26 112.4 1085.35 121.45 1086.44 130.03 1087.53 136.66 1088.63 140.27 1089.72 140.44 1090.81 137.47 1091.9 132.19 1092.99 125.68 1094.09 118.97 1095.18 112.73 1096.27 107.12 1097.36 101.87 1098.45 96.44 1099.55 90.35 1100.64 83.43 1101.73 76.03 1102.82 68.96 1103.91 63.38 1105 60.45 1106.1 61.03 1107.19 65.34 1108.28 72.99 1109.37 83 1110.46 94.07 1111.56 104.9 1112.65 114.56 1113.74 122.59 1114.83 129.06 1115.92 134.4 1117.02 139.07 1118.11 143.37 1119.2 147.19 1120.29 150.02 1121.38 151.13 1122.47 149.79 1123.57 145.58 1124.66 138.59 1125.75 129.5 1126.84 119.43 1127.93 109.74 1129.03 101.7 1130.12 96.22 1131.21 93.72 1132.3 94.08 1133.39 96.78 1134.49 101.1 1135.58 106.31 1137.76 117.33 1138.85 122.67 1141.04 133.11 1142.13 138.47 1143.22 144.08 1144.31 149.98 1146.5 162.35 1147.59 168.3 1148.68 173.45 1149.77 177.14 1150.86 178.72 1151.96 177.67 1153.05 173.89 1154.14 167.83 1155.23 160.59 1156.32 153.77 1157.42 149.2 1158.51 148.57 1159.6 152.94 1160.69 162.46 1161.78 176.26 1163.97 209.06 1165.06 223.5 1166.15 234.12 1167.24 240.06 1168.33 241.47 1169.43 239.36 1170.52 235.19 1171.61 230.43 1172.7 226.15 1173.79 222.71 1174.89 219.8 1175.98 216.68 1177.07 212.44 1178.16 206.46 1179.25 198.61 1180.35 189.32 1181.44 179.52 1182.53 170.31 1183.62 162.7 1184.71 157.38 1185.81 154.6 1186.9 154.21 1187.99 155.81 1189.08 158.97 1190.17 163.36 1191.26 168.8 1192.36 175.24 1193.45 182.58 1195.63 198.71 1196.72 206.17 1197.82 212.06 1198.91 215.59 1200 216.3"/></g><g><text class="svg-plot-label svg-plot-t" x="0" y="0" transform="rotate(-90) translate(-199.1 -20.87)">signal</text><text class="svg-plot-value" style="text-anchor:end" x="-5" y="167.869">1</text><text class="svg-plot-value" style="text-anchor:end" x="-5" y="226.635">-1</text><text class="svg-plot-value" style="text-anchor:end" x="-5" y="197.252">0</text><text class="svg-plot-label svg-plot-t" x="600" y="424.1">time</text><text class="svg-plot-value" x="1187.99" y="408.6">1088</text><text class="svg-plot-value" x="0" y="408.6">0</text><text class="svg-plot-value" x="1153.05" y="408.6">1056</text><text class="svg-plot-value" x="0" y="408.6">0</text><text class="svg-plot-value" x="1118.11" y="408.6">1024</text><text class="svg-plot-value" x="0" y="408.6">0</text><text class="svg-plot-value" x="1083.17" y="408.6">992</text><text class="svg-plot-value" x="0" y="408.6">0</text><text class="svg-plot-value" x="1048.23" y="408.6">960</text><text class="svg-plot-value" x="0" y="408.6">0</text><text class="svg-plot-value" x="1013.28" y="408.6">928</text><text class="svg-plot-value" x="0" y="408.6">0</text><text class="svg-plot-value" x="978.344" y="408.6">896</text><text class="svg-plot-value" x="0" y="408.6">0</text><text class="svg-plot-value" x="943.403" y="408.6">864</text><text class="svg-plot-value" x="0" y="408.6">0</text><text class="svg-plot-value" x="908.462" y="408.6">832</text><text class="svg-plot-value" x="0" y="408.6">0</text><text class="svg-plot-value" x="873.521" y="408.6">800</text><text class="svg-plot-value" x="0" y="408.6">0</text><text class="svg-plot-value" x="838.581" y="408.6">768</text><text class="svg-plot-value" x="0" y="408.6">0</text><text class="svg-plot-value" x="803.64" y="408.6">736</text><text class="svg-plot-value" x="0" y="408.6">0</text><text class="svg-plot-value" x="768.699" y="408.6">704</text><text class="svg-plot-value" x="0" y="408.6">0</text><text class="svg-plot-value" x="733.758" y="408.6">672</text><text class="svg-plot-value" x="0" y="408.6">0</text><text class="svg-plot-value" x="698.817" y="408.6">640</text><text class="svg-plot-value" x="0" y="408.6">0</text><text class="svg-plot-value" x="663.876" y="408.6">608</text><text class="svg-plot-value" x="0" y="408.6">0</text><text class="svg-plot-value" x="628.935" y="408.6">576</text><text class="svg-plot-value" x="0" y="408.6">0</text><text class="svg-plot-value" x="593.995" y="408.6">544</text><text class="svg-plot-value" x="0" y="408.6">0</text><text class="svg-plot-value" x="559.054" y="408.6">512</text><text class="svg-plot-value" x="0" y="408.6">0</text><text class="svg-plot-value" x="524.113" y="408.6">480</text><text class="svg-plot-value" x="0" y="408.6">0</text><text class="svg-plot-value" x="489.172" y="408.6">448</text><text class="svg-plot-value" x="0" y="408.6">0</text><text class="svg-plot-value" x="454.231" y="408.6">416</text><text class="svg-plot-value" x="0" y="408.6">0</text><text class="svg-plot-value" x="419.29" y="408.6">384</text><text class="svg-plot-value" x="0" y="408.6">0</text><text class="svg-plot-value" x="384.349" y="408.6">352</text><text class="svg-plot-value" x="0" y="408.6">0</text><text class="svg-plot-value" x="349.409" y="408.6">320</text><text class="svg-plot-value" x="0" y="408.6">0</text><text class="svg-plot-value" x="314.468" y="408.6">288</text><text class="svg-plot-value" x="0" y="408.6">0</text><text class="svg-plot-value" x="279.527" y="408.6">256</text><text class="svg-plot-value" x="0" y="408.6">0</text><text class="svg-plot-value" x="244.586" y="408.6">224</text><text class="svg-plot-value" x="0" y="408.6">0</text><text class="svg-plot-value" x="209.645" y="408.6">192</text><text class="svg-plot-value" x="0" y="408.6">0</text><text class="svg-plot-value" x="174.704" y="408.6">160</text><text class="svg-plot-value" x="0" y="408.6">0</text><text class="svg-plot-value" x="139.763" y="408.6">128</text><text class="svg-plot-value" x="0" y="408.6">0</text><text class="svg-plot-value" x="104.823" y="408.6">96</text><text class="svg-plot-value" x="0" y="408.6">0</text><text class="svg-plot-value" x="69.8817" y="408.6">64</text><text class="svg-plot-value" x="0" y="408.6">0</text><text class="svg-plot-value" x="34.9409" y="408.6">32</text><text class="svg-plot-value" x="0" y="408.6">0</text><text class="svg-plot-value" x="0" y="408.6">0</text><text class="svg-plot-value" x="0" y="408.6">0</text><text class="svg-plot-label svg-plot-t0" style="text-anchor:start" x="1203" y="215.098">stuff1</text></g><defs><g id="svg-plot-marker0" class="svg-plot-marker"><circle cx="0" cy="0" r="1" stroke="none"/></g><g id="svg-plot-marker1" class="svg-plot-marker"><path d="M0 0.9 -0.9 0 0 -0.9 0.9 0Z" fill="#FFFA" stroke-linejoin="miter" stroke-width="0.6"/></g><g id="svg-plot-marker2" class="svg-plot-marker"><path fill="none" d="M0 -1.2 0 1.2 M -1.2 0 1.2 0" stroke-width="0.7"/></g><g id="svg-plot-marker3" class="svg-plot-marker"><circle cx="0" cy="0" fill="#FFFA" r="0.8" stroke-width="0.65"/></g><g id="svg-plot-marker4" class="svg-plot-marker"><path stroke="none" d="M0 -1.25 1.25 0.9 -1.25 0.9Z"/></g><mask id="svg-plot-hatch0"><rect x="-1753" y="-1753" width="3506" height="3506" fill="url(#svg-plot-hatch0-pattern)" style="transform:rotate(30deg)"/></mask><pattern patternUnits="userSpaceOnUse" id="svg-plot-hatch0-pattern" class="svg-plot-hatch" x="0" y="0" width="10" height="2.4" stroke="#FFF" fill="none"><line x1="-1" x2="11" y1="1.2" y2="1.2"/></pattern><mask id="svg-plot-hatch1"><rect x="-1753" y="-1753" width="3506" height="3506" fill="url(#svg-plot-hatch1-pattern)" style="transform:rotate(-50deg)"/></mask><pattern patternUnits="userSpaceOnUse" id="svg-plot-hatch1-pattern" class="svg-plot-hatch" x="0" y="0" width="10" height="3" stroke="#FFF" fill="none"><line x1="-1" x2="11" y1="1.5" y2="1.5"/></pattern><mask id="svg-plot-hatch3"><rect x="-1753" y="-1753" width="3506" height="3506" fill="url(#svg-plot-hatch3-pattern)" style="transform:rotate(8deg)"/><rect x="-1753" y="-1753" width="3506" height="3506" fill="url(#svg-plot-hatch3-pattern)" style="transform:rotate(93deg)"/></mask><pattern patternUnits="userSpaceOnUse" id="svg-plot-hatch3-pattern" class="svg-plot-hatch" x="0" y="0" width="10" height="3" stroke="#FFF" fill="none"><line x1="-1" x2="11" y1="1.5" y2="1.5"/></pattern></defs><style>.svg-plot{stroke-linecap:butt;stroke-linejoin:round;}.svg-plot-bg{fill:none;stroke:none;}.svg-plot-axis{stroke:none;fill:#FFFFFFD9;}.svg-plot-legend{stroke:none;fill:#FFFFFFE4;}.svg-plot-line{stroke:blue;fill:none;stroke-width:1px;stroke-linejoin:round;}.svg-plot-fill{stroke:none;opacity:0.6;}.svg-plot-major{stroke:#000;stroke-width:1px;stroke-linecap:square;fill:none;}.svg-plot-minor{stroke:#0000004D;stroke-width:0.5px;stroke-dasharray:0.5 1.5;stroke-linecap:round;fill:none;}.svg-plot-tick{stroke:#000;fill:none;stroke-width:1px;stroke-linecap:butt;}.svg-plot-value,.svg-plot-label{font-family:Arial,sans-serif;fill:#000;stroke:#FFFFFF48;stroke-width:2.5px;paint-order:stroke fill;text-anchor:middle;dominant-baseline:central;alignment-baseline:baseline;}.svg-plot-label{font-size:12px;}.svg-plot-value{font-size:9px;}.svg-plot-hatch{stroke:#FFF;stroke-width:1px;}.svg-plot-marker{transform:scale(3.25);}.svg-plot-s{stroke:#000;}.svg-plot-f,.svg-plot-t{fill:#000;}.svg-plot-s0{stroke:#CC0000}.svg-plot-f0,.svg-plot-t0{fill:#CC0000}.svg-plot-s1{stroke:#0073E6}.svg-plot-f1,.svg-plot-t1{fill:#0073E6}.svg-plot-s2{stroke:#00B300}.svg-plot-f2,.svg-plot-t2{fill:#00B300}.svg-plot-s3{stroke:#806600}.svg-plot-f3,.svg-plot-t3{fill:#806600}.svg-plot-s4{stroke:#E69900}.svg-plot-f4,.svg-plot-t4{fill:#E69900}.svg-plot-s5{stroke:#CC00CC}.svg-plot-f5,.svg-plot-t5{fill:#CC00CC}.svg-plot-d0{stroke-width:0.9px}.svg-plot-d1{stroke-dasharray:2.8 1.6}.svg-plot-d2{stroke-dasharray:1.2 1.2}.svg-plot-d3{stroke-dasharray:5 4}.svg-plot-d4{stroke-dasharray:4 1 1 1 1 1}.svg-plot-d5{stroke-dasharray:10 3}.svg-plot-d6{stroke-dasharray:4 2 1 2}.svg-plot-h0{mask:url(#svg-plot-hatch0)}.svg-plot-h1{mask:url(#svg-plot-hatch1)}.svg-plot-h2{opacity:0.2}.svg-plot-h3{mask:url(#svg-plot-hatch3)}#svg-plot-hatch0-pattern{stroke-width:0.9px}#svg-plot-hatch3-pattern{stroke-width:0.7px}.svg-plot-value,.svg-plot-label{font-family:Verdana,sans-serif;}.svg-plot-axis{fill:#EEE;}.svg-plot-tick{stroke:#666;stroke-width:0.75px;}.svg-plot-value{fill:#666;opacity:0.8;font-weight:bold;}.svg-plot-major{stroke:#FFF;stroke-width:1.5px;}.svg-plot-minor{stroke:#FFF;stroke-width:0.75px;stroke-dasharray:none;}</style><script>var q=document,x=setTimeout,a=Math.random,r=q.querySelector(&quot;style&quot;);r.textContent='@import &quot;/style/article/dist.css&quot;;'+r.textContent+'.svg-plot-value,.svg-plot-label{font-family:&quot;Geraint Dense&quot;,Arial,sans-serif}';var t=[];q.querySelectorAll(&quot;path&quot;).forEach(function(e){var y=e.getAttribute(&quot;d&quot;);t.push(function(){var f=40*a(),u=!0,g=2*(a()-.5),h=2*(a()-.5),k=2*(a()-.5),l=2*(a()-.5),m,n,B=y.replace(/([0-9\.]+) ([0-9\.]+)/g,function(C,z,A){function p(b,c){b=parseFloat(b);c=parseFloat(c);if(!u){var d=b-m,v=c-n;d=Math.sqrt(d*
		d+v*v);if(20&lt;d)return p(.5*(m+b),.5*(n+c)),p(b,c);f+=d;40&lt;f&amp;&amp;(f=0,g=h,k=l,h=2*(a()-.5),l=2*(a()-.5))}u=!1;m=b;n=c;d=f/40;b+=g+(h-g)*d;c+=k+(l-k)*d;result+=&quot; &quot;+b+&quot; &quot;+c}result=&quot;&quot;;p(z,A);return result});e.setAttribute(&quot;d&quot;,B)})});var w=function(){t.forEach(function(e){e()});x(w,240*(.9+.2*a()))};w()
		</script></svg>